<svg width="100" height="100" viewBox="0 0 100 100" fill="none" xmlns="http://www.w3.org/2000/svg">
<g clip-path="url(#clip0_150_10)">
<rect width="100" height="100" fill="white"/>
<g clip-path="url(#clip1_150_10)">
<mask id="mask0_150_10" style="mask-type:luminance" maskUnits="userSpaceOnUse" x="28" y="20" width="33" height="29">
<path d="M30.9285 20.1056C25.377 27.8434 42.1734 39.316 60.2516 48.1227C44.3262 37.2666 33.4033 27.6444 30.9285 20.1056ZM36.7516 44.445C38.9369 45.9107 44.4187 47.1338 52.9004 48.1349C45.5937 49.8421 39.922 49.051 36.7516 44.445ZM30.7843 35.8056C33.9079 39.2504 42.4857 43.2146 55.1746 47.5682C40.8999 46.0855 32.4567 42.2888 30.7843 35.8056ZM28.7 26.0876C31.5064 32.9044 42.2358 40.2199 57.5545 47.8267C39.0005 41.494 26.6853 33.5075 28.7 26.0876Z" fill="white"/>
</mask>
<g mask="url(#mask0_150_10)">
<path d="M23.3999 25.2442L21.7883 26.3441L43.8505 59.3177L45.462 58.2177L23.3999 25.2442Z" fill="#C42127"/>
<path d="M23.4847 25.1868L23.3533 25.2765L45.4154 58.25L45.5468 58.1604L23.4847 25.1868Z" fill="#BF3727"/>
<path d="M23.5738 25.1252L23.4424 25.2148L45.5046 58.1884L45.6359 58.0987L23.5738 25.1252Z" fill="#BF3727"/>
<path d="M23.6671 25.0616L23.5356 25.1512L45.5864 58.1326L45.7178 58.0429L23.6671 25.0616Z" fill="#C62127"/>
<path d="M23.7493 25.0063L23.6179 25.0959L45.6801 58.0695L45.8115 57.9798L23.7493 25.0063Z" fill="#C62127"/>
<path d="M23.8377 24.9452L23.7063 25.0349L45.7685 58.0085L45.8999 57.9188L23.8377 24.9452Z" fill="#C52427"/>
<path d="M23.9266 24.8827L23.7952 24.9724L45.8573 57.946L45.9887 57.8563L23.9266 24.8827Z" fill="#C13827"/>
<path d="M24.0113 24.8266L23.8799 24.9163L45.9421 57.8898L46.0734 57.8001L24.0113 24.8266Z" fill="#C13827"/>
<path d="M24.1014 24.7659L23.97 24.8556L46.0321 57.8292L46.1635 57.7395L24.1014 24.7659Z" fill="#C13827"/>
<path d="M24.1924 24.7026L24.061 24.7922L46.1175 57.7697L46.2489 57.68L24.1924 24.7026Z" fill="#C33A27"/>
<path d="M24.2774 24.646L24.146 24.7357L46.2082 57.7093L46.3396 57.6196L24.2774 24.646Z" fill="#C33A27"/>
<path d="M24.3628 24.5836L24.2314 24.6733L46.2993 57.643L46.4307 57.5533L24.3628 24.5836Z" fill="#C33A27"/>
<path d="M24.4551 24.5239L24.3237 24.6135L46.3802 57.591L46.5116 57.5013L24.4551 24.5239Z" fill="#C43C27"/>
<path d="M24.5391 24.4654L24.4077 24.5551L46.4756 57.5247L46.607 57.435L24.5391 24.4654Z" fill="#C53B27"/>
<path d="M24.628 24.4069L24.4966 24.4966L46.5588 57.4701L46.6901 57.3805L24.628 24.4069Z" fill="#C53B27"/>
<path d="M24.7181 24.3432L24.5867 24.4329L46.6488 57.4064L46.7802 57.3167L24.7181 24.3432Z" fill="#C53B27"/>
<path d="M24.804 24.2858L24.6726 24.3755L46.7348 57.349L46.8662 57.2594L24.804 24.2858Z" fill="#C33A27"/>
<path d="M24.8919 24.2257L24.7605 24.3154L46.8227 57.289L46.9541 57.1993L24.8919 24.2257Z" fill="#C73E27"/>
<path d="M24.9812 24.1623L24.8499 24.252L46.912 57.2255L47.0434 57.1358L24.9812 24.1623Z" fill="#CB3C27"/>
<path d="M25.0689 24.1053L24.9375 24.1949L46.9997 57.1685L47.1311 57.0788L25.0689 24.1053Z" fill="#CB3E27"/>
<path d="M25.1541 24.0452L25.0227 24.1349L47.0906 57.1046L47.2219 57.0149L25.1541 24.0452Z" fill="#CB3E27"/>
<path d="M25.2466 23.9844L25.1152 24.0741L47.1717 57.0515L47.3031 56.9619L25.2466 23.9844Z" fill="#CB3E27"/>
<path d="M25.3308 23.9251L25.1995 24.0148L47.2673 56.9844L47.3987 56.8947L25.3308 23.9251Z" fill="#CC3E27"/>
<path d="M25.4197 23.8655L25.2883 23.9552L47.3505 56.9288L47.4819 56.8391L25.4197 23.8655Z" fill="#CC4127"/>
<path d="M25.5106 23.8045L25.3792 23.8942L47.4356 56.8716L47.567 56.782L25.5106 23.8045Z" fill="#CC4127"/>
<path d="M25.5955 23.745L25.4641 23.8347L47.5263 56.8083L47.6577 56.7186L25.5955 23.745Z" fill="#CC4527"/>
<path d="M25.6846 23.6838L25.5532 23.7734L47.6154 56.747L47.7468 56.6573L25.6846 23.6838Z" fill="#CC4527"/>
<path d="M25.7715 23.6227L25.6401 23.7124L47.7023 56.686L47.8337 56.5963L25.7715 23.6227Z" fill="#CC4527"/>
<path d="M25.8594 23.5663L25.728 23.656L47.7902 56.6296L47.9216 56.5399L25.8594 23.5663Z" fill="#D03728"/>
<path d="M25.9456 23.5038L25.8142 23.5935L47.8821 56.5632L48.0134 56.4735L25.9456 23.5038Z" fill="#CE4A27"/>
<path d="M26.0374 23.4444L25.906 23.5341L47.9625 56.5115L48.0939 56.4218L26.0374 23.4444Z" fill="#CE4A27"/>
<path d="M26.1253 23.3821L25.9939 23.4718L48.0561 56.4454L48.1875 56.3557L26.1253 23.3821Z" fill="#CE4927"/>
<path d="M26.2112 23.326L26.0798 23.4156L48.142 56.3892L48.2734 56.2995L26.2112 23.326Z" fill="#CF4A27"/>
<path d="M26.3011 23.2651L26.1697 23.3547L48.2261 56.3322L48.3576 56.2425L26.3011 23.2651Z" fill="#CD5027"/>
<path d="M26.3853 23.2046L26.2539 23.2943L48.3218 56.264L48.4531 56.1743L26.3853 23.2046Z" fill="#CF4927"/>
<path d="M26.4751 23.146L26.3438 23.2357L48.4059 56.2093L48.5373 56.1196L26.4751 23.146Z" fill="#CF4927"/>
<path d="M26.5665 23.081L26.4351 23.1707L48.4915 56.1481L48.6229 56.0584L26.5665 23.081Z" fill="#CD5528"/>
<path d="M26.6509 23.0256L26.5195 23.1152L48.5817 56.0888L48.7131 55.9991L26.6509 23.0256Z" fill="#CF5127"/>
<path d="M26.7381 22.9657L26.6067 23.0554L48.6689 56.029L48.8003 55.9393L26.7381 22.9657Z" fill="#CF5127"/>
<path d="M26.8292 22.9048L26.6978 22.9945L48.7542 55.9719L48.8856 55.8823L26.8292 22.9048Z" fill="#CF5627"/>
<path d="M26.9146 22.8456L26.7832 22.9353L48.8454 55.9089L48.9768 55.8192L26.9146 22.8456Z" fill="#CF5527"/>
<path d="M26.9995 22.7854L26.8682 22.8751L48.936 55.8448L49.0674 55.7551L26.9995 22.7854Z" fill="#CF5527"/>
<path d="M27.0941 22.7231L26.9626 22.8127L49.0191 55.7902L49.1505 55.7005L27.0941 22.7231Z" fill="#D15627"/>
<path d="M27.1765 22.6649L27.0452 22.7546L49.113 55.7243L49.2444 55.6346L27.1765 22.6649Z" fill="#D35727"/>
<path d="M27.2666 22.6053L27.1353 22.6949L49.1974 55.6685L49.3288 55.5788L27.2666 22.6053Z" fill="#D35727"/>
<path d="M27.3548 22.543L27.2234 22.6327L49.2856 55.6062L49.417 55.5166L27.3548 22.543Z" fill="#D35727"/>
<path d="M27.4415 22.4854L27.3101 22.5751L49.3722 55.5486L49.5036 55.459L27.4415 22.4854Z" fill="#D55627"/>
<path d="M27.5286 22.4256L27.3972 22.5153L49.4594 55.4888L49.5908 55.3991L27.5286 22.4256Z" fill="#D55927"/>
<path d="M27.6197 22.3625L27.4883 22.4521L49.5505 55.4257L49.6818 55.336L27.6197 22.3625Z" fill="#D55927"/>
<path d="M27.7063 22.3061L27.575 22.3958L49.6371 55.3693L49.7685 55.2796L27.7063 22.3061Z" fill="#D55927"/>
<path d="M27.7923 22.2446L27.6609 22.3344L49.7288 55.304L49.8601 55.2143L27.7923 22.2446Z" fill="#D55F27"/>
<path d="M27.8834 22.1855L27.752 22.2751L49.8084 55.2526L49.9398 55.1629L27.8834 22.1855Z" fill="#D55D27"/>
<path d="M27.9671 22.126L27.8357 22.2157L49.9036 55.1854L50.0349 55.0957L27.9671 22.126Z" fill="#D75D27"/>
<path d="M28.0572 22.0663L27.9258 22.156L49.988 55.1296L50.1193 55.0399L28.0572 22.0663Z" fill="#D75D27"/>
<path d="M28.1475 22.0027L28.0161 22.0924L50.0726 55.0699L50.204 54.9802L28.1475 22.0027Z" fill="#D76027"/>
<path d="M28.233 21.9458L28.1016 22.0355L50.1637 55.0091L50.2951 54.9194L28.233 21.9458Z" fill="#D75F27"/>
<path d="M28.3201 21.8848L28.1887 21.9745L50.2509 54.948L50.3823 54.8584L28.3201 21.8848Z" fill="#DA6127"/>
<path d="M28.4102 21.8223L28.2788 21.912L50.341 54.8855L50.4724 54.7959L28.4102 21.8223Z" fill="#DA6027"/>
<path d="M28.4969 21.7671L28.3655 21.8568L50.4277 54.8304L50.559 54.7407L28.4969 21.7671Z" fill="#DA6027"/>
<path d="M28.5838 21.7049L28.4524 21.7946L50.5146 54.7681L50.646 54.6784L28.5838 21.7049Z" fill="#DA6027"/>
<path d="M28.6763 21.6435L28.5449 21.7332L50.6014 54.7106L50.7328 54.6209L28.6763 21.6435Z" fill="#D96727"/>
<path d="M28.7608 21.5856L28.6294 21.6753L50.6916 54.6488L50.823 54.5592L28.7608 21.5856Z" fill="#E16128"/>
<path d="M28.8487 21.5256L28.7173 21.6152L50.7795 54.5888L50.9108 54.4991L28.8487 21.5256Z" fill="#E16128"/>
<path d="M28.9383 21.4638L28.8069 21.5535L50.8634 54.5309L50.9948 54.4413L28.9383 21.4638Z" fill="#DE6626"/>
<path d="M29.0235 21.4057L28.8921 21.4954L50.9543 54.4689L51.0857 54.3792L29.0235 21.4057Z" fill="#DE6626"/>
<path d="M29.1116 21.3465L28.9802 21.4362L51.0424 54.4097L51.1738 54.32L29.1116 21.3465Z" fill="#E06428"/>
<path d="M29.2032 21.2845L29.0718 21.3741L51.1282 54.3516L51.2597 54.2619L29.2032 21.2845Z" fill="#E06428"/>
<path d="M29.2884 21.2264L29.157 21.316L51.2192 54.2896L51.3505 54.1999L29.2884 21.2264Z" fill="#E16728"/>
<path d="M29.3753 21.1653L29.2439 21.255L51.3061 54.2286L51.4375 54.1389L29.3753 21.1653Z" fill="#E16728"/>
<path d="M29.4696 21.104L29.3381 21.1936L51.3889 54.1749L51.5203 54.0853L29.4696 21.104Z" fill="#E16728"/>
<path d="M29.5513 21.0455L29.4199 21.1351L51.4821 54.1087L51.6135 54.019L29.5513 21.0455Z" fill="#E16C28"/>
<path d="M29.6375 20.9854L29.5061 21.0751L51.574 54.0447L51.7053 53.955L29.6375 20.9854Z" fill="#E36B28"/>
<path d="M29.73 20.9244L29.5986 21.014L51.6551 53.9915L51.7865 53.9018L29.73 20.9244Z" fill="#E26A28"/>
<path d="M29.8162 20.8625L29.6848 20.9521L51.747 53.9257L51.8784 53.836L29.8162 20.8625Z" fill="#E26A28"/>
<path d="M29.9034 20.8063L29.772 20.896L51.8341 53.8696L51.9655 53.7799L29.9034 20.8063Z" fill="#E37229"/>
<path d="M29.9922 20.7427L29.8608 20.8324L51.923 53.806L52.0544 53.7163L29.9922 20.7427Z" fill="#E37029"/>
<path d="M30.0816 20.6845L29.9502 20.7742L52.0067 53.7516L52.1381 53.662L30.0816 20.6845Z" fill="#DB7627"/>
<path d="M30.1668 20.6258L30.0354 20.7155L52.0976 53.689L52.229 53.5993L30.1668 20.6258Z" fill="#DB7627"/>
<path d="M30.2559 20.5633L30.1245 20.653L52.1867 53.6265L52.3181 53.5368L30.2559 20.5633Z" fill="#E27727"/>
<path d="M30.3519 20.5152L30.2205 20.6049L52.2826 53.5784L52.414 53.4887L30.3519 20.5152Z" fill="#E27727"/>
<path d="M30.3458 20.1055L30.2144 20.1952L52.2708 53.1726L52.4022 53.083L30.3458 20.1055Z" fill="#E27727"/>
<path d="M30.429 20.4452L30.2976 20.5349L52.3655 53.5046L52.4969 53.4149L30.429 20.4452Z" fill="#DD7827"/>
<path d="M30.5206 20.3831L30.3892 20.4728L52.4456 53.4502L52.577 53.3606L30.5206 20.3831Z" fill="#E07B26"/>
<path d="M30.6067 20.3224L30.4753 20.4121L52.5375 53.3857L52.6689 53.296L30.6067 20.3224Z" fill="#E07B26"/>
<path d="M30.6949 20.2655L30.5635 20.3552L52.6256 53.3288L52.757 53.2391L30.6949 20.2655Z" fill="#E27B26"/>
<path d="M30.7855 20.2049L30.6541 20.2946L52.7105 53.272L52.8419 53.1823L30.7855 20.2049Z" fill="#E27B26"/>
<path d="M30.8716 20.1442L30.7402 20.2339L52.8024 53.2074L52.9338 53.1178L30.8716 20.1442Z" fill="#E18226"/>
<path d="M30.9573 20.0856L30.8259 20.1753L52.8881 53.1489L53.0195 53.0592L30.9573 20.0856Z" fill="#E28526"/>
<path d="M31.0464 20.0232L30.915 20.1129L52.9772 53.0865L53.1086 52.9968L31.0464 20.0232Z" fill="#E57F28"/>
<path d="M31.1375 19.9634L31.0061 20.0531L53.0626 53.0305L53.194 52.9409L31.1375 19.9634Z" fill="#E57F28"/>
<path d="M31.2205 19.9044L31.0891 19.9941L53.157 52.9638L53.2884 52.8741L31.2205 19.9044Z" fill="#E28425"/>
<path d="M31.3123 19.8436L31.1809 19.9332L53.2374 52.9107L53.3688 52.821L31.3123 19.8436Z" fill="#E28425"/>
<path d="M31.4002 19.7847L31.2688 19.8744L53.3253 52.8518L53.4567 52.7622L31.4002 19.7847Z" fill="#E88129"/>
<path d="M31.4866 19.7217L31.3552 19.8114L53.4174 52.785L53.5488 52.6953L31.4866 19.7217Z" fill="#E28B25"/>
<path d="M31.5762 19.6636L31.4448 19.7533L53.5013 52.7307L53.6327 52.6411L31.5762 19.6636Z" fill="#E28B25"/>
<path d="M31.6624 19.6012L31.531 19.6909L53.5932 52.6645L53.7246 52.5748L31.6624 19.6012Z" fill="#E39125"/>
<path d="M31.75 19.5461L31.6187 19.6357L53.6808 52.6093L53.8122 52.5196L31.75 19.5461Z" fill="#E68F24"/>
<path d="M31.8379 19.4825L31.7065 19.5721L53.7687 52.5457L53.9001 52.456L31.8379 19.4825Z" fill="#E58D25"/>
<path d="M31.928 19.421L31.7966 19.5106L53.8531 52.4881L53.9845 52.3984L31.928 19.421Z" fill="#E58D25"/>
<path d="M32.0127 19.3674L31.8813 19.457L53.9435 52.4306L54.0749 52.3409L32.0127 19.3674Z" fill="#ED9327"/>
<path d="M32.1031 19.3035L31.9717 19.3932L54.0282 52.3706L54.1596 52.281L32.1031 19.3035Z" fill="#EE8F25"/>
<path d="M32.1929 19.244L32.0615 19.3336L54.118 52.3111L54.2494 52.2214L32.1929 19.244Z" fill="#EE8F25"/>
<path d="M32.2749 19.1839L32.1436 19.2736L54.2114 52.2432L54.3428 52.1535L32.2749 19.1839Z" fill="#EF9628"/>
<path d="M32.3699 19.1237L32.2385 19.2134L54.2893 52.1947L54.4207 52.1051L32.3699 19.1237Z" fill="#F2982D"/>
<path d="M32.4529 19.0635L32.3215 19.1532L54.3837 52.1268L54.5151 52.0371L32.4529 19.0635Z" fill="#F2982D"/>
<path d="M32.5406 19.0059L32.4092 19.0956L54.4714 52.0691L54.6027 51.9795L32.5406 19.0059Z" fill="#F3952D"/>
<path d="M32.6285 18.9435L32.4971 19.0332L54.5592 52.0068L54.6906 51.9171L32.6285 18.9435Z" fill="#F29B2A"/>
<path d="M32.7198 18.8839L32.5884 18.9735L54.6448 51.951L54.7763 51.8613L32.7198 18.8839Z" fill="#F29B2A"/>
<path d="M32.8042 18.8266L32.6729 18.9163L54.735 51.8898L54.8664 51.8001L32.8042 18.8266Z" fill="#F29B2C"/>
<path d="M32.8926 18.7619L32.7612 18.8516L54.8234 51.8251L54.9548 51.7354L32.8926 18.7619Z" fill="#F39C2E"/>
<path d="M32.9825 18.7051L32.8511 18.7948L54.9075 51.7722L55.039 51.6826L32.9825 18.7051Z" fill="#F39C2E"/>
<path d="M33.0652 18.6461L32.9338 18.7358L55.0017 51.7055L55.1331 51.6158L33.0652 18.6461Z" fill="#F29F2C"/>
<path d="M33.1595 18.5834L33.0281 18.6731L55.0845 51.6505L55.216 51.5609L33.1595 18.5834Z" fill="#F29F2C"/>
<path d="M33.2444 18.5215L33.113 18.6112L55.1752 51.5848L55.3066 51.4951L33.2444 18.5215Z" fill="#F2A22A"/>
<path d="M33.3323 18.4651L33.2009 18.5548L55.2631 51.5284L55.3945 51.4387L33.3323 18.4651Z" fill="#F3A22F"/>
<path d="M33.4234 18.4036L33.292 18.4933L55.3485 51.4707L55.4799 51.3811L33.4234 18.4036Z" fill="#F4A42A"/>
<path d="M33.5106 18.345L33.3792 18.4347L55.4356 51.4121L55.567 51.3225L33.5106 18.345Z" fill="#F4A432"/>
<path d="M33.5948 18.2878L33.4634 18.3774L55.5255 51.351L55.6569 51.2613L33.5948 18.2878Z" fill="#F4A12E"/>
<path d="M33.6863 18.2244L33.5549 18.3141L55.6114 51.2915L55.7428 51.2019L33.6863 18.2244Z" fill="#F4A12E"/>
<path d="M33.7742 18.1633L33.6428 18.2529L55.6993 51.2304L55.8307 51.1407L33.7742 18.1633Z" fill="#F4AE2A"/>
<path d="M33.8567 18.104L33.7253 18.1937L55.7932 51.1634L55.9246 51.0737L33.8567 18.104Z" fill="#F5A82D"/>
<path d="M33.9503 18.0434L33.8188 18.1331L55.8753 51.1105L56.0067 51.0208L33.9503 18.0434Z" fill="#F5A82D"/>
<path d="M34.0374 17.9836L33.906 18.0732L55.9625 51.0507L56.0939 50.961L34.0374 17.9836Z" fill="#F5A82D"/>
<path d="M34.1228 17.9275L33.9915 18.0172L56.0536 50.9908L56.185 50.9011L34.1228 17.9275Z" fill="#F5A82D"/>
<path d="M34.2139 17.8653L34.0825 17.955L56.139 50.9324L56.2704 50.8427L34.2139 17.8653Z" fill="#F5A42B"/>
<path d="M34.2999 17.802L34.1685 17.8917L56.2306 50.8653L56.362 50.7756L34.2999 17.802Z" fill="#F4A12E"/>
<path d="M34.3875 17.7421L34.2561 17.8318L56.3183 50.8053L56.4497 50.7157L34.3875 17.7421Z" fill="#F4A12E"/>
<path d="M34.4747 17.6823L34.3433 17.772L56.4054 50.7455L56.5368 50.6559L34.4747 17.6823Z" fill="#F4A12E"/>
<path d="M34.5648 17.6243L34.4333 17.714L56.4898 50.6914L56.6212 50.6018L34.5648 17.6243Z" fill="#F4A432"/>
<path d="M34.6495 17.5661L34.5181 17.6558L56.5802 50.6293L56.7116 50.5396L34.6495 17.5661Z" fill="#F4A42A"/>
<path d="M34.742 17.5051L34.6106 17.5947L56.6671 50.5722L56.7985 50.4825L34.742 17.5051Z" fill="#F4A42A"/>
<path d="M34.8289 17.4404L34.6975 17.53L56.754 50.5075L56.8854 50.4178L34.8289 17.4404Z" fill="#F3A22F"/>
<path d="M34.9116 17.3844L34.7803 17.4741L56.8481 50.4438L56.9795 50.3541L34.9116 17.3844Z" fill="#F2A22A"/>
<path d="M35.0057 17.324L34.8743 17.4137L56.9307 50.3911L57.0621 50.3015L35.0057 17.324Z" fill="#F2A22A"/>
<path d="M35.0904 17.262L34.959 17.3517L57.0212 50.3252L57.1525 50.2356L35.0904 17.262Z" fill="#F29F2C"/>
<path d="M35.178 17.2068L35.0466 17.2965L57.1088 50.2701L57.2402 50.1804L35.178 17.2068Z" fill="#F29F2C"/>
<path d="M35.2662 17.1438L35.1348 17.2335L57.1969 50.2071L57.3283 50.1174L35.2662 17.1438Z" fill="#F29F2C"/>
<path d="M35.3565 17.0849L35.2251 17.1746L57.2816 50.152L57.413 50.0623L35.3565 17.0849Z" fill="#F29F2C"/>
<path d="M35.441 17.0252L35.3096 17.1149L57.3717 50.0884L57.5031 49.9987L35.441 17.0252Z" fill="#F39C2E"/>
<path d="M35.5325 16.9663L35.4011 17.0559L57.4576 50.0334L57.589 49.9437L35.5325 16.9663Z" fill="#F3A12A"/>
<path d="M35.6197 16.904L35.4883 16.9937L57.5448 49.9711L57.6762 49.8814L35.6197 16.904Z" fill="#F29B2C"/>
<path d="M35.7032 16.8449L35.5718 16.9346L57.6396 49.9042L57.771 49.8145L35.7032 16.8449Z" fill="#F29B2A"/>
<path d="M35.7974 16.7833L35.666 16.8729L57.7225 49.8504L57.8539 49.7607L35.7974 16.7833Z" fill="#F29B2A"/>
<path d="M35.8819 16.7236L35.7505 16.8132L57.8127 49.7868L57.9441 49.6971L35.8819 16.7236Z" fill="#F29B2A"/>
<path d="M35.9695 16.6684L35.8381 16.7581L57.9003 49.7316L58.0317 49.6419L35.9695 16.6684Z" fill="#F2982E"/>
<path d="M36.0594 16.6036L35.928 16.6932L57.9844 49.6707L58.1159 49.581L36.0594 16.6036Z" fill="#F2982E"/>
<path d="M36.1443 16.5425L36.0129 16.6322L58.0751 49.6058L58.2065 49.5161L36.1443 16.5425Z" fill="#F2982D"/>
<path d="M36.2337 16.4856L36.1023 16.5753L58.1645 49.5489L58.2959 49.4592L36.2337 16.4856Z" fill="#F2982D"/>
<path d="M36.3216 16.422L36.1902 16.5117L58.2524 49.4853L58.3838 49.3956L36.3216 16.422Z" fill="#F2982D"/>
<path d="M36.4114 16.3632L36.28 16.4529L58.3365 49.4303L58.4679 49.3407L36.4114 16.3632Z" fill="#F2982D"/>
<path d="M36.4934 16.3059L36.3621 16.3956L58.4299 49.3653L58.5613 49.2756L36.4934 16.3059Z" fill="#F19429"/>
<path d="M36.587 16.2444L36.4556 16.3341L58.512 49.3115L58.6434 49.2219L36.587 16.2444Z" fill="#F19429"/>
<path d="M36.6754 16.1846L36.5439 16.2743L58.6004 49.2517L58.7318 49.1621L36.6754 16.1846Z" fill="#EE9627"/>
<path d="M36.761 16.1264L36.6296 16.2161L58.6918 49.1896L58.8232 49.0999L36.761 16.1264Z" fill="#EE9627"/>
<path d="M36.8541 16.0628L36.7227 16.1525L58.7734 49.1338L58.9049 49.0442L36.8541 16.0628Z" fill="#E88F24"/>
<path d="M36.9361 16.003L36.8047 16.0927L58.8669 49.0662L58.9983 48.9765L36.9361 16.003Z" fill="#E99023"/>
<path d="M37.0213 15.9444L36.8899 16.0341L58.9578 49.0037L59.0891 48.914L37.0213 15.9444Z" fill="#E99023"/>
<path d="M37.1121 15.8843L36.9807 15.974L59.0429 48.9476L59.1743 48.8579L37.1121 15.8843Z" fill="#EE9229"/>
<path d="M37.202 15.8232L37.0706 15.9128L59.127 48.8903L59.2584 48.8006L37.202 15.8232Z" fill="#E99023"/>
<path d="M37.2879 15.7625L37.1565 15.8522L59.2187 48.8257L59.3501 48.7361L37.2879 15.7625Z" fill="#E99023"/>
<path d="M37.3787 15.7037L37.2473 15.7933L59.3038 48.7708L59.4352 48.6811L37.3787 15.7037Z" fill="#E48D25"/>
<path d="M37.4669 15.6439L37.3354 15.7335L59.3919 48.711L59.5233 48.6213L37.4669 15.6439Z" fill="#E48D25"/>
<path d="M37.5486 15.5863L37.4172 15.676L59.4851 48.6457L59.6165 48.556L37.5486 15.5863Z" fill="#E48D25"/>
<path d="M37.6419 15.5252L37.5105 15.6149L59.567 48.5923L59.6984 48.5027L37.6419 15.5252Z" fill="#E9832A"/>
<path d="M37.7305 15.4621L37.5991 15.5518L59.6556 48.5292L59.787 48.4395L37.7305 15.4621Z" fill="#E9832A"/>
<path d="M37.8157 15.4059L37.6843 15.4956L59.7465 48.4692L59.8779 48.3795L37.8157 15.4059Z" fill="#E38B25"/>
<path d="M37.9036 15.3423L37.7722 15.432L59.8344 48.4056L59.9658 48.3159L37.9036 15.3423Z" fill="#E38B25"/>
<path d="M37.9905 15.2825L37.8591 15.3722L59.9213 48.3458L60.0527 48.2561L37.9905 15.2825Z" fill="#E38B25"/>
<path d="M38.0796 15.2273L37.9482 15.317L60.0104 48.2906L60.1418 48.2009L38.0796 15.2273Z" fill="#E58A25"/>
<path d="M38.1673 15.1648L38.0359 15.2545L60.0981 48.2281L60.2295 48.1384L38.1673 15.1648Z" fill="#E38B25"/>
<path d="M38.1929 15.1463L38.1262 15.1918L60.1827 48.1692L60.2494 48.1237L38.1929 15.1463Z" fill="#E18726"/>
</g>
<mask id="mask1_150_10" style="mask-type:luminance" maskUnits="userSpaceOnUse" x="54" y="28" width="19" height="21">
<path d="M70.9678 28.4852C74.1358 33.175 65.8439 39.4433 55.4112 44.7495C55.1793 44.5833 54.9475 44.4182 54.718 44.2532C63.452 38.2785 69.3748 32.9129 70.9678 28.4852ZM66.4723 45.1887C65.0198 47.1763 62.8958 48.0742 60.2491 48.1215C59.7265 47.766 59.21 47.4105 58.6982 47.0574C62.6339 46.572 65.2589 45.9532 66.4723 45.1887ZM70.7636 39.3378C68.8318 41.3508 64.0539 43.5519 57.0379 45.901C57.3322 46.1085 57.6289 46.316 57.9281 46.5235C65.2685 45.446 69.6775 43.1066 70.7636 39.3378ZM72.3914 32.6641C70.5882 36.7156 64.6293 40.9103 56.0371 45.196C56.2197 45.3259 56.4035 45.4557 56.5874 45.5855C66.948 41.8131 73.4859 37.1974 72.3914 32.6641Z" fill="white"/>
</mask>
<g mask="url(#mask1_150_10)">
<path d="M54.9118 37.5084L51.9258 39.1857L58.3808 50.9087L61.3668 49.2315L54.9118 37.5084Z" fill="#C42127"/>
<path d="M54.9647 37.4751L54.8828 37.5211L61.3399 49.2431L61.4218 49.197L54.9647 37.4751Z" fill="#BF3727"/>
<path d="M55.0211 37.4435L54.9392 37.4895L61.3943 49.2126L61.4762 49.1666L55.0211 37.4435Z" fill="#BF3727"/>
<path d="M55.0738 37.4135L54.9919 37.4595L61.449 49.1814L61.5309 49.1354L55.0738 37.4135Z" fill="#C62127"/>
<path d="M55.1315 37.3819L55.0496 37.4279L61.5046 49.1509L61.5865 49.1049L55.1315 37.3819Z" fill="#C62127"/>
<path d="M55.1866 37.3512L55.1047 37.3972L61.5598 49.1203L61.6417 49.0743L55.1866 37.3512Z" fill="#C52427"/>
<path d="M55.2394 37.3213L55.1575 37.3673L61.6146 49.0892L61.6964 49.0432L55.2394 37.3213Z" fill="#C13827"/>
<path d="M55.298 37.2887L55.2161 37.3347L61.6671 49.0601L61.749 49.0141L55.298 37.2887Z" fill="#C13827"/>
<path d="M55.349 37.2594L55.2671 37.3054L61.7242 49.0274L61.8061 48.9813L55.349 37.2594Z" fill="#C13827"/>
<path d="M55.4046 37.228L55.3228 37.274L61.7778 48.9971L61.8597 48.9511L55.4046 37.228Z" fill="#C33A27"/>
<path d="M55.4601 37.1974L55.3782 37.2434L61.8332 48.9665L61.9151 48.9205L55.4601 37.1974Z" fill="#C33A27"/>
<path d="M55.5126 37.1674L55.4307 37.2134L61.8877 48.9353L61.9696 48.8893L55.5126 37.1674Z" fill="#C33A27"/>
<path d="M55.5692 37.1358L55.4873 37.1818L61.9424 48.9048L62.0243 48.8588L55.5692 37.1358Z" fill="#C43C27"/>
<path d="M55.6222 37.1068L55.5403 37.1528L61.9974 48.8748L62.0793 48.8288L55.6222 37.1068Z" fill="#C53B27"/>
<path d="M55.6781 37.0741L55.5962 37.1201L62.0512 48.8432L62.1331 48.7972L55.6781 37.0741Z" fill="#C53B27"/>
<path d="M55.7335 37.0436L55.6516 37.0896L62.1067 48.8127L62.1886 48.7667L55.7335 37.0436Z" fill="#C53B27"/>
<path d="M55.7865 37.0145L55.7046 37.0605L62.1617 48.7825L62.2436 48.7365L55.7865 37.0145Z" fill="#C12126"/>
<path d="M55.8424 36.982L55.7605 37.028L62.2156 48.751L62.2975 48.705L55.8424 36.982Z" fill="#C73E27"/>
<path d="M55.8978 36.9519L55.8159 36.9979L62.271 48.721L62.3529 48.675L55.8978 36.9519Z" fill="#CB3C27"/>
<path d="M55.952 36.9222L55.8701 36.9683L62.3272 48.6902L62.4091 48.6442L55.952 36.9222Z" fill="#CB3E27"/>
<path d="M56.0079 36.8884L55.926 36.9344L62.3811 48.6575L62.463 48.6115L56.0079 36.8884Z" fill="#CB3E27"/>
<path d="M56.0611 36.8569L55.9792 36.903L62.4363 48.6249L62.5182 48.5789L56.0611 36.8569Z" fill="#CB3E27"/>
<path d="M56.1175 36.8279L56.0356 36.8739L62.4907 48.597L62.5726 48.551L56.1175 36.8279Z" fill="#CC3E27"/>
<path d="M56.1712 36.7969L56.0894 36.8429L62.5444 48.566L62.6263 48.52L56.1712 36.7969Z" fill="#CC4127"/>
<path d="M56.2254 36.7672L56.1436 36.8132L62.6006 48.5352L62.6825 48.4891L56.2254 36.7672Z" fill="#CC4127"/>
<path d="M56.2814 36.7346L56.1995 36.7806L62.6545 48.5037L62.7364 48.4577L56.2814 36.7346Z" fill="#CC4527"/>
<path d="M56.3343 36.704L56.2524 36.75L62.7115 48.4708L62.7934 48.4248L56.3343 36.704Z" fill="#CC4527"/>
<path d="M56.3907 36.6713L56.3088 36.7173L62.7659 48.4392L62.8478 48.3932L56.3907 36.6713Z" fill="#CC4527"/>
<path d="M56.4459 36.6397L56.364 36.6857L62.817 48.4099L62.8989 48.3639L56.4459 36.6397Z" fill="#D03728"/>
<path d="M56.4999 36.6133L56.418 36.6593L62.875 48.3812L62.9569 48.3352L56.4999 36.6133Z" fill="#CE4A27"/>
<path d="M56.5543 36.5824L56.4724 36.6284L62.9275 48.3515L63.0094 48.3055L56.5543 36.5824Z" fill="#CE4A27"/>
<path d="M56.6087 36.5529L56.5269 36.5989L62.9839 48.3208L63.0658 48.2748L56.6087 36.5529Z" fill="#CE4927"/>
<path d="M56.6654 36.5202L56.5835 36.5662L63.0386 48.2892L63.1204 48.2432L56.6654 36.5202Z" fill="#CF4A27"/>
<path d="M56.7198 36.4889L56.6379 36.5349L63.093 48.258L63.1749 48.212L56.7198 36.4889Z" fill="#CD5027"/>
<path d="M56.7731 36.4594L56.6912 36.5054L63.1482 48.2273L63.2301 48.1813L56.7731 36.4594Z" fill="#CF4927"/>
<path d="M56.8287 36.4285L56.7468 36.4745L63.2019 48.1976L63.2838 48.1516L56.8287 36.4285Z" fill="#CF4927"/>
<path d="M56.8837 36.3973L56.8018 36.4432L63.2548 48.1674L63.3367 48.1215L56.8837 36.3973Z" fill="#CD5528"/>
<path d="M56.9388 36.3664L56.8569 36.4124L63.312 48.1354L63.3939 48.0894L56.9388 36.3664Z" fill="#CF5127"/>
<path d="M56.993 36.3363L56.9111 36.3823L63.3662 48.1054L63.4481 48.0594L56.993 36.3363Z" fill="#CF5127"/>
<path d="M57.0465 36.3055L56.9646 36.3516L63.4217 48.0735L63.5036 48.0275L57.0465 36.3055Z" fill="#CF5627"/>
<path d="M57.1022 36.2735L57.0203 36.3195L63.4753 48.0425L63.5572 47.9965L57.1022 36.2735Z" fill="#CF5527"/>
<path d="M57.1573 36.244L57.0754 36.29L63.5305 48.0131L63.6124 47.9671L57.1573 36.244Z" fill="#CF5527"/>
<path d="M57.212 36.2096L57.1301 36.2556L63.5872 47.9775L63.6691 47.9315L57.212 36.2096Z" fill="#D15627"/>
<path d="M57.2665 36.1824L57.1846 36.2284L63.6396 47.9515L63.7215 47.9055L57.2665 36.1824Z" fill="#D35727"/>
<path d="M57.3231 36.1486L57.2412 36.1946L63.6942 47.9188L63.7761 47.8728L57.3231 36.1486Z" fill="#D35727"/>
<path d="M57.3766 36.1195L57.2947 36.1655L63.7497 47.8886L63.8316 47.8426L57.3766 36.1195Z" fill="#D35727"/>
<path d="M57.432 36.089L57.3501 36.135L63.8052 47.8581L63.887 47.8121L57.432 36.089Z" fill="#D55627"/>
<path d="M57.4859 36.0592L57.4041 36.1052L63.8611 47.8272L63.943 47.7811L57.4859 36.0592Z" fill="#D55927"/>
<path d="M57.5411 36.0274L57.4592 36.0734L63.9143 47.7964L63.9962 47.7504L57.5411 36.0274Z" fill="#D55927"/>
<path d="M57.5948 35.9988L57.5129 36.0448L63.97 47.7667L64.0519 47.7207L57.5948 35.9988Z" fill="#D55927"/>
<path d="M57.65 35.9657L57.5681 36.0117L64.0232 47.7348L64.1051 47.6888L57.65 35.9657Z" fill="#D55F27"/>
<path d="M57.7054 35.9363L57.6235 35.9823L64.0786 47.7054L64.1605 47.6594L57.7054 35.9363Z" fill="#D55D27"/>
<path d="M57.7582 35.9059L57.6763 35.9519L64.1334 47.6738L64.2152 47.6278L57.7582 35.9059Z" fill="#D75D27"/>
<path d="M57.8143 35.8736L57.7324 35.9196L64.1875 47.6426L64.2694 47.5966L57.8143 35.8736Z" fill="#D75D27"/>
<path d="M57.8692 35.8436L57.7874 35.8896L64.2444 47.6116L64.3263 47.5656L57.8692 35.8436Z" fill="#D76027"/>
<path d="M57.9239 35.8129L57.842 35.8589L64.2971 47.582L64.379 47.536L57.9239 35.8129Z" fill="#D75F27"/>
<path d="M57.9786 35.7825L57.8967 35.8285L64.3518 47.5516L64.4337 47.5056L57.9786 35.7825Z" fill="#DA6127"/>
<path d="M58.0326 35.752L57.9507 35.798L64.4078 47.5199L64.4897 47.4739L58.0326 35.752Z" fill="#DA6027"/>
<path d="M58.0882 35.7207L58.0063 35.7667L64.4614 47.4898L64.5433 47.4438L58.0882 35.7207Z" fill="#DA6027"/>
<path d="M58.1427 35.6898L58.0608 35.7358L64.5179 47.4578L64.5998 47.4118L58.1427 35.6898Z" fill="#DA6027"/>
<path d="M58.1986 35.6591L58.1167 35.7051L64.5718 47.4282L64.6536 47.3822L58.1986 35.6591Z" fill="#D96727"/>
<path d="M58.2538 35.6284L58.1719 35.6744L64.6269 47.3975L64.7088 47.3515L58.2538 35.6284Z" fill="#E16128"/>
<path d="M58.306 35.5982L58.2241 35.6442L64.6812 47.3661L64.7631 47.3201L58.306 35.5982Z" fill="#E16128"/>
<path d="M58.3629 35.5668L58.281 35.6128L64.7361 47.3359L64.818 47.2899L58.3629 35.5668Z" fill="#DE6626"/>
<path d="M58.4159 35.5371L58.334 35.5831L64.7911 47.3051L64.873 47.259L58.4159 35.5371Z" fill="#DE6626"/>
<path d="M58.4735 35.5021L58.3916 35.5481L64.8446 47.2723L64.9265 47.2263L58.4735 35.5021Z" fill="#E06428"/>
<path d="M58.5272 35.4746L58.4453 35.5206L64.9004 47.2437L64.9823 47.1977L58.5272 35.4746Z" fill="#E06428"/>
<path d="M58.5804 35.4418L58.4985 35.4878L64.9556 47.2097L65.0375 47.1637L58.5804 35.4418Z" fill="#E16728"/>
<path d="M58.6358 35.4113L58.554 35.4573L65.011 47.1792L65.0929 47.1332L58.6358 35.4113Z" fill="#E16728"/>
<path d="M58.691 35.3794L58.6091 35.4254L65.0662 47.1473L65.1481 47.1013L58.691 35.3794Z" fill="#E16728"/>
<path d="M58.7442 35.349L58.6624 35.395L65.1215 47.1158L65.2033 47.0698L58.7442 35.349Z" fill="#E16C28"/>
<path d="M58.8006 35.3207L58.7188 35.3667L65.1738 47.0898L65.2557 47.0438L58.8006 35.3207Z" fill="#E36B28"/>
<path d="M58.8543 35.2914L58.7725 35.3374L65.2295 47.0593L65.3114 47.0133L58.8543 35.2914Z" fill="#E26A28"/>
<path d="M58.9117 35.2579L58.8298 35.3038L65.2808 47.0292L65.3627 46.9832L58.9117 35.2579Z" fill="#E26A28"/>
<path d="M58.9662 35.2273L58.8843 35.2733L65.3393 46.9964L65.4212 46.9504L58.9662 35.2273Z" fill="#E37229"/>
<path d="M59.0179 35.1981L58.936 35.2441L65.3931 46.9661L65.475 46.9201L59.0179 35.1981Z" fill="#E37029"/>
<path d="M59.0751 35.1657L58.9932 35.2117L65.4482 46.9347L65.5301 46.8887L59.0751 35.1657Z" fill="#DB7627"/>
<path d="M59.1275 35.1375L59.0457 35.1835L65.5027 46.9054L65.5846 46.8594L59.1275 35.1375Z" fill="#DB7627"/>
<path d="M59.1842 35.104L59.1023 35.15L65.5574 46.8731L65.6392 46.8271L59.1842 35.104Z" fill="#E27727"/>
<path d="M59.2384 35.074L59.1565 35.12L65.6116 46.8431L65.6934 46.7971L59.2384 35.074Z" fill="#E27727"/>
<path d="M59.2931 35.0453L59.2112 35.0913L65.6683 46.8132L65.7502 46.7672L59.2931 35.0453Z" fill="#DD7827"/>
<path d="M59.3485 35.0117L59.2666 35.0577L65.7217 46.7808L65.8036 46.7348L59.3485 35.0117Z" fill="#E07B26"/>
<path d="M59.4022 34.9836L59.3203 35.0297L65.7774 46.7516L65.8593 46.7056L59.4022 34.9836Z" fill="#E07B26"/>
<path d="M59.4581 34.9524L59.3762 34.9984L65.8313 46.7215L65.9132 46.6755L59.4581 34.9524Z" fill="#E27B26"/>
<path d="M59.5118 34.9202L59.4299 34.9662L65.885 46.6893L65.9669 46.6433L59.5118 34.9202Z" fill="#E27B26"/>
<path d="M59.5665 34.8901L59.4846 34.9362L65.9417 46.6581L66.0236 46.6121L59.5665 34.8901Z" fill="#E18226"/>
<path d="M59.6224 34.859L59.5405 34.905L65.9956 46.6281L66.0775 46.5821L59.6224 34.859Z" fill="#E28526"/>
<path d="M59.6754 34.8248L59.5935 34.8708L66.0506 46.5928L66.1325 46.5468L59.6754 34.8248Z" fill="#E57F28"/>
<path d="M59.7308 34.7966L59.6489 34.8427L66.106 46.5646L66.1879 46.5186L59.7308 34.7966Z" fill="#E57F28"/>
<path d="M59.7862 34.765L59.7043 34.811L66.1594 46.5341L66.2413 46.4881L59.7862 34.765Z" fill="#E28425"/>
<path d="M59.8397 34.7374L59.7578 34.7834L66.2149 46.5054L66.2968 46.4594L59.8397 34.7374Z" fill="#E28425"/>
<path d="M59.8968 34.7051L59.8149 34.7511L66.27 46.4742L66.3519 46.4282L59.8968 34.7051Z" fill="#E88129"/>
<path d="M59.9505 34.6741L59.8687 34.7201L66.3237 46.4432L66.4056 46.3972L59.9505 34.6741Z" fill="#E28B25"/>
<path d="M60.0052 34.644L59.9233 34.6901L66.3804 46.412L66.4623 46.366L60.0052 34.644Z" fill="#E28B25"/>
<path d="M60.0602 34.6135L59.9783 34.6595L66.4333 46.3826L66.5152 46.3366L60.0602 34.6135Z" fill="#E39125"/>
<path d="M60.1144 34.5836L60.0325 34.6296L66.4896 46.3516L66.5714 46.3056L60.1144 34.5836Z" fill="#E68F24"/>
<path d="M60.1703 34.5513L60.0884 34.5973L66.5434 46.3204L66.6253 46.2744L60.1703 34.5513Z" fill="#E58D25"/>
<path d="M60.2237 34.5181L60.1418 34.5641L66.5989 46.286L66.6808 46.24L60.2237 34.5181Z" fill="#E58D25"/>
<path d="M60.2779 34.4869L60.196 34.533L66.6552 46.2538L66.737 46.2077L60.2779 34.4869Z" fill="#ED9327"/>
<path d="M60.3329 34.4564L60.251 34.5024L66.7081 46.2244L66.7899 46.1784L60.3329 34.4564Z" fill="#EE8F25"/>
<path d="M60.3876 34.4297L60.3057 34.4757L66.7627 46.1976L66.8446 46.1516L60.3876 34.4297Z" fill="#EE8F25"/>
<path d="M60.4449 34.3961L60.363 34.4421L66.8181 46.1652L66.9 46.1192L60.4449 34.3961Z" fill="#EF9628"/>
<path d="M60.5006 34.3653L60.4187 34.4113L66.8697 46.1366L66.9516 46.0906L60.5006 34.3653Z" fill="#F2982D"/>
<path d="M60.5531 34.3362L60.4712 34.3822L66.9283 46.1041L67.0102 46.0581L60.5531 34.3362Z" fill="#F2982D"/>
<path d="M60.608 34.3046L60.5261 34.3506L66.9812 46.0737L67.0631 46.0277L60.608 34.3046Z" fill="#F3952D"/>
<path d="M60.6627 34.2756L60.5808 34.3217L67.0379 46.0436L67.1198 45.9976L60.6627 34.2756Z" fill="#F29B2A"/>
<path d="M60.7171 34.2429L60.6353 34.2889L67.0903 46.012L67.1722 45.966L60.7171 34.2429Z" fill="#F29B2A"/>
<path d="M60.7726 34.2123L60.6907 34.2583L67.1457 45.9814L67.2276 45.9354L60.7726 34.2123Z" fill="#F29B2C"/>
<path d="M60.827 34.1797L60.7451 34.2257L67.2022 45.9476L67.2841 45.9016L60.827 34.1797Z" fill="#F39C2E"/>
<path d="M60.8815 34.1507L60.7996 34.1967L67.2546 45.9197L67.3365 45.8737L60.8815 34.1507Z" fill="#F39C2E"/>
<path d="M60.9376 34.1233L60.8557 34.1693L67.3087 45.8935L67.3906 45.8475L60.9376 34.1233Z" fill="#F29F2C"/>
<path d="M60.9893 34.0885L60.9075 34.1345L67.3666 45.8553L67.4485 45.8093L60.9893 34.0885Z" fill="#F29F2C"/>
<path d="M61.045 34.0564L60.9631 34.1024L67.4202 45.8243L67.5021 45.7783L61.045 34.0564Z" fill="#F2A22A"/>
<path d="M61.1002 34.0295L61.0183 34.0756L67.4754 45.7975L67.5573 45.7515L61.1002 34.0295Z" fill="#F3A22F"/>
<path d="M61.1561 33.9956L61.0742 34.0416L67.5293 45.7647L67.6112 45.7187L61.1561 33.9956Z" fill="#F4A42A"/>
<path d="M61.2113 33.9662L61.1294 34.0122L67.5845 45.7353L67.6663 45.6893L61.2113 33.9662Z" fill="#F4A432"/>
<path d="M61.2647 33.9367L61.1829 33.9827L67.6399 45.7046L67.7218 45.6586L61.2647 33.9367Z" fill="#F4A12E"/>
<path d="M61.3204 33.9046L61.2385 33.9506L67.6936 45.6736L67.7755 45.6276L61.3204 33.9046Z" fill="#F4A12E"/>
<path d="M61.3749 33.8744L61.293 33.9204L67.75 45.6423L67.8319 45.5963L61.3749 33.8744Z" fill="#F4AE2A"/>
<path d="M61.43 33.844L61.3481 33.89L67.8032 45.6131L67.8851 45.5671L61.43 33.844Z" fill="#F5A82D"/>
<path d="M61.4847 33.8124L61.4028 33.8584L67.8579 45.5815L67.9398 45.5355L61.4847 33.8124Z" fill="#F5A82D"/>
<path d="M61.5379 33.7827L61.4561 33.8287L67.9131 45.5507L67.995 45.5047L61.5379 33.7827Z" fill="#F5A82D"/>
<path d="M61.5943 33.7519L61.5125 33.7979L67.9675 45.5209L68.0494 45.4749L61.5943 33.7519Z" fill="#F5A82D"/>
<path d="M61.648 33.7205L61.5662 33.7665L68.0232 45.4884L68.1051 45.4424L61.648 33.7205Z" fill="#F5A42B"/>
<path d="M61.7032 33.6902L61.6213 33.7362L68.0764 45.4593L68.1583 45.4133L61.7032 33.6902Z" fill="#F4A12E"/>
<path d="M61.7587 33.6596L61.6768 33.7056L68.1318 45.4286L68.2137 45.3826L61.7587 33.6596Z" fill="#F4A12E"/>
<path d="M61.8114 33.6288L61.7295 33.6748L68.1866 45.3967L68.2685 45.3507L61.8114 33.6288Z" fill="#F4A12E"/>
<path d="M61.8678 33.5967L61.7859 33.6427L68.2409 45.3658L68.3228 45.3198L61.8678 33.5967Z" fill="#F4A432"/>
<path d="M61.9225 33.5679L61.8406 33.6139L68.2977 45.3358L68.3795 45.2898L61.9225 33.5679Z" fill="#F4A42A"/>
<path d="M61.9779 33.5351L61.896 33.5811L68.3511 45.3041L68.4329 45.2581L61.9779 33.5351Z" fill="#F4A42A"/>
<path d="M62.0333 33.5045L61.9514 33.5505L68.4065 45.2736L68.4884 45.2276L62.0333 33.5045Z" fill="#F3A22F"/>
<path d="M62.0858 33.4713L62.0039 33.5173L68.461 45.2393L68.5429 45.1933L62.0858 33.4713Z" fill="#F2A22A"/>
<path d="M62.1422 33.4441L62.0603 33.4901L68.5154 45.2132L68.5973 45.1672L62.1422 33.4441Z" fill="#F2A22A"/>
<path d="M62.1954 33.4108L62.1135 33.4568L68.5706 45.1787L68.6525 45.1327L62.1954 33.4108Z" fill="#F29F2C"/>
<path d="M62.2513 33.3812L62.1694 33.4272L68.6245 45.1503L68.7064 45.1043L62.2513 33.3812Z" fill="#F29F2C"/>
<path d="M62.3065 33.3506L62.2246 33.3966L68.6797 45.1197L68.7616 45.0737L62.3065 33.3506Z" fill="#F29F2C"/>
<path d="M62.3597 33.3221L62.2778 33.3682L68.7349 45.0901L68.8168 45.0441L62.3597 33.3221Z" fill="#F29F2C"/>
<path d="M62.4156 33.289L62.3337 33.335L68.7888 45.058L68.8707 45.012L62.4156 33.289Z" fill="#F39C2E"/>
<path d="M62.4698 33.2591L62.3879 33.3051L68.843 45.0281L68.9249 44.9821L62.4698 33.2591Z" fill="#F3A12A"/>
<path d="M62.5245 33.2249L62.4426 33.2709L68.8977 44.9939L68.9796 44.9479L62.5245 33.2249Z" fill="#F29B2C"/>
<path d="M62.5787 33.1946L62.4968 33.2406L68.9539 44.9625L69.0358 44.9165L62.5787 33.1946Z" fill="#F29B2A"/>
<path d="M62.6331 33.1648L62.5513 33.2108L69.0104 44.9316L69.0923 44.8856L62.6331 33.1648Z" fill="#F29B2A"/>
<path d="M62.69 33.1352L62.6082 33.1812L69.0632 44.9042L69.1451 44.8582L62.69 33.1352Z" fill="#F29B2A"/>
<path d="M62.7445 33.1051L62.6626 33.1511L69.1177 44.8742L69.1995 44.8282L62.7445 33.1051Z" fill="#F2982E"/>
<path d="M62.7984 33.0759L62.7166 33.1219L69.1736 44.8439L69.2555 44.7979L62.7984 33.0759Z" fill="#F2982E"/>
<path d="M62.8544 33.0429L62.7725 33.0889L69.2275 44.8119L69.3094 44.7659L62.8544 33.0429Z" fill="#F2982D"/>
<path d="M62.9076 33.0131L62.8257 33.0591L69.2828 44.781L69.3647 44.735L62.9076 33.0131Z" fill="#F2982D"/>
<path d="M62.9664 32.9819L62.8845 33.0278L69.3355 44.7532L69.4174 44.7072L62.9664 32.9819Z" fill="#F2982D"/>
<path d="M63.0177 32.9513L62.9358 32.9973L69.3908 44.7204L69.4727 44.6744L63.0177 32.9513Z" fill="#F2982D"/>
<path d="M63.0719 32.9209L62.99 32.9669L69.4471 44.6889L69.529 44.6428L63.0719 32.9209Z" fill="#F19429"/>
<path d="M63.1283 32.89L63.0464 32.936L69.5014 44.6591L69.5833 44.6131L63.1283 32.89Z" fill="#F19429"/>
<path d="M63.1808 32.8593L63.0989 32.9053L69.556 44.6272L69.6378 44.5812L63.1808 32.8593Z" fill="#EE9627"/>
<path d="M63.2374 32.8285L63.1555 32.8745L69.6106 44.5976L69.6925 44.5516L63.2374 32.8285Z" fill="#EE9627"/>
<path d="M63.2911 32.7962L63.2092 32.8422L69.6643 44.5652L69.7462 44.5192L63.2911 32.7962Z" fill="#E88F24"/>
<path d="M63.3463 32.7645L63.2644 32.8105L69.7215 44.5325L69.8034 44.4865L63.3463 32.7645Z" fill="#E99023"/>
<path d="M63.4029 32.735L63.321 32.781L69.7761 44.5041L69.858 44.4581L63.4029 32.735Z" fill="#E99023"/>
<path d="M63.4554 32.7053L63.3735 32.7513L69.8306 44.4733L69.9125 44.4273L63.4554 32.7053Z" fill="#EE9229"/>
<path d="M63.5121 32.6746L63.4302 32.7206L69.8852 44.4437L69.9671 44.3977L63.5121 32.6746Z" fill="#E99023"/>
<path d="M63.5663 32.6433L63.4844 32.6893L69.9394 44.4124L70.0213 44.3664L63.5663 32.6433Z" fill="#E99023"/>
<path d="M63.6197 32.613L63.5378 32.6591L69.9949 44.381L70.0768 44.335L63.6197 32.613Z" fill="#E48D25"/>
<path d="M63.6752 32.5817L63.5933 32.6277L70.0483 44.3508L70.1302 44.3048L63.6752 32.5817Z" fill="#E48D25"/>
<path d="M63.7306 32.5512L63.6487 32.5972L70.1037 44.3202L70.1856 44.2742L63.7306 32.5512Z" fill="#E48D25"/>
<path d="M63.784 32.5209L63.7021 32.5669L70.1592 44.2888L70.2411 44.2428L63.784 32.5209Z" fill="#E9832A"/>
<path d="M63.8397 32.4895L63.7578 32.5355L70.2129 44.2586L70.2948 44.2126L63.8397 32.4895Z" fill="#E9832A"/>
<path d="M63.8929 32.4605L63.811 32.5065L70.2681 44.2284L70.35 44.1824L63.8929 32.4605Z" fill="#E38B25"/>
<path d="M63.9486 32.4279L63.8667 32.4739L70.3218 44.197L70.4036 44.151L63.9486 32.4279Z" fill="#E38B25"/>
<path d="M64.004 32.3972L63.9221 32.4432L70.3772 44.1663L70.4591 44.1203L64.004 32.3972Z" fill="#E38B25"/>
<path d="M64.0584 32.3669L63.9766 32.413L70.4336 44.1349L70.5155 44.0889L64.0584 32.3669Z" fill="#E58A25"/>
<path d="M64.1144 32.3319L64.0325 32.3779L70.4855 44.1021L70.5674 44.0562L64.1144 32.3319Z" fill="#E38B25"/>
<path d="M64.1681 32.3064L64.0862 32.3524L70.5433 44.0743L70.6251 44.0283L64.1681 32.3064Z" fill="#E18726"/>
<path d="M64.2233 32.2741L64.1414 32.3201L70.5964 44.0431L70.6783 43.9971L64.2233 32.2741Z" fill="#E18726"/>
<path d="M64.2784 32.2434L64.1965 32.2894L70.6516 44.0125L70.7335 43.9665L64.2784 32.2434Z" fill="#E18726"/>
<path d="M64.3324 32.2141L64.2505 32.2601L70.7076 43.9821L70.7895 43.936L64.3324 32.2141Z" fill="#E78128"/>
<path d="M64.3876 32.1818L64.3057 32.2278L70.7607 43.9509L70.8426 43.9049L64.3876 32.1818Z" fill="#E78128"/>
<path d="M64.4413 32.1525L64.3594 32.1985L70.8165 43.9204L70.8983 43.8744L64.4413 32.1525Z" fill="#E78128"/>
<path d="M64.4972 32.1212L64.4153 32.1672L70.8703 43.8903L70.9522 43.8443L64.4972 32.1212Z" fill="#E78128"/>
<path d="M64.5536 32.0895L64.4717 32.1355L70.9227 43.8608L71.0046 43.8149L64.5536 32.0895Z" fill="#E57F27"/>
<path d="M64.6056 32.0566L64.5237 32.1027L70.9808 43.8246L71.0626 43.7786L64.6056 32.0566Z" fill="#E37D27"/>
<path d="M64.6608 32.0268L64.5789 32.0728L71.0339 43.7958L71.1158 43.7498L64.6608 32.0268Z" fill="#E08426"/>
<path d="M64.7159 31.9973L64.634 32.0433L71.0911 43.7653L71.173 43.7193L64.7159 31.9973Z" fill="#E37D27"/>
<path d="M64.7704 31.9661L64.6885 32.0121L71.1435 43.7352L71.2254 43.6892L64.7704 31.9661Z" fill="#E37D27"/>
<path d="M64.8251 31.9345L64.7432 31.9805L71.1982 43.7035L71.2801 43.6575L64.8251 31.9345Z" fill="#E37D27"/>
<path d="M64.8775 31.9033L64.7957 31.9493L71.2548 43.6701L71.3366 43.6241L64.8775 31.9033Z" fill="#E07426"/>
<path d="M64.9344 31.8715L64.8525 31.9175L71.3096 43.6394L71.3915 43.5934L64.9344 31.8715Z" fill="#DD7927"/>
<path d="M64.9908 31.8411L64.9089 31.8871L71.364 43.6102L71.4459 43.5642L64.9908 31.8411Z" fill="#DD7927"/>
<path d="M65.0436 31.8135L64.9617 31.8595L71.4188 43.5814L71.5006 43.5354L65.0436 31.8135Z" fill="#DD7A27"/>
<path d="M65.1002 31.7816L65.0183 31.8276L71.4734 43.5507L71.5553 43.5047L65.1002 31.7816Z" fill="#DD7A27"/>
<path d="M65.1524 31.7518L65.0706 31.7979L71.5276 43.5198L71.6095 43.4738L65.1524 31.7518Z" fill="#DD7A27"/>
<path d="M65.2093 31.72L65.1274 31.766L71.5825 43.4891L71.6644 43.4431L65.2093 31.72Z" fill="#E27027"/>
<path d="M65.264 31.6896L65.1821 31.7356L71.6372 43.4587L71.7191 43.4127L65.264 31.6896Z" fill="#E27027"/>
<path d="M65.318 31.6583L65.2361 31.7043L71.6932 43.4263L71.7751 43.3803L65.318 31.6583Z" fill="#E27027"/>
<path d="M65.3736 31.6278L65.2917 31.6738L71.7468 43.3969L71.8287 43.3509L65.3736 31.6278Z" fill="#DC7427"/>
<path d="M65.4269 31.5991L65.345 31.6451L71.8021 43.3671L71.8839 43.3211L65.4269 31.5991Z" fill="#DC7427"/>
<path d="M65.4828 31.5662L65.4009 31.6122L71.8559 43.3353L71.9378 43.2893L65.4828 31.5662Z" fill="#DC7627"/>
<path d="M65.5379 31.5355L65.4561 31.5815L71.9111 43.3046L71.993 43.2586L65.5379 31.5355Z" fill="#E36929"/>
<path d="M65.5912 31.5056L65.5093 31.5516L71.9664 43.2736L72.0482 43.2276L65.5912 31.5056Z" fill="#E36929"/>
<path d="M65.6483 31.4751L65.5664 31.5211L72.0215 43.2442L72.1034 43.1982L65.6483 31.4751Z" fill="#E56C2A"/>
<path d="M65.7008 31.4414L65.6189 31.4874L72.076 43.2094L72.1579 43.1633L65.7008 31.4414Z" fill="#E56C2A"/>
<path d="M65.7572 31.4123L65.6753 31.4583L72.1303 43.1813L72.2122 43.1353L65.7572 31.4123Z" fill="#E26A26"/>
<path d="M65.8126 31.3817L65.7307 31.4277L72.1858 43.1508L72.2677 43.1048L65.8126 31.3817Z" fill="#E26828"/>
<path d="M65.8651 31.3528L65.7832 31.3988L72.2403 43.1207L72.3222 43.0747L65.8651 31.3528Z" fill="#E26828"/>
<path d="M65.9215 31.3201L65.8396 31.3661L72.2947 43.0892L72.3766 43.0432L65.9215 31.3201Z" fill="#E26828"/>
<path d="M65.9754 31.2899L65.8936 31.3359L72.3506 43.0579L72.4325 43.0119L65.9754 31.2899Z" fill="#E26828"/>
<path d="M66.0306 31.2584L65.9487 31.3044L72.4038 43.0275L72.4857 42.9815L66.0306 31.2584Z" fill="#E26828"/>
<path d="M66.0858 31.2278L66.0039 31.2738L72.459 42.9969L72.5409 42.9509L66.0858 31.2278Z" fill="#E26828"/>
<path d="M66.142 31.1993L66.0601 31.2452L72.5131 42.9694L72.595 42.9235L66.142 31.1993Z" fill="#E16328"/>
<path d="M66.1949 31.1651L66.113 31.2111L72.5681 42.9341L72.65 42.8881L66.1949 31.1651Z" fill="#E16328"/>
<path d="M66.2486 31.1373L66.1667 31.1833L72.6238 42.9053L72.7057 42.8593L66.2486 31.1373Z" fill="#E16328"/>
<path d="M66.3041 31.1067L66.2222 31.1527L72.6792 42.8746L72.7611 42.8286L66.3041 31.1067Z" fill="#E16029"/>
<path d="M66.3583 31.0734L66.2764 31.1194L72.7314 42.8425L72.8133 42.7965L66.3583 31.0734Z" fill="#E16029"/>
<path d="M66.4129 31.0438L66.3311 31.0898L72.7881 42.8118L72.87 42.7658L66.4129 31.0438Z" fill="#E16128"/>
<path d="M66.4684 31.0096L66.3865 31.0557L72.8436 42.7776L72.9254 42.7316L66.4684 31.0096Z" fill="#E16128"/>
<path d="M66.5218 30.9785L66.4399 31.0245L72.897 42.7465L72.9789 42.7005L66.5218 30.9785Z" fill="#E16428"/>
<path d="M66.5797 30.9519L66.4978 30.9979L72.9508 42.7221L73.0327 42.6761L66.5797 30.9519Z" fill="#E05D29"/>
<path d="M66.6334 30.9206L66.5515 30.9666L73.0066 42.6896L73.0885 42.6436L66.6334 30.9206Z" fill="#E05D29"/>
<path d="M66.6874 30.8899L66.6055 30.9359L73.0625 42.6578L73.1444 42.6118L66.6874 30.8899Z" fill="#E05E29"/>
<path d="M66.7435 30.8583L66.6616 30.9043L73.1167 42.6274L73.1986 42.5814L66.7435 30.8583Z" fill="#E05E29"/>
<path d="M66.7972 30.8273L66.7153 30.8733L73.1704 42.5964L73.2523 42.5504L66.7972 30.8273Z" fill="#DB5D27"/>
<path d="M66.8517 30.7941L66.7698 30.8401L73.2269 42.562L73.3087 42.516L66.8517 30.7941Z" fill="#DB5D27"/>
<path d="M66.9066 30.7667L66.8247 30.8127L73.2798 42.5358L73.3617 42.4898L66.9066 30.7667Z" fill="#DB5F26"/>
<path d="M66.9608 30.7324L66.8789 30.7784L73.336 42.5004L73.4179 42.4544L66.9608 30.7324Z" fill="#DB5F26"/>
<path d="M67.0194 30.7037L66.9375 30.7496L73.3885 42.475L73.4704 42.429L67.0194 30.7037Z" fill="#DB5F26"/>
<path d="M67.0712 30.6732L66.9893 30.7192L73.4443 42.4423L73.5262 42.3963L67.0712 30.6732Z" fill="#DB5F26"/>
<path d="M67.1251 30.6438L67.0432 30.6898L73.5003 42.4118L73.5822 42.3657L67.1251 30.6438Z" fill="#DA5B27"/>
<path d="M67.1793 30.6102L67.0974 30.6562L73.5545 42.3782L73.6364 42.3322L67.1793 30.6102Z" fill="#DA5926"/>
<path d="M67.234 30.5806L67.1521 30.6266L73.6112 42.3474L73.6931 42.3014L67.234 30.5806Z" fill="#D75D27"/>
<path d="M67.2894 30.548L67.2075 30.594L73.6646 42.3159L73.7465 42.2699L67.2894 30.548Z" fill="#D75D27"/>
<path d="M67.3456 30.5194L67.2637 30.5654L73.7187 42.2885L73.8006 42.2425L67.3456 30.5194Z" fill="#D75827"/>
<path d="M67.3995 30.4899L67.3176 30.5359L73.7747 42.2578L73.8566 42.2118L67.3995 30.4899Z" fill="#D75827"/>
<path d="M67.4547 30.459L67.3728 30.505L73.8279 42.2281L73.9098 42.1821L67.4547 30.459Z" fill="#D75827"/>
<path d="M67.5091 30.4293L67.4272 30.4753L73.8843 42.1973L73.9662 42.1513L67.5091 30.4293Z" fill="#D55C27"/>
<path d="M67.5628 30.3983L67.481 30.4443L73.938 42.1663L74.0199 42.1203L67.5628 30.3983Z" fill="#D55C27"/>
<path d="M67.619 30.3655L67.5371 30.4115L73.9922 42.1346L74.0741 42.0886L67.619 30.3655Z" fill="#D55C27"/>
<path d="M67.6734 30.337L67.5916 30.3831L74.0486 42.105L74.1305 42.059L67.6734 30.337Z" fill="#D55727"/>
<path d="M67.7279 30.3039L67.646 30.3499L74.1011 42.0729L74.1829 42.0269L67.7279 30.3039Z" fill="#D55727"/>
<path d="M67.7833 30.2733L67.7014 30.3193L74.1565 42.0424L74.2384 41.9964L67.7833 30.2733Z" fill="#D55727"/>
<path d="M67.8368 30.2455L67.7549 30.2915L74.212 42.0134L74.2939 41.9674L67.8368 30.2455Z" fill="#D55827"/>
<path d="M67.8922 30.2117L67.8103 30.2577L74.2654 41.9808L74.3473 41.9348L67.8922 30.2117Z" fill="#D55827"/>
<path d="M67.9469 30.1832L67.865 30.2292L74.3221 41.9512L74.404 41.9052L67.9469 30.1832Z" fill="#D45827"/>
<path d="M68.003 30.1511L67.9211 30.1971L74.3762 41.9202L74.4581 41.8742L68.003 30.1511Z" fill="#D45527"/>
<path d="M68.0577 30.1194L67.9758 30.1654L74.4309 41.8885L74.5128 41.8425L68.0577 30.1194Z" fill="#D45527"/>
<path d="M68.11 30.0879L68.0281 30.1339L74.4852 41.8558L74.567 41.8098L68.11 30.0879Z" fill="#D45527"/>
<path d="M68.1686 30.0573L68.0867 30.1033L74.5377 41.8286L74.6196 41.7826L68.1686 30.0573Z" fill="#D45527"/>
<path d="M68.2213 30.0256L68.1394 30.0717L74.5965 41.7936L74.6784 41.7476L68.2213 30.0256Z" fill="#D45127"/>
<path d="M68.2765 29.9972L68.1946 30.0432L74.6496 41.7663L74.7315 41.7203L68.2765 29.9972Z" fill="#D25227"/>
<path d="M68.3312 29.9668L68.2493 30.0128L74.7043 41.7359L74.7862 41.6899L68.3312 29.9668Z" fill="#D25227"/>
<path d="M68.3846 29.9364L68.3027 29.9824L74.7598 41.7044L74.8417 41.6583L68.3846 29.9364Z" fill="#D25227"/>
<path d="M68.4408 29.9038L68.3589 29.9498L74.8139 41.6729L74.8958 41.6269L68.4408 29.9038Z" fill="#D25227"/>
<path d="M68.4945 29.8742L68.4126 29.9202L74.8697 41.6421L74.9516 41.5961L68.4945 29.8742Z" fill="#D25227"/>
<path d="M68.5499 29.8434L68.468 29.8894L74.9231 41.6125L75.005 41.5665L68.5499 29.8434Z" fill="#D24F27"/>
<path d="M68.6083 29.8123L68.5264 29.8583L74.9774 41.5836L75.0593 41.5376L68.6083 29.8123Z" fill="#D25027"/>
<path d="M68.659 29.7826L68.5771 29.8286L75.0342 41.5505L75.1161 41.5045L68.659 29.7826Z" fill="#D25027"/>
<path d="M68.7154 29.7511L68.6335 29.7971L75.0886 41.5202L75.1705 41.4742L68.7154 29.7511Z" fill="#D15127"/>
<path d="M68.7674 29.7185L68.6855 29.7645L75.1447 41.4853L75.2265 41.4393L68.7674 29.7185Z" fill="#CB5027"/>
<path d="M68.8221 29.6854L68.7402 29.7314L75.1973 41.4534L75.2792 41.4074L68.8221 29.6854Z" fill="#CB5027"/>
<path d="M71.4141 28.2375L68.7966 29.7078L75.2517 41.4308L77.8692 39.9606L71.4141 28.2375Z" fill="#D14D27"/>
</g>
</g>
<path d="M20 54.56L22.8 54.5C22.9067 54.5 22.96 54.6133 22.96 54.84C22.96 55.0667 22.9067 55.18 22.8 55.18H21.94C21.6067 55.18 21.3867 55.2467 21.28 55.38C21.1733 55.5 21.12 55.74 21.12 56.1V65.58C21.12 66.7533 21.26 67.34 21.54 67.34H22.7C22.8067 67.34 22.86 67.4533 22.86 67.68C22.86 67.8933 22.8067 68 22.7 68L20.18 67.98L17.38 68.04C17.2733 68.04 17.22 67.9267 17.22 67.7C17.22 67.4733 17.2733 67.36 17.38 67.36H18.24C18.5733 67.36 18.7933 67.3 18.9 67.18C19.0067 67.0467 19.06 66.8 19.06 66.44V61.72H11.92V65.58C11.92 66.7533 12.06 67.34 12.34 67.34H13.5C13.6067 67.34 13.66 67.4533 13.66 67.68C13.66 67.8933 13.6067 68 13.5 68L10.98 67.98L8.18 68.04C8.07333 68.04 8.02 67.9267 8.02 67.7C8.02 67.4733 8.07333 67.36 8.18 67.36H9.04C9.37333 67.36 9.59333 67.3 9.7 67.18C9.80667 67.0467 9.86 66.8 9.86 66.44V56.96C9.86 55.7867 9.72 55.2 9.44 55.2H8.28C8.17333 55.2 8.12 55.0933 8.12 54.88C8.12 54.6533 8.17333 54.54 8.28 54.54L10.8 54.56L13.6 54.5C13.7067 54.5 13.76 54.6133 13.76 54.84C13.76 55.0667 13.7067 55.18 13.6 55.18H12.74C12.4067 55.18 12.1867 55.2467 12.08 55.38C11.9733 55.5 11.92 55.74 11.92 56.1V60.9H19.06V56.96C19.06 55.7867 18.92 55.2 18.64 55.2H17.48C17.3733 55.2 17.32 55.0933 17.32 54.88C17.32 54.6533 17.3733 54.54 17.48 54.54L20 54.56ZM24.8745 58.34L26.9145 58.38H31.0545V58.06C31.0545 57.98 31.1412 57.94 31.3145 57.94C31.5012 57.94 31.5945 57.98 31.5945 58.06C31.5945 59.1133 31.6412 59.8667 31.7345 60.32C31.7612 60.4 31.6879 60.44 31.5145 60.44C31.2879 60.44 31.1745 60.4 31.1745 60.32C30.9879 59.7067 30.8079 59.36 30.6345 59.28C30.0745 59.08 29.2612 58.98 28.1945 58.98C28.0079 58.9933 27.8812 59.0467 27.8145 59.14C27.7479 59.2333 27.7145 59.4 27.7145 59.64V62.92C29.3279 62.8667 30.2145 62.7933 30.3745 62.7L30.5145 61.86C30.5412 61.7933 30.6345 61.76 30.7945 61.76C30.9679 61.76 31.0545 61.8067 31.0545 61.9C31.0012 62.2867 30.9745 62.72 30.9745 63.2C30.9745 63.6667 31.0012 64.0933 31.0545 64.48C31.0545 64.56 30.9612 64.6 30.7745 64.6C30.6012 64.6 30.5145 64.5733 30.5145 64.52L30.3545 63.66C30.1945 63.5667 29.3145 63.4933 27.7145 63.44V65.86C27.7145 66.86 27.8479 67.36 28.1145 67.36H28.7545C30.2212 67.3333 31.2345 67.1267 31.7945 66.74L31.8945 65.96C31.9212 65.88 31.9879 65.84 32.0945 65.84C32.2145 65.84 32.2945 65.84 32.3345 65.84C32.4145 65.8667 32.4545 65.9067 32.4545 65.96C32.3745 66.52 32.3345 67.3067 32.3345 68.32C32.3345 68.3867 32.2412 68.42 32.0545 68.42C31.8812 68.42 31.7945 68.3867 31.7945 68.32V68H28.2345L24.8345 68.04C24.7412 68.04 24.6945 67.94 24.6945 67.74C24.6945 67.54 24.7345 67.44 24.8145 67.44H25.7145C25.8612 67.44 25.9479 67.4133 25.9745 67.36C26.0012 67.2933 26.0145 67.1267 26.0145 66.86V60.56C26.0145 59.4933 25.8812 58.96 25.6145 58.96H24.8945C24.7345 58.96 24.6545 58.86 24.6545 58.66C24.6545 58.4467 24.7279 58.34 24.8745 58.34ZM41.4198 68.26C41.4198 68.3533 41.3265 68.4 41.1398 68.4C40.9665 68.4 40.8798 68.36 40.8798 68.28C40.8798 68.2133 40.7998 68.16 40.6398 68.12C40.4932 68.0933 40.1465 68.0667 39.5998 68.04C38.6665 68.0133 36.6865 68 33.6598 68C33.5798 68 33.5398 67.94 33.5398 67.82C33.5398 67.7 33.5798 67.6067 33.6598 67.54C33.8065 67.4733 34.3398 66.7267 35.2598 65.3C36.1798 63.8733 37.0665 62.4667 37.9198 61.08L39.1798 58.98H35.8998C35.3398 58.98 34.8798 59.5 34.5198 60.54C34.4932 60.6067 34.3865 60.64 34.1998 60.64C34.0265 60.64 33.9398 60.6067 33.9398 60.54C34.0198 59.9 34.2198 59.1 34.5398 58.14C34.5665 58.0467 34.6732 58 34.8598 58C35.0598 58 35.1598 58.06 35.1598 58.18C35.1598 58.3 35.1865 58.3667 35.2398 58.38H41.3598C41.4532 58.38 41.4998 58.4533 41.4998 58.6C41.4998 58.7333 41.4532 58.82 41.3598 58.86C41.2798 58.8867 40.8265 59.5467 39.9998 60.84C39.1865 62.1333 38.3332 63.4933 37.4398 64.92C36.5598 66.3333 36.0265 67.1533 35.8398 67.38H39.8198C40.3532 67.38 40.7332 67.1333 40.9598 66.64C41.0665 66.3733 41.1532 66.0333 41.2198 65.62C41.2332 65.5267 41.3332 65.48 41.5198 65.48C41.7198 65.48 41.8198 65.5267 41.8198 65.62C41.7265 65.8733 41.6332 66.3067 41.5398 66.92C41.4598 67.52 41.4198 67.9667 41.4198 68.26ZM43.6641 68L42.0841 68.04C41.9907 68.04 41.9441 67.9533 41.9441 67.78C41.9441 67.6067 41.9907 67.52 42.0841 67.52H42.7241C42.8707 67.52 42.9774 67.46 43.0441 67.34C43.3507 66.8333 43.9641 65.4867 44.8841 63.3C45.8041 61.1 46.4641 59.4333 46.8641 58.3C46.9174 58.18 47.0441 58.12 47.2441 58.12C47.4574 58.12 47.5907 58.1867 47.6441 58.32C47.8041 58.9867 48.2707 60.2467 49.0441 62.1C49.8307 63.9533 50.5174 65.5 51.1041 66.74C51.2641 67.06 51.4107 67.2667 51.5441 67.36C51.6774 67.4533 51.8841 67.5 52.1641 67.5C52.2441 67.5 52.2841 67.5933 52.2841 67.78C52.2841 67.9533 52.2507 68.04 52.1841 68.04L50.2641 68L48.1041 68.04C48.0241 68.04 47.9841 67.9533 47.9841 67.78C47.9841 67.6067 48.0241 67.52 48.1041 67.52H49.0641C49.2107 67.52 49.2841 67.46 49.2841 67.34C49.2841 67.3267 48.9107 66.3 48.1641 64.26H45.3841C44.7307 65.8733 44.4041 66.82 44.4041 67.1C44.4041 67.3667 44.4841 67.5 44.6441 67.5H45.4641C45.5707 67.5 45.6241 67.5933 45.6241 67.78C45.6241 67.9533 45.5841 68.04 45.5041 68.04L43.6641 68ZM47.9041 63.58C47.8641 63.46 47.5174 62.4467 46.8641 60.54H46.8041C46.4841 61.46 46.1041 62.4733 45.6641 63.58H47.9041ZM55.373 68L53.233 68.04C53.1396 68.04 53.093 67.94 53.093 67.74C53.093 67.54 53.1263 67.44 53.193 67.44H54.173C54.333 67.44 54.413 67.3267 54.413 67.1V60.54C54.413 59.4867 54.2663 58.96 53.973 58.96H53.273C53.1263 58.96 53.053 58.86 53.053 58.66C53.053 58.4467 53.113 58.34 53.233 58.34C54.4196 58.3667 55.633 58.38 56.873 58.38C58.113 58.38 59.073 58.6467 59.753 59.18C60.4463 59.7 60.793 60.3467 60.793 61.12C60.793 61.88 60.5196 62.4933 59.973 62.96C59.4263 63.4267 58.7663 63.6933 57.993 63.76C58.3796 64.0267 58.8796 64.56 59.493 65.36C59.7196 65.6667 60.073 66.02 60.553 66.42C61.033 66.8067 61.573 67.1533 62.173 67.46C61.9063 67.9933 61.4996 68.26 60.953 68.26C60.4063 68.26 59.9263 68.06 59.513 67.66C59.0996 67.26 58.7796 66.82 58.553 66.34C58.3263 65.8467 58.073 65.34 57.793 64.82C57.5263 64.3 57.273 63.96 57.033 63.8L56.113 63.74V66.06C56.113 66.94 56.2463 67.38 56.513 67.38H57.353C57.4596 67.38 57.513 67.4867 57.513 67.7C57.513 67.9 57.4796 68 57.413 68H55.373ZM56.513 58.98C56.2463 58.98 56.113 59.2 56.113 59.64V62.96C56.2996 63 56.4863 63.02 56.673 63.02C57.273 63.02 57.793 62.8533 58.233 62.52C58.673 62.1867 58.893 61.7333 58.893 61.16C58.893 60.5867 58.693 60.08 58.293 59.64C57.9063 59.2 57.313 58.98 56.513 58.98ZM70.9933 60.34C70.9933 60.4067 70.8999 60.44 70.7133 60.44C70.5266 60.44 70.4333 60.4 70.4333 60.32C70.2466 59.7067 70.0666 59.36 69.8933 59.28C69.3333 59.08 68.5066 58.98 67.4133 58.98C67.2266 58.9933 67.0999 59.0467 67.0333 59.14C66.9666 59.2333 66.9333 59.4 66.9333 59.64V62.92C68.5733 62.8667 69.4733 62.7933 69.6333 62.7L69.7733 61.86C69.7999 61.7933 69.8933 61.76 70.0533 61.76C70.2266 61.76 70.3133 61.8067 70.3133 61.9C70.2599 62.2867 70.2333 62.72 70.2333 63.2C70.2333 63.6667 70.2599 64.0933 70.3133 64.48C70.3133 64.56 70.2199 64.6 70.0333 64.6C69.8599 64.6 69.7733 64.5733 69.7733 64.52L69.6133 63.66C69.4533 63.5667 68.5599 63.4933 66.9333 63.44V65.86C66.9333 66.8733 67.0666 67.38 67.3333 67.38H68.3333C68.4399 67.38 68.4933 67.4867 68.4933 67.7C68.4933 67.9 68.4533 68 68.3733 68L66.0533 67.98L64.0533 68.04C63.9599 68.04 63.9133 67.94 63.9133 67.74C63.9133 67.54 63.9533 67.44 64.0333 67.44H64.9333C65.0799 67.44 65.1666 67.4133 65.1933 67.36C65.2199 67.2933 65.2333 67.1267 65.2333 66.86V60.56C65.2333 59.4933 65.0999 58.96 64.8333 58.96H64.1133C63.9533 58.96 63.8733 58.86 63.8733 58.66C63.8733 58.4467 63.9466 58.34 64.0933 58.34L66.1333 58.38H70.3133V58.06C70.3133 57.98 70.3999 57.94 70.5733 57.94C70.7599 57.94 70.8533 57.98 70.8533 58.06L70.9933 60.34ZM72.5503 58.34L74.5903 58.38H78.7303V58.06C78.7303 57.98 78.817 57.94 78.9903 57.94C79.177 57.94 79.2703 57.98 79.2703 58.06C79.2703 59.1133 79.317 59.8667 79.4103 60.32C79.437 60.4 79.3636 60.44 79.1903 60.44C78.9636 60.44 78.8503 60.4 78.8503 60.32C78.6636 59.7067 78.4836 59.36 78.3103 59.28C77.7503 59.08 76.937 58.98 75.8703 58.98C75.6836 58.9933 75.557 59.0467 75.4903 59.14C75.4236 59.2333 75.3903 59.4 75.3903 59.64V62.92C77.0036 62.8667 77.8903 62.7933 78.0503 62.7L78.1903 61.86C78.217 61.7933 78.3103 61.76 78.4703 61.76C78.6436 61.76 78.7303 61.8067 78.7303 61.9C78.677 62.2867 78.6503 62.72 78.6503 63.2C78.6503 63.6667 78.677 64.0933 78.7303 64.48C78.7303 64.56 78.637 64.6 78.4503 64.6C78.277 64.6 78.1903 64.5733 78.1903 64.52L78.0303 63.66C77.8703 63.5667 76.9903 63.4933 75.3903 63.44V65.86C75.3903 66.86 75.5236 67.36 75.7903 67.36H76.4303C77.897 67.3333 78.9103 67.1267 79.4703 66.74L79.5703 65.96C79.597 65.88 79.6636 65.84 79.7703 65.84C79.8903 65.84 79.9703 65.84 80.0103 65.84C80.0903 65.8667 80.1303 65.9067 80.1303 65.96C80.0503 66.52 80.0103 67.3067 80.0103 68.32C80.0103 68.3867 79.917 68.42 79.7303 68.42C79.557 68.42 79.4703 68.3867 79.4703 68.32V68H75.9103L72.5103 68.04C72.417 68.04 72.3703 67.94 72.3703 67.74C72.3703 67.54 72.4103 67.44 72.4903 67.44H73.3903C73.537 67.44 73.6236 67.4133 73.6503 67.36C73.677 67.2933 73.6903 67.1267 73.6903 66.86V60.56C73.6903 59.4933 73.557 58.96 73.2903 58.96H72.5703C72.4103 58.96 72.3303 58.86 72.3303 58.66C72.3303 58.4467 72.4036 58.34 72.5503 58.34ZM90.8863 58.38L92.7263 58.34C92.8063 58.34 92.8463 58.44 92.8463 58.64C92.8463 58.8267 92.8063 58.92 92.7263 58.92H92.0263C91.8396 58.92 91.7196 58.9667 91.6663 59.06C91.4263 59.4733 91.3063 62.4733 91.3063 68.06C91.3063 68.1933 91.1929 68.26 90.9663 68.26C90.7529 68.26 90.5996 68.2133 90.5063 68.12C87.8396 64.9467 85.6929 62.3733 84.0663 60.4H84.0063C84.0463 62.76 84.0863 64.7333 84.1263 66.32C84.1263 67.0133 84.2263 67.36 84.4263 67.36H85.2263C85.3063 67.36 85.3463 67.4667 85.3463 67.68C85.3463 67.88 85.3063 67.98 85.2263 67.98H83.5663L81.7463 68.02C81.6796 68.02 81.6463 67.9267 81.6463 67.74C81.6463 67.54 81.6796 67.44 81.7463 67.44H82.2262C82.6396 67.44 82.8529 67.3067 82.8663 67.04C83.0663 64.88 83.1663 62.3533 83.1663 59.46C82.9529 59.2067 82.7729 59.06 82.6263 59.02C82.4796 58.98 82.2063 58.96 81.8063 58.96C81.7263 58.96 81.6863 58.86 81.6863 58.66C81.6863 58.4467 81.7263 58.34 81.8063 58.34L84.6263 58.38C87.8663 62.4867 89.7729 64.92 90.3463 65.68H90.3863C90.3329 62.1867 90.2863 60.1933 90.2463 59.7C90.2063 59.2067 90.0996 58.96 89.9263 58.96H89.2263C89.1329 58.96 89.0863 58.86 89.0863 58.66C89.0863 58.4467 89.1329 58.34 89.2263 58.34L90.8863 58.38Z" fill="#090909"/>
</g>
<defs>
<clipPath id="clip0_150_10">
<rect width="100" height="100" fill="white"/>
</clipPath>
<clipPath id="clip1_150_10">
<rect width="45" height="29" fill="white" transform="translate(28 20)"/>
</clipPath>
</defs>
</svg>
