<svg width="122" height="34" viewBox="0 0 122 34" fill="none" xmlns="http://www.w3.org/2000/svg">
<path fill-rule="evenodd" clip-rule="evenodd" d="M82.3752 33.7951H90.9282L94.6032 23.1647L98.4233 19.9063L101.433 29.5199C102.364 32.4914 103.322 33.7951 105.412 33.7951H111.96L105.205 14.9304L121.451 0H110.959L101.097 10.6307C99.9485 11.8682 98.7864 13.0862 97.6209 14.5411H97.5218L102.446 0H93.8927L82.3752 33.7951Z" fill="#1AB248"/>
<path fill-rule="evenodd" clip-rule="evenodd" d="M81.646 0.385101C84.3528 0.385537 86.9779 0.38596 89.1768 0.386151L87.3953 5.8549C86.8356 7.57312 85.4142 8.39516 82.2819 8.39516C76.8432 8.39516 68.7956 8.39421 63.3563 8.39327L65.1379 2.92452C65.6976 1.20535 67.1185 0.383789 70.251 0.383789C73.4912 0.383789 77.6572 0.38446 81.646 0.385101ZM65.8586 12.9397C71.2971 12.9397 79.3449 12.9407 84.7842 12.9421L83.0026 18.4106C82.4429 20.1293 81.022 20.9508 77.8892 20.9508C72.4505 20.9508 64.4029 20.9499 58.9637 20.9485L60.7452 15.4804C61.3049 13.7615 62.7261 12.9397 65.8586 12.9397ZM80.1759 25.4979C74.7367 25.497 66.6891 25.496 61.2504 25.496C58.1174 25.496 56.6967 26.3181 56.137 28.0358L54.3554 33.5053C59.7947 33.5058 67.8422 33.5074 73.2812 33.5074C76.4135 33.5074 77.8347 32.6851 78.3944 30.9665L80.1759 25.4979Z" fill="#1AB248"/>
<path fill-rule="evenodd" clip-rule="evenodd" d="M43.0698 8.13978L47.7218 8.14171C51.6856 8.14267 50.7808 13.0099 48.7748 17.7536C47.0073 21.9347 43.8745 25.6242 40.1372 25.6238L32.3818 25.6228C29.2885 25.6228 27.8623 26.4615 27.2607 28.214L25.3458 33.7941L31.0328 33.7951L36.5918 33.7496C41.5218 33.7096 45.5578 33.3593 50.2775 29.1888C55.2653 24.7832 61.0809 13.3381 60.0845 6.7183C59.304 1.53086 56.469 0.00240929 49.6041 0.00192743L37.0941 0L29.8102 20.9603L34.4383 20.9661C37.1926 20.9692 38.575 21.0032 40.0402 17.1267L43.0698 8.13978Z" fill="#1AB248"/>
<path fill-rule="evenodd" clip-rule="evenodd" d="M21.3396 8.16894L17.8962 8.1699C10.9981 8.17327 5.08704 25.6266 13.2432 25.6238L18.4838 25.6228C21.5062 25.6228 23.75 26.7255 22.7565 29.6988L21.3875 33.7941L15.8294 33.7951L11.3084 33.7496C5.52477 33.6917 1.79257 30.8432 0.448731 26.5181C-1.0055 21.8376 1.04762 12.0754 7.00654 5.82181C10.4641 2.1939 15.2535 0.00240929 21.3942 0.00192743L32.739 0L30.9656 5.11492C29.8198 8.41974 27.4788 8.17327 26.1429 8.17279L21.3396 8.16894Z" fill="#1AB248"/>
</svg>
