<svg width="138" height="42" viewBox="0 0 138 42" fill="none" xmlns="http://www.w3.org/2000/svg">
    <path d="M0 19.714h18.658l-.986 1.319H0v-1.319zM0 17.275h20.56l-1.057 1.318H0v-1.318zM0 22.154h16.757l-.986 1.253H0v-1.253zM138 21.033h-18.588l.986-1.319H138v1.319zM138 23.407h-20.489l1.056-1.253H138v1.253zM122.299 17.275H138v1.318h-16.687l.986-1.318zM18.095 23.407l8.871-11.275H37.95c1.197 0 1.197.461.633 1.187-.633.79-1.619 2.11-2.253 2.835-.281.395-.844 1.12.986 1.12h14.715c-1.197 1.583-5.21 6.133-12.321 6.133H18.095zM68.788 17.275l-4.787 6.132H51.327l4.788-6.132h12.673zM87.094 17.275l-4.787 6.132H69.633l4.788-6.132h12.673zM91.249 17.275s-.915 1.187-1.408 1.78c-1.62 2.044-.212 4.352 4.999 4.352h20.348l4.787-6.132H91.178h.07z" fill="#D40511"/>
    <path d="m24.29 5.143-4.435 5.604h24.01c1.196 0 1.196.462.633 1.187-.634.791-1.62 2.11-2.253 2.901-.282.396-.845 1.121.986 1.121h9.857s1.549-2.044 2.886-3.692c1.831-2.308.141-7.055-6.266-7.055H24.291v-.066zM88.221 15.89h-30.98l8.45-10.747h12.673l-4.858 6.198h5.633l4.858-6.198H96.67L88.221 15.89zM114.202 5.143l-8.449 10.747H92.305l8.449-10.747h13.448zM35.556 36.989c-1.056 0-1.901-.264-2.535-.857-.633-.593-.915-1.319-.915-2.374v-.527c0-.99.282-1.78.845-2.374.563-.593 1.338-.857 2.323-.857.986 0 1.76.264 2.324.857.563.594.845 1.385.845 2.374v.791h-4.366c.141.923.634 1.385 1.62 1.385.985 0 .633 0 .915-.132.282-.066.563-.198.845-.396l.845 1.187a4.007 4.007 0 0 1-1.197.593c-.422.132-.915.198-1.479.198l-.07.132zm-.282-5.407c-.422 0-.704.132-.915.33-.211.198-.282.593-.352.99h2.464c0-.462-.14-.792-.352-.99-.211-.264-.493-.33-.915-.33h.07zM43.723 37.055a4.603 4.603 0 0 1-2.182-.527c-.634-.33-1.056-.792-1.408-1.451-.352-.66-.493-1.319-.493-2.176v-.725c0-.857.14-1.583.492-2.176.352-.593.845-1.055 1.409-1.45a4.603 4.603 0 0 1 2.182-.528c1.268 0 2.324.462 3.169 1.319l-1.197 1.252c-.563-.593-1.197-.857-1.901-.857s-1.197.198-1.55.66c-.351.395-.563 1.055-.563 1.846v.593c0 .791.212 1.385.564 1.846.352.462.845.66 1.549.66s.704 0 .985-.198c.352-.132.634-.33.916-.66l1.197 1.253c-.423.462-.916.726-1.409.99a5.605 5.605 0 0 1-1.83.329h.07zM51.327 36.989c-1.056 0-1.9-.264-2.464-.857-.634-.593-.915-1.385-.915-2.374v-.527c0-.99.281-1.78.915-2.374.634-.593 1.408-.857 2.464-.857s1.901.264 2.465.857c.563.594.915 1.385.915 2.374v.527c0 .99-.282 1.78-.915 2.374-.634.593-1.409.857-2.465.857zm0-1.517c.423 0 .775-.131.986-.395.211-.264.352-.725.352-1.253v-.461c0-.594-.14-.99-.352-1.253-.211-.264-.563-.396-.986-.396-.422 0-.774.132-.985.396-.212.264-.352.725-.352 1.253v.461c0 .594.14.99.352 1.253.21.264.563.395.985.395zM56.185 36.857v-6.593h1.901v1.187c.212-.396.493-.66.845-.924.352-.263.775-.33 1.338-.33.986 0 1.62.462 1.901 1.32.211-.396.563-.726.915-.924.352-.263.845-.395 1.338-.395.493 0 1.197.198 1.55.66.351.46.562 1.12.562 1.977v4.088h-2.041v-4.022c0-.33-.07-.66-.212-.857-.14-.198-.422-.33-.774-.33-.352 0-.493 0-.704.198a1.597 1.597 0 0 0-.493.462v4.483h-2.042v-4.022c0-.33-.07-.66-.282-.857-.21-.198-.422-.33-.774-.33-.352 0-.493 0-.704.198a1.596 1.596 0 0 0-.493.462v4.55h-2.042.211zM68.296 36.857v-6.593h1.9v1.187c.212-.396.494-.66.846-.924.352-.263.774-.33 1.337-.33.986 0 1.62.462 1.901 1.32.212-.396.564-.726.916-.924.352-.263.845-.395 1.338-.395.492 0 1.196.198 1.548.66.353.46.564 1.12.564 1.977v4.088h-2.042v-4.022c0-.33-.07-.66-.211-.857-.141-.198-.423-.33-.775-.33-.352 0-.493 0-.704.198a1.596 1.596 0 0 0-.493.462v4.483H72.38v-4.022c0-.33-.07-.66-.281-.857-.141-.198-.423-.33-.775-.33-.352 0-.493 0-.704.198a1.595 1.595 0 0 0-.493.462v4.55h-2.041.21zM83.575 36.989c-1.057 0-1.901-.264-2.535-.857-.634-.593-.916-1.319-.916-2.374v-.527c0-.99.282-1.78.845-2.374.564-.593 1.338-.857 2.324-.857.986 0 1.76.264 2.323.857.564.594.845 1.385.845 2.374v.791h-4.365c.14.923.634 1.385 1.62 1.385.985 0 .633 0 .915-.132.281-.132.563-.198.844-.396l.845 1.187a4.006 4.006 0 0 1-1.196.593c-.423.132-.916.198-1.48.198l-.07.132zm-.353-5.407c-.422 0-.704.132-.915.33-.211.264-.282.593-.352.99h2.464c0-.462-.14-.792-.352-.99-.21-.264-.492-.33-.915-.33h.07zM87.799 36.857v-6.593h1.9v1.648c.071-.264.212-.593.423-.857.212-.264.423-.462.634-.66.282-.197.634-.263.986-.263h.493v1.714h-.493c-.493 0-.916.066-1.268.264s-.563.395-.704.593v4.088H87.73l.07.066zM96.318 36.989c-.704 0-1.267-.132-1.76-.396a3.158 3.158 0 0 1-1.197-1.12c-.282-.462-.422-1.055-.422-1.715v-.527c0-.66.14-1.187.422-1.649.282-.461.634-.857 1.126-1.12.493-.264 1.057-.396 1.76-.396.705 0 .916.066 1.338.264.423.132.775.395 1.127.659l-.986 1.187c-.352-.33-.774-.462-1.267-.462-.493 0-.845.132-1.127.462-.281.264-.422.725-.422 1.187v.461c0 .528.14.923.422 1.187s.634.461 1.127.461.915-.131 1.267-.461l.986 1.187c-.634.593-1.479.923-2.535.923l.141-.132zM103.077 36.989c-1.056 0-1.901-.264-2.534-.857-.634-.593-.916-1.319-.916-2.374v-.527c0-.99.282-1.78.845-2.374.564-.593 1.338-.857 2.324-.857.986 0 1.76.264 2.323.857.564.594.845 1.385.845 2.374v.791h-4.365c.141.923.634 1.385 1.619 1.385.986 0 .634 0 .916-.132.281-.132.563-.198.844-.396l.845 1.187a4 4 0 0 1-1.197.593c-.422.132-.915.198-1.478.198l-.071.132zm-.352-5.407c-.422 0-.704.132-.915.33-.211.264-.282.593-.352.99h2.464c0-.462-.14-.792-.352-.99-.211-.264-.493-.33-.915-.33h.07z" fill="#D40511"/>
</svg>
