<?xml version="1.0" encoding="UTF-8" standalone="no"?>
<!-- Generator: Adobe Illustrator 11 Build 196, SVG Export Plug-In  -->

<svg
   width="74.439453"
   height="22.805"
   viewBox="-0.81 -0.354 74.439454 22.805"
   xml:space="preserve"
   id="svg2"
   version="1.1"
   inkscape:version="1.2.2 (b0a8486541, 2022-12-01, custom)"
   sodipodi:docname="fedex-logo.svg"
   xmlns:inkscape="http://www.inkscape.org/namespaces/inkscape"
   xmlns:sodipodi="http://sodipodi.sourceforge.net/DTD/sodipodi-0.dtd"
   xmlns="http://www.w3.org/2000/svg"
   xmlns:svg="http://www.w3.org/2000/svg"
   xmlns:rdf="http://www.w3.org/1999/02/22-rdf-syntax-ns#"
   xmlns:cc="http://creativecommons.org/ns#"
   xmlns:dc="http://purl.org/dc/elements/1.1/"><metadata
   id="metadata32"><rdf:RDF><cc:Work
       rdf:about=""><dc:format>image/svg+xml</dc:format><dc:type
         rdf:resource="http://purl.org/dc/dcmitype/StillImage" /></cc:Work></rdf:RDF></metadata><sodipodi:namedview
   pagecolor="#ffffff"
   bordercolor="#666666"
   borderopacity="1"
   objecttolerance="10"
   gridtolerance="10"
   guidetolerance="10"
   inkscape:pageopacity="0"
   inkscape:pageshadow="2"
   inkscape:window-width="1848"
   inkscape:window-height="1016"
   id="namedview30"
   showgrid="false"
   fit-margin-top="0"
   fit-margin-left="0"
   fit-margin-right="0.2"
   fit-margin-bottom="0"
   inkscape:zoom="10.026645"
   inkscape:cx="53.058625"
   inkscape:cy="16.50602"
   inkscape:window-x="72"
   inkscape:window-y="27"
   inkscape:window-maximized="1"
   inkscape:current-layer="g6"
   inkscape:showpageshadow="2"
   inkscape:pagecheckerboard="0"
   inkscape:deskcolor="#d1d1d1" />
	<defs
   id="defs4" />
	<g
   id="g6"
   transform="translate(-0.85826949,-5.914181)">
		
		<polygon
   points="65.795,7.772 71.917,7.772 65.934,14.5 71.999,21.283 65.63,21.283 62.68,17.975 59.757,21.283 53.607,21.283 59.619,14.528 53.607,7.772 59.95,7.772 62.928,11.054 "
   id="polygon10"
   style="fill:#ff5900"
   transform="matrix(1.0338957,0,0,1.0338957,0.04826949,5.560181)" />
		<polygon
   points="46.798,12.337 46.798,16.526 53.607,16.526 53.607,21.283 41.794,21.283 41.794,0 53.607,0 53.607,4.744 46.798,4.744 46.798,7.772 53.607,7.772 53.607,12.337 "
   id="polygon12"
   style="fill:#ff5900"
   transform="matrix(1.0338957,0,0,1.0338957,0.04826949,5.560181)" />
		<path
   d="m 38.107005,5.560181 v 9.005232 h -0.05687 c -1.141416,-1.31098 -2.566124,-1.766928 -4.219323,-1.766928 -3.387043,0 -5.938697,2.30352 -6.834051,5.347309 -1.022523,-3.353958 -3.656889,-5.410377 -7.562947,-5.410377 -3.171992,0 -5.677122,1.423675 -6.983966,3.743737 V 13.595619 H 5.892882 v -3.130637 h 7.155592 V 5.560181 H 0.04826949 V 27.564584 H 5.892882 v -9.249231 h 5.826002 c -0.173695,0.679269 -0.266745,1.407132 -0.266745,2.175316 0,4.589463 3.506974,7.811082 7.981675,7.811082 3.76338,0 6.243696,-1.766927 7.554676,-4.987513 h -5.009225 c -0.677202,0.968761 -1.191048,1.25515 -2.545451,1.25515 -1.570488,0 -2.924891,-1.369912 -2.924891,-2.994162 h 10.199381 c 0.442508,3.645516 3.282619,6.789593 7.179372,6.789593 1.681115,0 3.220585,-0.827117 4.16143,-2.222876 h 0.05687 v 1.424709 h 5.151902 V 5.560181 Z M 16.672278,18.380488 c 0.324644,-1.397827 1.4092,-2.310757 2.76257,-2.310757 1.489844,0 2.51857,0.885015 2.78945,2.310757 0.113729,0 -5.55202,0 -5.55202,0 z m 18.307192,5.834274 c -1.899266,0 -3.079975,-1.77003 -3.079975,-3.617602 0,-1.97474 1.026658,-3.874007 3.079975,-3.874007 2.128791,0 2.976586,1.899267 2.976586,3.874007 0,1.872386 -0.898456,3.617602 -2.976586,3.617602 z"
   id="path14"
   inkscape:connector-curvature="0"
   style="fill:#2a007c;stroke-width:1.0339" />
		
		
		
		
		
		
		
	</g>
</svg>
