<svg xmlns="http://www.w3.org/2000/svg" width="463.895" height="98.278" viewBox="0 0 463.895 98.278">
  <g id="Group_590" data-name="Group 590" transform="translate(-530.616 -448.832)">
    <g id="Group_589" data-name="Group 589" transform="translate(530.616 448.832)">
      <path id="Path_23392" data-name="Path 23392" d="M546.209,448.832V478.37h.329a18.059,18.059,0,0,1,7.577-7.192,20.457,20.457,0,0,1,9-2.251,26.49,26.49,0,0,1,10.267,1.7,15.239,15.239,0,0,1,6.314,4.722,18.293,18.293,0,0,1,3.239,7.357,45.819,45.819,0,0,1,.933,9.608v34.918H568.28V495.171q0-7.027-2.2-10.487t-7.8-3.459q-6.37,0-9.224,3.788t-2.855,12.463v29.758H530.616v-78.4Z" transform="translate(-530.616 -448.832)" fill="#ff6000"/>
      <path id="Path_23393" data-name="Path 23393" d="M657.518,530.771q3.513,3.405,10.1,3.4a13.9,13.9,0,0,0,8.126-2.361q3.4-2.36,4.172-5h13.726q-3.294,10.212-10.1,14.6t-16.471,4.392a32.412,32.412,0,0,1-12.079-2.141,25.1,25.1,0,0,1-9.114-6.094,27.4,27.4,0,0,1-5.765-9.444,34.538,34.538,0,0,1-2.031-12.078,33.111,33.111,0,0,1,2.086-11.86,27.446,27.446,0,0,1,15.1-15.812,29.391,29.391,0,0,1,11.8-2.306,27,27,0,0,1,12.628,2.8,25.225,25.225,0,0,1,8.839,7.522,30.94,30.94,0,0,1,5,10.761,40.131,40.131,0,0,1,1.1,12.627H653.674Q654,527.367,657.518,530.771ZM675.142,500.9q-2.8-3.073-8.51-3.075a13.58,13.58,0,0,0-6.2,1.262,11.822,11.822,0,0,0-3.953,3.13,11.467,11.467,0,0,0-2.087,3.953,17.821,17.821,0,0,0-.714,3.734H679.04Q677.941,503.979,675.142,500.9Z" transform="translate(-580.105 -465.985)" fill="#ff6000"/>
      <path id="Path_23394" data-name="Path 23394" d="M766.682,487.617v7.247h.22a17.147,17.147,0,0,1,7.247-6.7,22.244,22.244,0,0,1,9.663-2.086,24.61,24.61,0,0,1,11.53,2.525,23.843,23.843,0,0,1,8.016,6.7,28.337,28.337,0,0,1,4.722,9.718,43.186,43.186,0,0,1,1.538,11.584,39.028,39.028,0,0,1-1.538,10.981,27.967,27.967,0,0,1-4.667,9.333,23.1,23.1,0,0,1-7.8,6.479,23.475,23.475,0,0,1-10.926,2.416,22.1,22.1,0,0,1-9.718-2.141,18.378,18.378,0,0,1-7.3-6.314h-.22v26.9H751.858V487.617Zm20.259,45.021a12.5,12.5,0,0,0,4.173-4.008,16.532,16.532,0,0,0,2.251-5.765,34.07,34.07,0,0,0,.659-6.7,31.62,31.62,0,0,0-.713-6.7,17.868,17.868,0,0,0-2.361-5.875,13.174,13.174,0,0,0-4.227-4.172,11.821,11.821,0,0,0-6.314-1.592,12.032,12.032,0,0,0-6.424,1.592,12.811,12.811,0,0,0-4.173,4.117,17.089,17.089,0,0,0-2.251,5.82,34.609,34.609,0,0,0-.659,6.808,31.433,31.433,0,0,0,.714,6.7,17.266,17.266,0,0,0,2.306,5.765,13.3,13.3,0,0,0,17.02,4.008Z" transform="translate(-632.5 -465.985)" fill="#ff6000"/>
      <path id="Path_23395" data-name="Path 23395" d="M880.484,530.277a9.105,9.105,0,0,0,2.69,2.965,11.525,11.525,0,0,0,3.788,1.7,17.8,17.8,0,0,0,4.447.549,16.6,16.6,0,0,0,3.459-.385,11.752,11.752,0,0,0,3.294-1.208,7.472,7.472,0,0,0,2.471-2.2,5.765,5.765,0,0,0,.988-3.459q0-3.513-4.667-5.271a93.6,93.6,0,0,0-13.012-3.514q-3.405-.767-6.644-1.812a22.61,22.61,0,0,1-5.764-2.745,13.315,13.315,0,0,1-4.063-4.282,12.12,12.12,0,0,1-1.538-6.314,17.085,17.085,0,0,1,2.141-9,15.793,15.793,0,0,1,5.655-5.545,24.8,24.8,0,0,1,7.906-2.855,48.777,48.777,0,0,1,9-.823,45.049,45.049,0,0,1,8.95.878,23.732,23.732,0,0,1,7.741,2.965,17.8,17.8,0,0,1,5.655,5.545,18.653,18.653,0,0,1,2.69,8.73H900.853q-.329-4.5-3.4-6.095a15.581,15.581,0,0,0-7.247-1.592,26.992,26.992,0,0,0-2.855.165,9.532,9.532,0,0,0-2.8.714,5.762,5.762,0,0,0-2.141,1.592,4.2,4.2,0,0,0-.879,2.8,4.274,4.274,0,0,0,1.538,3.4,11.854,11.854,0,0,0,4.008,2.141,50.122,50.122,0,0,0,5.656,1.482q3.183.66,6.478,1.428a66.407,66.407,0,0,1,6.643,1.866,21.907,21.907,0,0,1,5.765,2.911,14.1,14.1,0,0,1,4.063,4.5,13.221,13.221,0,0,1,1.537,6.643,17.244,17.244,0,0,1-8.126,15.483,24.067,24.067,0,0,1-8.291,3.239,48.377,48.377,0,0,1-9.5.933,47.082,47.082,0,0,1-9.663-.988,25.509,25.509,0,0,1-8.4-3.295,18.826,18.826,0,0,1-6.04-6.094,19.067,19.067,0,0,1-2.58-9.5h14.824A8.538,8.538,0,0,0,880.484,530.277Z" transform="translate(-684.427 -465.985)" fill="#ff6000"/>
      <path id="Path_23396" data-name="Path 23396" d="M971.065,461.679V448.832h15.592v12.847Zm15.592,8.785v56.77H971.065v-56.77Z" transform="translate(-733.447 -448.832)" fill="#ff6000"/>
    </g>
    <path id="Path_23397" data-name="Path 23397" d="M1039.486,448.832l-9.228,14.017h21.748v37.1c0,8.433-5.7,14.813-14.131,14.813-8.658,0-13.56-6.038-14.585-14.014l-14.7,2.962c2.393,14.7,12.875,24.954,29.281,24.954,17.777,0,29.627-12.079,29.627-28.715V448.832Z" transform="translate(-220.113 0)" fill="#7723db"/>
    <path id="Path_23398" data-name="Path 23398" d="M1239.925,448.832l-9.228,14.017h25.981v64.106h15.495V462.848h16.484l9.228-14.017Z" transform="translate(-322.395 0)" fill="#7723db"/>
    <path id="Path_23399" data-name="Path 23399" d="M1357.483,448.832l-9.229,14.017h13.56l9.228-14.017Z" transform="translate(-376.531 0)" fill="#ff6000"/>
    <path id="Path_23400" data-name="Path 23400" d="M1144.023,495.1h27.455l9.078-13.788h-36.533V462.847h34.151l9.228-14.017h-58.874v78.121h49.646l9.228-14.017-43.379,0Z" transform="translate(-275.345)" fill="#7723db"/>
  </g>
</svg>
