<svg xmlns="http://www.w3.org/2000/svg" width="267.919" height="57.606" viewBox="0 0 267.919 57.606">
  <g id="Group_3" data-name="Group 3" transform="translate(-49 -45)">
    <g id="Group_2" data-name="Group 2" transform="translate(49 45)">
      <path id="Path_1" data-name="Path 1" d="M142.611,167.341a10.45,10.45,0,0,0-.7-7.659c-2.557-5.926-16.593-10.648-17.772-16.328-.926-4.49,16.094-8.958,18.7-17.822-7.907,4.937-28.236,11.028-29.668,17.958a6.416,6.416,0,0,0,.49,4.965c4.117,7.1,21.711,10.46,28.946,18.886" transform="translate(-100.012 -124.467)" fill="#18b6d6"/>
      <path id="Path_2" data-name="Path 2" d="M138.549,189.495c1.144-15.016-41.177-21.011-36.854-35.2-4.7,2.424-6.963,5.3-7.853,7.718-3.249,8.806,17.114,14.308,22.961,16.9,6.431,2.846,13.082,5.79,16.423,7.933a16.327,16.327,0,0,1,5.106,4.888,15.135,15.135,0,0,0,.218-2.236" transform="translate(-93.493 -134.125)" fill="#5a5b5e"/>
      <path id="Path_3" data-name="Path 3" d="M112.492,131.253a7.323,7.323,0,1,1-7.324-7.324,7.325,7.325,0,0,1,7.324,7.324" transform="translate(-94.955 -123.929)" fill="#18b6d6"/>
      <g id="Group_1" data-name="Group 1" transform="translate(52.63 3.427)">
        <path id="Path_4" data-name="Path 4" d="M190.876,169.362l-5.368-8.278h-1.595l-.854,8.278H172.726l3.817-37.022h10.335l-2.01,19.488H185.9l7.462-8.536h12.031l-11.048,12.392,9.285,13.677Z" transform="translate(-172.726 -130.181)" fill="#4d4e4e"/>
        <path id="Path_5" data-name="Path 5" d="M248.013,174.508H237.678l.217-2.108a10.76,10.76,0,0,1-7.649,2.879,10.532,10.532,0,0,1-8.629-3.83q-3.127-3.832-2.5-9.95a15.745,15.745,0,0,1,4.553-10,12.991,12.991,0,0,1,9.42-3.831,8.806,8.806,0,0,1,7.056,2.88l.218-2.109H250.7ZM237.275,165.2a5.875,5.875,0,0,0,1.745-3.7,4.942,4.942,0,0,0-.978-3.728,4,4,0,0,0-3.314-1.516,4.791,4.791,0,0,0-3.576,1.516,6.1,6.1,0,0,0-1.7,3.728,4.979,4.979,0,0,0,.929,3.7,3.9,3.9,0,0,0,3.266,1.49A4.989,4.989,0,0,0,237.275,165.2Z" transform="translate(-188.268 -135.327)" fill="#4d4e4e"/>
        <path id="Path_6" data-name="Path 6" d="M292.441,148.518l-1.474,10.8h-1.542a10.924,10.924,0,0,0-6.447,1.7q-2.387,1.7-2.827,5.964l-.8,7.764H269.016l2.688-26.07h10.335l-.552,5.348q3.257-5.656,9.067-5.656A12.558,12.558,0,0,1,292.441,148.518Z" transform="translate(-205.056 -135.561)" fill="#4d4e4e"/>
        <path id="Path_7" data-name="Path 7" d="M332.492,171.833a12.107,12.107,0,0,1-5.414,9.127,19.77,19.77,0,0,1-11.5,3.317q-9.409,0-12.842-7.1l9.152-2.982a6.072,6.072,0,0,0,2.066,1.9,5.51,5.51,0,0,0,2.369.463,6.4,6.4,0,0,0,3.958-1.234,5.022,5.022,0,0,0,1.9-3.7l.127-1.234a11.085,11.085,0,0,1-7.577,2.674,10.805,10.805,0,0,1-8.578-3.574q-3.129-3.573-2.545-9.229a13.741,13.741,0,0,1,4.432-9.076,13.324,13.324,0,0,1,9.309-3.522q4.576,0,7.031,2.622l.191-1.851H334.9Zm-10.82-8.253a5.093,5.093,0,0,0,1.679-3.316,4.224,4.224,0,0,0-.99-3.368,4.11,4.11,0,0,0-3.253-1.362,5.009,5.009,0,0,0-3.56,1.362,5.21,5.21,0,0,0-1.659,3.368,4.21,4.21,0,0,0,.969,3.316,4.091,4.091,0,0,0,3.279,1.363A5.032,5.032,0,0,0,321.671,163.581Z" transform="translate(-216.377 -135.327)" fill="#4d4e4e"/>
        <path id="Path_8" data-name="Path 8" d="M379.774,151.6a11.6,11.6,0,0,1,3.243,9.924,14.311,14.311,0,0,1-5.291,9.924,16.432,16.432,0,0,1-10.784,3.856,13.611,13.611,0,0,1-10.04-3.856,11.6,11.6,0,0,1-3.244-9.924,14.309,14.309,0,0,1,5.291-9.924,16.5,16.5,0,0,1,10.835-3.856A13.546,13.546,0,0,1,379.774,151.6Zm-8.421,13.6a5.909,5.909,0,0,0,1.741-3.677,4.945,4.945,0,0,0-.978-3.728,3.9,3.9,0,0,0-3.212-1.516,4.9,4.9,0,0,0-3.576,1.516,5.971,5.971,0,0,0-1.747,3.728,4.87,4.87,0,0,0,.983,3.677,3.949,3.949,0,0,0,3.263,1.516A4.842,4.842,0,0,0,371.354,165.2Z" transform="translate(-233.446 -135.353)" fill="#4d4e4e"/>
        <path id="Path_9" data-name="Path 9" d="M401.145,168.27l2.688-26.07h10.387l-2.688,26.07ZM414.3,130.734a4.9,4.9,0,0,1,1.217,3.908,5.972,5.972,0,0,1-2.005,3.985,6.192,6.192,0,0,1-4.275,1.568,5.086,5.086,0,0,1-3.952-1.568,4.891,4.891,0,0,1-1.182-3.985,5.992,5.992,0,0,1,2.025-3.934,6.124,6.124,0,0,1,4.255-1.619A4.958,4.958,0,0,1,414.3,130.734Z" transform="translate(-249.419 -129.089)" fill="#4d4e4e"/>
        <path id="Path_10" data-name="Path 10" d="M433.025,165.87q.384,2.262,3.263,2.262a3.521,3.521,0,0,0,1.787-.386,1.244,1.244,0,0,0,.711-.9.814.814,0,0,0-.427-.848,4.776,4.776,0,0,0-1.652-.437l-5.1-.874q-7.735-1.285-7.06-7.815a8.885,8.885,0,0,1,4.114-6.736,15.342,15.342,0,0,1,8.763-2.468,15.778,15.778,0,0,1,8.267,1.851,7.533,7.533,0,0,1,3.645,5.3l-9.287,1.8a2.644,2.644,0,0,0-.97-1.568,3.266,3.266,0,0,0-2.237-.745,2.882,2.882,0,0,0-1.608.385,1.254,1.254,0,0,0-.632.9q-.1.926,1.364,1.234l5.8,1.132q7.662,1.491,6.941,8.483a8.38,8.38,0,0,1-4.167,6.5,16.885,16.885,0,0,1-9.136,2.339,17.548,17.548,0,0,1-8.575-1.851,7.147,7.147,0,0,1-3.818-5.6Z" transform="translate(-256.759 -135.327)" fill="#4d4e4e"/>
        <path id="Path_11" data-name="Path 11" d="M484.893,170.05a17.12,17.12,0,0,1-7.754,1.9q-5.141,0-7.583-2.751t-1.938-7.636l.869-8.432h-3.548l.828-8.022h3.547l.759-7.353h10.336l-.759,7.353h6.478l-.827,8.022h-6.478l-.737,7.147q-.292,2.828,2.639,2.828a6.355,6.355,0,0,0,3.109-.72Z" transform="translate(-270.839 -132)" fill="#4d4e4e"/>
      </g>
    </g>
  </g>
</svg>
