<?xml version="1.0" encoding="UTF-8" standalone="no"?>
<!-- Created with Inkscape (http://www.inkscape.org/) -->

<svg
   width="276.69031"
   height="211.0107"
   viewBox="0 0 73.207641 55.829912"
   version="1.1"
   id="svg357"
   inkscape:version="1.2.2 (b0a8486541, 2022-12-01, custom)"
   sodipodi:docname="kurye-logo.svg"
   xmlns:inkscape="http://www.inkscape.org/namespaces/inkscape"
   xmlns:sodipodi="http://sodipodi.sourceforge.net/DTD/sodipodi-0.dtd"
   xmlns="http://www.w3.org/2000/svg"
   xmlns:svg="http://www.w3.org/2000/svg">
  <sodipodi:namedview
     id="namedview359"
     pagecolor="#ffffff"
     bordercolor="#666666"
     borderopacity="1.0"
     inkscape:showpageshadow="2"
     inkscape:pageopacity="0.0"
     inkscape:pagecheckerboard="0"
     inkscape:deskcolor="#d1d1d1"
     inkscape:document-units="mm"
     showgrid="false"
     inkscape:zoom="1.5144501"
     inkscape:cx="285.91237"
     inkscape:cy="98.055396"
     inkscape:window-width="1848"
     inkscape:window-height="1016"
     inkscape:window-x="72"
     inkscape:window-y="27"
     inkscape:window-maximized="1"
     inkscape:current-layer="layer1" />
  <defs
     id="defs354" />
  <g
     inkscape:label="Layer 1"
     inkscape:groupmode="layer"
     id="layer1"
     transform="translate(271.3874,124.82582)">
    <path
       d="m -254.38132,-110.7428 h -1.29772 c -0.64826,0 -1.17354,0.52559 -1.17354,1.17353 v 3.1e-4 c 0,0.64794 0.52528,1.17353 1.17354,1.17353 h 7.68087 5.52422 c 1.30968,0 2.37129,-1.0616 2.37129,-2.37129 v -11.68812 c 0,-1.30937 -1.06161,-2.37098 -2.37129,-2.37098 h -5.52422 -6.35217 -1.47343 c -0.64826,0 -1.17354,0.52528 -1.17354,1.17353 v 0 c 0,0.64826 0.52528,1.17354 1.17354,1.17354 h 2.344 c 0.64824,0 1.17352,0.52559 1.17352,1.17353 v 0 c 0,0.64825 -0.52528,1.17384 -1.17352,1.17384 h -7.10837 c -0.64825,0 -1.17353,0.52529 -1.17353,1.17354 v 0 c 0,0.64794 0.52528,1.17353 1.17353,1.17353 h 8.73757 c 0.64825,0 1.17384,0.52529 1.17384,1.17353 v 0 c 0,0.64825 -0.52559,1.17353 -1.17384,1.17353 h -3.12718 c -0.64824,0 -1.17352,0.52559 -1.17352,1.17385 v 0 c 0,0.64794 0.52528,1.17353 1.17352,1.17353 h 0.59643 c 0.64825,0 1.17354,0.52528 1.17354,1.17353 v 0 c 0,0.64826 -0.52529,1.17354 -1.17354,1.17354"
       style="fill:#ee4d2d;fill-opacity:1;fill-rule:nonzero;stroke:none;stroke-width:0.00306646"
       id="path50" />
    <path
       d="m -213.61612,-90.853747 c -1.73378,0 -3.13913,-1.405357 -3.13913,-3.139134 0,-1.733776 1.40535,-3.139134 3.13913,-3.139134 1.73347,0 3.13914,1.405358 3.13914,3.139134 0,1.733777 -1.40567,3.139134 -3.13914,3.139134 z m -26.70119,-7.136569 h -0.8215 c -0.20116,0 -0.36399,-0.16283 -0.36399,-0.363989 0,-0.20116 0.16283,-0.364296 0.36399,-0.364296 h 0.8215 c 0.20116,0 0.36399,0.163136 0.36399,0.364296 0,0.201159 -0.16283,0.363989 -0.36399,0.363989 z m -3.35961,0 h -6.72352 c -0.20116,0 -0.36399,-0.16283 -0.36399,-0.363989 0,-0.20116 0.16283,-0.364296 0.36399,-0.364296 h 6.72352 c 0.20116,0 0.36398,0.163136 0.36398,0.364296 0,0.201159 -0.16282,0.363989 -0.36398,0.363989 z m -5.57574,7.136569 c -1.73348,0 -3.13914,-1.405357 -3.13914,-3.139134 0,-0.371961 0.0654,-0.728283 0.18399,-1.059462 1.48294,0.60072 3.6494,1.416092 5.929,2.064341 -0.41888,1.24069 -1.59149,2.134255 -2.97385,2.134255 z m 38.58218,-8.148501 h 1.84203 c 0.2772,0 0.47377,-0.269542 0.39005,-0.533871 -0.44034,-1.393701 -2.16983,-4.979011 -8.19051,-4.186021 0,0 -1.1579,-6.72352 -5.6104,-9.84027 l 1.88404,-0.18153 c 0.66021,-0.0634 1.16003,-0.62525 1.14593,-1.28822 -0.0199,-0.91687 -0.13615,-2.17566 -0.57128,-3.05389 -0.20116,-0.4063 -0.65224,-0.62525 -1.09902,-0.54705 -0.95336,0.16619 -3.7791,0.49921 -5.10013,1.62706 -1.78929,1.52802 1.09104,4.40098 2.24863,7.60696 1.1579,3.20568 1.94813,7.59164 0.67922,10.230017 -1.2692,2.638075 -9.45082,2.103897 -9.95188,1.936775 -0.50075,-0.166815 -1.03217,-0.847569 -0.43421,-2.337562 2.03736,-5.07621 0.66818,-7.5809 0.66818,-7.5809 h -17.83299 c 0,0 -6.08263,2.31701 -6.11821,8.584552 -0.003,0.423172 0.34344,0.766308 0.76662,0.766308 h 2.31211 c -0.88405,1.018065 -1.41946,2.347067 -1.421,3.800876 -0.003,3.166119 2.56203,5.771997 5.72784,5.816154 2.67335,0.03741 4.93915,-1.731017 5.6567,-4.163332 1.27411,0.260342 2.51664,0.423785 3.62854,0.423785 5.477,0 6.41196,-1.157588 6.41196,-1.157588 4.36879,0 5.30836,0 7.07984,0 1.38451,0 3.17594,-0.631078 4.76927,-2.16768 -3.5e-4,3.48e-4 -3.5e-4,3.48e-4 -6e-4,6.08e-4 0,0 2.00668,-0.371654 2.76134,-0.864742 -0.27199,0.694554 -0.41458,1.453809 -0.39711,2.24833 0.0666,3.057873 2.52737,5.561329 5.58371,5.676935 3.31179,0.125418 6.03633,-2.522163 6.03633,-5.806341 0,-2.133949 -1.15053,-3.998969 -2.86499,-5.009367"
       style="fill:#1c1c1c;fill-opacity:1;fill-rule:nonzero;stroke:none;stroke-width:0.00306646"
       id="path56" />
    <text
       xml:space="preserve"
       style="font-style:normal;font-variant:normal;font-weight:bold;font-stretch:normal;font-size:20.7572px;line-height:1.25;font-family:sans-serif;-inkscape-font-specification:'sans-serif, Bold';font-variant-ligatures:normal;font-variant-caps:normal;font-variant-numeric:normal;font-variant-east-asian:normal;fill:#000000;fill-opacity:1;stroke:none;stroke-width:0.518931"
       x="-273.29285"
       y="-69.289833"
       id="text432"><tspan
         sodipodi:role="line"
         id="tspan430"
         style="font-style:normal;font-variant:normal;font-weight:bold;font-stretch:normal;font-size:20.7572px;font-family:sans-serif;-inkscape-font-specification:'sans-serif, Bold';font-variant-ligatures:normal;font-variant-caps:normal;font-variant-numeric:normal;font-variant-east-asian:normal;stroke-width:0.518931"
         x="-273.29285"
         y="-69.289833">KURYE</tspan></text>
  </g>
</svg>
