<svg width="174" height="33" viewBox="0 0 174 33" fill="none" xmlns="http://www.w3.org/2000/svg">
<g clip-path="url(#clip0)">
<path fill-rule="evenodd" clip-rule="evenodd" d="M82.19 3.11C82.19 3.11 80.63 0.639998 73.63 0.0399979C73.63 0.0399979 65.04 -0.720002 61.52 3.79C61.52 3.79 57.19 8.03 58.83 18.04C58.83 18.04 59.84 24.64 67.43 27.15H84.09V11.39H72.47V22.06C72.47 22.06 72.41 22.76 71.28 22.78C71.28 22.78 70.18 22.75 70.1 22.06C70.02 21.37 70.1 7.1 70.1 7.1C70.1 7.1 70.16 3.51 75.56 3.94C75.56 3.94 79.29 4.02 82.19 6.33V3.11Z" fill="#0068B4"/>
<path fill-rule="evenodd" clip-rule="evenodd" d="M32.1 1.11H42.1L51.05 9.51V1.11H55.76V27.16H45.54L37.39 19.36V27.16H32.1V1.11Z" fill="#0068B4"/>
<path fill-rule="evenodd" clip-rule="evenodd" d="M0 1.11V27.16H4.48V20.04L10.34 24.8L17.56 17.65V27.16H29.18V1.11H19.87L14.59 5.87L9.76 1.11H0Z" fill="#0068B4"/>
<path fill-rule="evenodd" clip-rule="evenodd" d="M89.4102 7.61H95.0502V17.56L99.1702 12.93H105.96L100.8 17.84L106.27 26.95H100.05L97.1301 21.33L95.0502 23.31V26.95H89.4102V7.61Z" fill="#ED6E00"/>
<path fill-rule="evenodd" clip-rule="evenodd" d="M117.74 20.28C116.98 20.55 116.19 20.78 115.36 20.99C114.24 21.28 113.53 21.57 113.23 21.85C112.92 22.14 112.77 22.48 112.77 22.85C112.77 23.27 112.92 23.62 113.23 23.89C113.53 24.16 113.98 24.3 114.57 24.3C115.18 24.3 115.76 24.15 116.29 23.86C116.82 23.56 117.2 23.2 117.42 22.78C117.64 22.36 117.75 21.81 117.75 21.13V20.28H117.74ZM112.96 17.47L107.68 16.93C107.88 16.03 108.17 15.32 108.54 14.81C108.92 14.29 109.45 13.85 110.16 13.47C110.67 13.19 111.36 12.99 112.25 12.83C113.13 12.68 114.09 12.61 115.12 12.61C116.77 12.61 118.1 12.7 119.1 12.88C120.1 13.06 120.94 13.44 121.61 14.01C122.08 14.41 122.45 14.97 122.72 15.69C122.99 16.42 123.13 17.11 123.13 17.77V23.97C123.13 24.63 123.17 25.15 123.26 25.52C123.35 25.89 123.53 26.37 123.82 26.95H118.65C118.44 26.6 118.31 26.32 118.24 26.13C118.18 25.95 118.11 25.65 118.05 25.24C117.33 25.92 116.61 26.4 115.89 26.69C114.91 27.08 113.78 27.27 112.49 27.27C110.77 27.27 109.47 26.88 108.58 26.11C107.69 25.33 107.25 24.38 107.25 23.24C107.25 22.17 107.57 21.29 108.21 20.6C108.85 19.92 110.04 19.4 111.76 19.06C113.83 18.66 115.17 18.37 115.79 18.21C116.41 18.04 117.06 17.83 117.74 17.56C117.74 16.9 117.6 16.44 117.32 16.17C117.04 15.91 116.55 15.78 115.84 15.78C114.94 15.78 114.26 15.92 113.81 16.2C113.46 16.44 113.18 16.85 112.96 17.47Z" fill="#ED6E00"/>
<path fill-rule="evenodd" clip-rule="evenodd" d="M126.45 12.93H131.62V15.22C132.12 14.23 132.63 13.55 133.16 13.17C133.69 12.79 134.34 12.61 135.12 12.61C135.93 12.61 136.83 12.86 137.8 13.35L136.09 17.17C135.44 16.9 134.92 16.77 134.54 16.77C133.81 16.77 133.25 17.06 132.85 17.65C132.28 18.47 131.99 20 131.99 22.25V26.96H126.44V12.93" fill="#ED6E00"/>
<path fill-rule="evenodd" clip-rule="evenodd" d="M144.03 19.72C144.03 20.74 144.25 21.49 144.69 21.98C145.13 22.47 145.72 22.71 146.44 22.71C147.13 22.71 147.7 22.45 148.17 21.95C148.63 21.44 148.87 20.68 148.87 19.66C148.87 18.64 148.62 17.86 148.14 17.31C147.65 16.77 147.05 16.49 146.35 16.49C145.65 16.49 145.08 16.74 144.66 17.24C144.24 17.74 144.03 18.56 144.03 19.72ZM154.38 12.93V26.16L154.39 26.78C154.39 27.66 154.2 28.49 153.81 29.3C153.43 30.09 152.92 30.74 152.28 31.23C151.64 31.72 150.83 32.08 149.85 32.3C148.87 32.52 147.75 32.63 146.48 32.63C143.59 32.63 141.6 32.21 140.52 31.36C139.44 30.51 138.9 29.38 138.9 27.96C138.9 27.79 138.91 27.55 138.93 27.24L144.29 27.84C144.43 28.32 144.63 28.65 144.91 28.83C145.32 29.1 145.83 29.23 146.44 29.23C147.24 29.23 147.83 29.03 148.22 28.62C148.61 28.21 148.81 27.49 148.81 26.47V24.36C148.27 24.99 147.72 25.44 147.18 25.72C146.33 26.16 145.41 26.38 144.43 26.38C142.5 26.38 140.95 25.56 139.77 23.92C138.93 22.76 138.51 21.22 138.51 19.31C138.51 17.13 139.05 15.47 140.14 14.32C141.22 13.17 142.64 12.6 144.4 12.6C145.52 12.6 146.45 12.78 147.17 13.15C147.9 13.52 148.58 14.13 149.21 14.98V12.93H154.38Z" fill="#ED6E00"/>
<path fill-rule="evenodd" clip-rule="evenodd" d="M162.55 19.97C162.55 21.23 162.8 22.15 163.32 22.75C163.84 23.35 164.49 23.65 165.27 23.65C166.06 23.65 166.71 23.36 167.22 22.76C167.73 22.17 167.98 21.23 167.98 19.92C167.98 18.7 167.72 17.79 167.21 17.2C166.7 16.61 166.07 16.3 165.31 16.3C164.51 16.3 163.85 16.61 163.33 17.21C162.81 17.81 162.55 18.74 162.55 19.97ZM157.02 19.98C157.02 17.84 157.76 16.07 159.24 14.68C160.72 13.3 162.72 12.6 165.24 12.6C168.12 12.6 170.3 13.42 171.76 15.05C172.94 16.36 173.54 17.98 173.54 19.9C173.54 22.06 172.81 23.82 171.34 25.2C169.87 26.58 167.85 27.27 165.25 27.27C162.94 27.27 161.07 26.69 159.64 25.55C157.9 24.14 157.02 22.28 157.02 19.98Z" fill="#ED6E00"/>
</g>
<defs>
<clipPath id="clip0">
<rect width="173.54" height="32.62" fill="white"/>
</clipPath>
</defs>
</svg>
