<svg xmlns="http://www.w3.org/2000/svg" xmlns:xlink="http://www.w3.org/1999/xlink" version="1.1" id="Layer_1" x="0px" y="0px" style="enable-background:new 0 0 1920 1080;" xml:space="preserve" viewBox="649.19 222.05 614.74 582.36">
<style type="text/css">
	.st0{fill:#0E86C8;}
	.st1{fill:#FFCC03;}
	
		.st2{clip-path:url(#SVGID_00000144321308012731566830000008389787881813641401_);fill:url(#SVGID_00000024712237295284495130000017123298631306539186_);}
	
		.st3{clip-path:url(#SVGID_00000076580284585615293980000006228622345003490488_);fill:url(#SVGID_00000139267990213616805720000006090084053708210605_);}
	
		.st4{clip-path:url(#SVGID_00000042733871526115282830000006731208393035457170_);fill:url(#SVGID_00000078725438273238137860000001147361677030464659_);}
	
		.st5{clip-path:url(#SVGID_00000050638795462065430220000009058526259237869491_);fill:url(#SVGID_00000117649695216720616370000003756520844578228116_);}
	
		.st6{clip-path:url(#SVGID_00000172406403844944854390000002966284558217666437_);fill:url(#SVGID_00000131332554968082806950000012505350479443916433_);}
	
		.st7{clip-path:url(#SVGID_00000102542782103205271020000015794713670843642256_);fill:url(#SVGID_00000051371831471027077340000003163839581135232430_);}
	
		.st8{clip-path:url(#SVGID_00000062175106281799539460000007577469314476230842_);fill:url(#SVGID_00000147924313128168320890000012386085904794116481_);}
	
		.st9{clip-path:url(#SVGID_00000164482674574133415090000008292912982143226761_);fill:url(#SVGID_00000121979256021321997660000003833718380678929024_);}
	
		.st10{clip-path:url(#SVGID_00000004520858773781133340000014828400399124092800_);fill:url(#SVGID_00000038412867056619310060000000949942190246940337_);}
	
		.st11{clip-path:url(#SVGID_00000164492812378203391120000014653813956100801178_);fill:url(#SVGID_00000106105955548012361180000016652697240295648917_);}
	
		.st12{clip-path:url(#SVGID_00000065037935992169804750000001713406159330219160_);fill:url(#SVGID_00000144300788728997812940000004890522109105361323_);}
	
		.st13{clip-path:url(#SVGID_00000016040075910330102610000013214275696948222355_);fill:url(#SVGID_00000168083561823265277370000017512936868189649297_);}
	
		.st14{clip-path:url(#SVGID_00000110434227322326453120000000485816709161113771_);fill:url(#SVGID_00000068661680357592761820000016000237174878699950_);}
</style>
<g>
	<path class="st0" d="M658.27,716.21v-86.88h34.91c4.34,0,8.21,0.71,11.59,2.08c3.38,1.39,6.23,3.28,8.54,5.68   c2.3,2.38,4.05,5.16,5.27,8.33c1.21,3.18,1.83,6.54,1.83,10.09c0,3.56-0.62,6.93-1.83,10.1c-1.22,3.17-3,5.95-5.34,8.33   c-2.34,2.39-5.21,4.28-8.59,5.68c-3.39,1.37-7.21,2.07-11.46,2.07h-24.1v34.52H658.27z M691.86,672.05c5.21,0,9.41-1.51,12.58-4.56   c3.16-3.05,4.74-7.04,4.74-11.99c0-4.95-1.59-8.94-4.74-11.98c-3.18-3.05-7.37-4.56-12.58-4.56h-22.79v33.08H691.86z"/>
	<path class="st0" d="M794.5,716.21l-7.67-19.27h-43.25l-7.68,19.27h-12.37l34.9-86.88h13.42l35.04,86.88H794.5z M765.21,640.52   l-18.5,46.77h36.86L765.21,640.52z"/>
	<path class="st0" d="M862.37,717.77c-6.25,0-12.1-1.08-17.53-3.25c-5.42-2.17-10.15-5.23-14.18-9.19   c-4.05-3.94-7.22-8.67-9.52-14.19c-2.3-5.51-3.44-11.61-3.44-18.3s1.14-12.77,3.44-18.29c2.3-5.52,5.47-10.25,9.52-14.2   c4.03-3.95,8.76-7.02,14.18-9.19c5.43-2.16,11.27-3.26,17.53-3.26c3.82,0,7.35,0.44,10.61,1.31c3.26,0.87,6.25,2.08,9,3.64   c2.73,1.57,5.2,3.38,7.42,5.47c2.2,2.09,4.18,4.35,5.92,6.78l-9.12,5.07c-2.51-3.64-5.87-6.65-10.08-9.05   c-4.22-2.38-8.8-3.57-13.75-3.57c-4.77,0-9.21,0.86-13.29,2.61c-4.08,1.74-7.61,4.16-10.61,7.28c-3,3.13-5.34,6.85-7.04,11.14   c-1.7,4.31-2.53,9.05-2.53,14.26c0,5.13,0.83,9.86,2.53,14.2c1.7,4.35,4.04,8.07,7.04,11.2s6.53,5.57,10.61,7.3   c4.08,1.73,8.52,2.6,13.29,2.6c4.94,0,9.53-1.17,13.75-3.52c4.22-2.34,7.57-5.38,10.08-9.11l9.25,5.08   c-3.64,4.95-8.13,9.05-13.47,12.31C876.63,716.14,870.09,717.77,862.37,717.77"/>
	<polygon class="st0" points="969.57,716.21 936.62,677.13 927.88,687.04 927.88,716.21 917.08,716.21 917.08,629.33 927.88,629.33    927.88,674.26 966.31,629.33 979.86,629.33 943.64,670.62 982.99,716.21  "/>
	<path class="st1" d="M1040.89,717.77c-6.62,0-12.38-0.89-17.29-2.68c-4.91-1.78-9-4.25-12.28-7.42c-3.26-3.16-5.7-6.96-7.3-11.39   c-1.6-4.42-2.4-9.33-2.4-14.71v-52.23h18.76v51.58c0,6.07,1.7,11.01,5.13,14.78c3.44,3.78,8.55,5.67,15.3,5.67   c6.79,0,11.86-1.89,15.24-5.67c3.38-3.77,5.08-8.7,5.08-14.78v-51.58h19.02v52.1c0,5.39-0.8,10.31-2.41,14.79   c-1.61,4.48-4.05,8.32-7.3,11.52c-3.28,3.22-7.35,5.7-12.27,7.42C1053.24,716.9,1047.49,717.77,1040.89,717.77"/>
	<path class="st1" d="M1104.89,716.21v-86.88h40.72c4.68,0,8.86,0.74,12.53,2.22c3.65,1.47,6.72,3.48,9.2,6.04   c2.47,2.57,4.35,5.54,5.62,8.92c1.26,3.38,1.88,7,1.88,10.81c0,3.83-0.65,7.42-1.96,10.82c-1.31,3.38-3.2,6.34-5.68,8.86   c-2.48,2.51-5.53,4.54-9.14,6.04c-3.61,1.52-7.76,2.29-12.47,2.29h-22.2v30.87H1104.89z M1143.06,669.06   c3.64,0,6.69-1.04,9.12-3.13c2.42-2.07,3.64-4.94,3.64-8.6c0-3.64-1.22-6.51-3.64-8.59c-2.43-2.09-5.48-3.13-9.12-3.13h-19.67   v23.44H1143.06z"/>
	<path class="st1" d="M1193.98,716.21v-86.88h40.71c4.69,0,8.87,0.74,12.54,2.22c3.65,1.47,6.71,3.48,9.19,6.04   c2.47,2.57,4.36,5.54,5.62,8.92c1.26,3.38,1.89,7,1.89,10.81c0,3.83-0.66,7.42-1.96,10.82c-1.31,3.38-3.2,6.34-5.68,8.86   c-2.48,2.51-5.54,4.54-9.14,6.04c-3.62,1.52-7.77,2.29-12.48,2.29h-22.19v30.87H1193.98z M1232.14,669.06   c3.64,0,6.69-1.04,9.12-3.13c2.42-2.07,3.64-4.94,3.64-8.6c0-3.64-1.22-6.51-3.64-8.59c-2.43-2.09-5.48-3.13-9.12-3.13h-19.66   v23.44H1232.14z"/>
	<g>
		<defs>
			<polygon id="SVGID_1_" points="963.43,592.6 979.62,582.87 963.43,574.4    "/>
		</defs>
		<clipPath id="SVGID_00000036943123002451654210000006254360280970162085_">
			<use xlink:href="#SVGID_1_" style="overflow:visible;"/>
		</clipPath>
		
			<linearGradient id="SVGID_00000034066637922013692940000018312954931142423196_" gradientUnits="userSpaceOnUse" x1="639.6365" y1="928.0681" x2="649.5615" y2="928.0681" gradientTransform="matrix(0.9585 -7.1887 -7.1887 -0.9585 7025.6201 6104.6396)">
			<stop offset="0" style="stop-color:#66CAE4"/>
			<stop offset="0.511" style="stop-color:#0E86C8"/>
			<stop offset="1" style="stop-color:#094D9D"/>
		</linearGradient>
		
			<polygon style="clip-path:url(#SVGID_00000036943123002451654210000006254360280970162085_);fill:url(#SVGID_00000034066637922013692940000018312954931142423196_);" points="    961.05,592.28 963.72,572.27 982,574.71 979.34,594.72   "/>
	</g>
	<g>
		<defs>
			<path id="SVGID_00000122703963076108459060000015007115477716714424_" d="M963.43,528.4v24.49l106.4-64.96v-6.32     c-7.96-0.54-15.43-2.13-21.78-4.87L963.43,528.4z"/>
		</defs>
		<clipPath id="SVGID_00000149378177074060908760000009995481105457254280_">
			<use xlink:href="#SVGID_00000122703963076108459060000015007115477716714424_" style="overflow:visible;"/>
		</clipPath>
		
			<linearGradient id="SVGID_00000129924740806503008500000013294233632158196359_" gradientUnits="userSpaceOnUse" x1="680.2392" y1="969.0792" x2="690.1641" y2="969.0792" gradientTransform="matrix(8.7215 8.55 8.55 -8.7215 -13254.2471 3099.0046)">
			<stop offset="0" style="stop-color:#66CAE4"/>
			<stop offset="0.511" style="stop-color:#0E86C8"/>
			<stop offset="1" style="stop-color:#094D9D"/>
		</linearGradient>
		
			<polygon style="clip-path:url(#SVGID_00000149378177074060908760000009995481105457254280_);fill:url(#SVGID_00000129924740806503008500000013294233632158196359_);" points="    1015.57,423.55 1107.9,514.05 1017.69,606.08 925.36,515.57   "/>
	</g>
	<g>
		<defs>
			<path id="SVGID_00000111893057100121077560000015756764158549902763_" d="M737.63,360.36c0,9.59,7.79,22.03,17.38,27.78     l77.43,46.41c2.16,1.3,3.91,4.11,3.91,6.27v2.32c0,2.16-1.75,2.87-3.91,1.57l-66.3-39.73v18.43c0,9.6,7.77,22.04,17.36,27.78     l48.94,29.34c2.16,1.3,3.91,4.11,3.91,6.27v2.31c0,2.17-1.75,2.87-3.91,1.57l-37.8-22.65v18.43c0,9.6,7.77,22.04,17.37,27.79     l16.8,10.07l85.58-52.26c-13.05,0.57-25.63-1.47-35.05-6.41l-39.14-20.52l34.5-21.07l-137.06-82.15V360.36z"/>
		</defs>
		<clipPath id="SVGID_00000175293911931365012870000013553089571973026187_">
			<use xlink:href="#SVGID_00000111893057100121077560000015756764158549902763_" style="overflow:visible;"/>
		</clipPath>
		
			<linearGradient id="SVGID_00000161628318414795105380000005387269720267231133_" gradientUnits="userSpaceOnUse" x1="645.5774" y1="956.0497" x2="655.5023" y2="956.0497" gradientTransform="matrix(-5.4163 -6.9492 -6.9492 5.4163 11018.7139 -191.7927)">
			<stop offset="0" style="stop-color:#FFF6AF"/>
			<stop offset="1" style="stop-color:#FFCB04"/>
		</linearGradient>
		
			<polygon style="clip-path:url(#SVGID_00000175293911931365012870000013553089571973026187_);fill:url(#SVGID_00000161628318414795105380000005387269720267231133_);" points="    804.43,610.04 649.19,410.86 847.59,256.22 1002.84,455.4   "/>
	</g>
	<g>
		<defs>
			<polygon id="SVGID_00000173876240894503234510000004744979866212345750_" points="900.12,567.06 942.75,592.63 942.75,556.81      942.75,546.64 942.75,541.04    "/>
		</defs>
		<clipPath id="SVGID_00000169529539261825599890000011385587515160088458_">
			<use xlink:href="#SVGID_00000173876240894503234510000004744979866212345750_" style="overflow:visible;"/>
		</clipPath>
		
			<linearGradient id="SVGID_00000132083240463927878320000015553205062291089313_" gradientUnits="userSpaceOnUse" x1="640.9915" y1="953.345" x2="650.9164" y2="953.345" gradientTransform="matrix(-4.7925 -9.9684 -9.9684 4.7925 13513.1338 2421.8008)">
			<stop offset="0" style="stop-color:#66CAE4"/>
			<stop offset="0.511" style="stop-color:#0E86C8"/>
			<stop offset="1" style="stop-color:#094D9D"/>
		</linearGradient>
		
			<polygon style="clip-path:url(#SVGID_00000169529539261825599890000011385587515160088458_);fill:url(#SVGID_00000132083240463927878320000015553205062291089313_);" points="    908.12,609.27 879.98,550.72 934.75,524.39 962.9,582.94   "/>
	</g>
	<g>
		<defs>
			<polygon id="SVGID_00000043428505518389210670000000422011275446872227_" points="931.42,329.15 844.79,381.74 895.33,411.49      1000.72,347.12 918.17,300    "/>
		</defs>
		<clipPath id="SVGID_00000112591626726785372330000010392159719617855160_">
			<use xlink:href="#SVGID_00000043428505518389210670000000422011275446872227_" style="overflow:visible;"/>
		</clipPath>
		
			<linearGradient id="SVGID_00000096046929064041163800000002140440505428964786_" gradientUnits="userSpaceOnUse" x1="668.0457" y1="969.8083" x2="677.9706" y2="969.8083" gradientTransform="matrix(11.5259 11.2993 11.2993 -11.5259 -17766.0645 3954.9849)">
			<stop offset="0" style="stop-color:#66CAE4"/>
			<stop offset="0.511" style="stop-color:#0E86C8"/>
			<stop offset="1" style="stop-color:#094D9D"/>
		</linearGradient>
		
			<polygon style="clip-path:url(#SVGID_00000112591626726785372330000010392159719617855160_);fill:url(#SVGID_00000096046929064041163800000002140440505428964786_);" points="    921.21,222.05 1056.45,354.64 924.3,489.44 789.06,356.85   "/>
	</g>
	<g>
		<defs>
			<path id="SVGID_00000147196304846525165690000016987571979872895896_" d="M1048.05,476.73c6.34,2.74,13.82,4.34,21.78,4.87     v-18.17L1048.05,476.73z"/>
		</defs>
		<clipPath id="SVGID_00000081632583235260451250000007172609011028455823_">
			<use xlink:href="#SVGID_00000147196304846525165690000016987571979872895896_" style="overflow:visible;"/>
		</clipPath>
		
			<linearGradient id="SVGID_00000049220511830422894770000013544968227496588675_" gradientUnits="userSpaceOnUse" x1="665.3195" y1="958.6515" x2="675.2444" y2="958.6515" gradientTransform="matrix(76.1479 -6.2371 3.663 -43.3072 -53342.1445 46157.3086)">
			<stop offset="0" style="stop-color:#66CAE4"/>
			<stop offset="0.511" style="stop-color:#0E86C8"/>
			<stop offset="1" style="stop-color:#094D9D"/>
		</linearGradient>
		
			<polygon style="clip-path:url(#SVGID_00000081632583235260451250000007172609011028455823_);fill:url(#SVGID_00000049220511830422894770000013544968227496588675_);" points="    1048.05,463.43 1071.53,461.51 1069.83,481.61 1046.35,483.53   "/>
	</g>
	<g>
		<defs>
			<path id="SVGID_00000001660673254559131600000001426817131345342380_" d="M840.19,445.14l39.14,20.52     c9.43,4.94,22,6.98,35.05,6.41l20-12.21l-59.7-35.79L840.19,445.14z"/>
		</defs>
		<clipPath id="SVGID_00000135680070222529298300000003012491369502537908_">
			<use xlink:href="#SVGID_00000001660673254559131600000001426817131345342380_" style="overflow:visible;"/>
		</clipPath>
		
			<linearGradient id="SVGID_00000002371404668330050750000000086676210857505938_" gradientUnits="userSpaceOnUse" x1="661.8652" y1="940.8079" x2="671.7901" y2="940.8079" gradientTransform="matrix(2.8614 -6.9492 -6.9492 -2.8614 5523.2124 7759.3228)">
			<stop offset="8.073434e-08" style="stop-color:#FFF6AF"/>
			<stop offset="1" style="stop-color:#FFCB04"/>
		</linearGradient>
		
			<polygon style="clip-path:url(#SVGID_00000135680070222529298300000003012491369502537908_);fill:url(#SVGID_00000002371404668330050750000000086676210857505938_);" points="    823.1,465.6 853.85,390.91 951.49,431.11 920.74,505.8   "/>
	</g>
	<g>
		<defs>
			<polygon id="SVGID_00000071537451502057140010000001939203868320256391_" points="895.33,411.49 953.1,445.48 1061.39,381.74      1000.72,347.12    "/>
		</defs>
		<clipPath id="SVGID_00000132783184143240864420000002467434631688596357_">
			<use xlink:href="#SVGID_00000071537451502057140010000001939203868320256391_" style="overflow:visible;"/>
		</clipPath>
		
			<linearGradient id="SVGID_00000070814212150505400900000013096103117744808881_" gradientUnits="userSpaceOnUse" x1="656.4193" y1="949.3699" x2="666.3442" y2="949.3699" gradientTransform="matrix(-2.8614 -18.6675 -18.6675 2.8614 20596.0215 10044.5537)">
			<stop offset="0" style="stop-color:#66CAE4"/>
			<stop offset="0.511" style="stop-color:#0E86C8"/>
			<stop offset="1" style="stop-color:#094D9D"/>
		</linearGradient>
		
			<polygon style="clip-path:url(#SVGID_00000132783184143240864420000002467434631688596357_);fill:url(#SVGID_00000070814212150505400900000013096103117744808881_);" points="    899.14,470.35 880.6,349.38 1057.58,322.25 1076.12,443.22   "/>
	</g>
	<g>
		<defs>
			<polygon id="SVGID_00000067220249136317924780000010476882374223402632_" points="963.43,552.89 963.43,574.4 979.62,582.87      1069.83,528.72 1069.83,487.93    "/>
		</defs>
		<clipPath id="SVGID_00000051357894975743590010000013432610249016627639_">
			<use xlink:href="#SVGID_00000067220249136317924780000010476882374223402632_" style="overflow:visible;"/>
		</clipPath>
		
			<linearGradient id="SVGID_00000033334407161701336450000004937581660937976760_" gradientUnits="userSpaceOnUse" x1="664.7007" y1="957.4088" x2="674.6256" y2="957.4088" gradientTransform="matrix(76.1497 -6.2373 3.663 -43.3083 -53349.2383 46164.8477)">
			<stop offset="0" style="stop-color:#66CAE4"/>
			<stop offset="0.511" style="stop-color:#0E86C8"/>
			<stop offset="1" style="stop-color:#094D9D"/>
		</linearGradient>
		
			<polygon style="clip-path:url(#SVGID_00000051357894975743590010000013432610249016627639_);fill:url(#SVGID_00000033334407161701336450000004937581660937976760_);" points="    963.43,487.93 1078.66,478.49 1069.83,582.87 954.6,592.31   "/>
	</g>
	<g>
		<defs>
			<path id="SVGID_00000153676549005901983920000017920118623317468556_" d="M963.43,464.83v63.57l84.62-51.67     c-1.06-0.46-2.12-0.91-3.11-1.43l-39.15-20.52l64.04-39.1v-14.74L963.43,464.83z"/>
		</defs>
		<clipPath id="SVGID_00000079458733277939230220000013739591268406181048_">
			<use xlink:href="#SVGID_00000153676549005901983920000017920118623317468556_" style="overflow:visible;"/>
		</clipPath>
		
			<linearGradient id="SVGID_00000137093893707313626480000009004837844699219841_" gradientUnits="userSpaceOnUse" x1="664.7007" y1="958.886" x2="674.6256" y2="958.886" gradientTransform="matrix(76.1506 -6.2373 3.6631 -43.3088 -53349.2852 46158.168)">
			<stop offset="0" style="stop-color:#66CAE4"/>
			<stop offset="0.511" style="stop-color:#0E86C8"/>
			<stop offset="1" style="stop-color:#094D9D"/>
		</linearGradient>
		
			<polygon style="clip-path:url(#SVGID_00000079458733277939230220000013739591268406181048_);fill:url(#SVGID_00000137093893707313626480000009004837844699219841_);" points="    963.43,400.95 1081.43,391.28 1069.83,528.4 951.84,538.07   "/>
	</g>
	<g>
		<defs>
			<path id="SVGID_00000125577511471615494600000000672574753238129301_" d="M914.39,472.07l-85.58,52.26l71.31,42.73l42.63-26.02     v-30.2v-10.16v-34.02C933.73,469.84,923.94,471.65,914.39,472.07"/>
		</defs>
		<clipPath id="SVGID_00000026857338509108280430000015433253188423287701_">
			<use xlink:href="#SVGID_00000125577511471615494600000000672574753238129301_" style="overflow:visible;"/>
		</clipPath>
		
			<linearGradient id="SVGID_00000129924251648614339110000004566652654482411706_" gradientUnits="userSpaceOnUse" x1="645.7183" y1="954.8102" x2="655.6432" y2="954.8102" gradientTransform="matrix(-5.2459 -11.5138 -11.5138 5.2459 15297.5576 3010.4219)">
			<stop offset="0" style="stop-color:#66CAE4"/>
			<stop offset="0.511" style="stop-color:#0E86C8"/>
			<stop offset="1" style="stop-color:#094D9D"/>
		</linearGradient>
		
			<polygon style="clip-path:url(#SVGID_00000026857338509108280430000015433253188423287701_);fill:url(#SVGID_00000129924251648614339110000004566652654482411706_);" points="    848.4,610.05 790.93,483.91 923.16,423.66 980.63,549.8   "/>
	</g>
	<g>
		<defs>
			<path id="SVGID_00000174591190912794771380000016245018201857842611_" d="M1005.79,454.79l39.15,20.52     c0.98,0.52,2.04,0.97,3.11,1.43l21.78-13.3v-47.75L1005.79,454.79z"/>
		</defs>
		<clipPath id="SVGID_00000037656829663415581470000001748503148459202688_">
			<use xlink:href="#SVGID_00000174591190912794771380000016245018201857842611_" style="overflow:visible;"/>
		</clipPath>
		
			<linearGradient id="SVGID_00000079478681384593784210000000142716282434283702_" gradientUnits="userSpaceOnUse" x1="664.7008" y1="959.2398" x2="674.6257" y2="959.2398" gradientTransform="matrix(76.1483 -6.2372 3.663 -43.3075 -53347.5352 46155.2734)">
			<stop offset="0" style="stop-color:#66CAE4"/>
			<stop offset="0.511" style="stop-color:#0E86C8"/>
			<stop offset="1" style="stop-color:#094D9D"/>
		</linearGradient>
		
			<polygon style="clip-path:url(#SVGID_00000037656829663415581470000001748503148459202688_);fill:url(#SVGID_00000079478681384593784210000000142716282434283702_);" points="    1005.79,415.69 1075.47,409.98 1069.83,476.73 1000.15,482.44   "/>
	</g>
	<g>
		<defs>
			<path id="SVGID_00000109727485857978602960000017080783272226261936_" d="M914.39,472.07c9.55-0.42,19.33-2.23,28.36-5.42v-1.79     l-8.36-5L914.39,472.07z"/>
		</defs>
		<clipPath id="SVGID_00000031900781862737019660000008668702117847240341_">
			<use xlink:href="#SVGID_00000109727485857978602960000017080783272226261936_" style="overflow:visible;"/>
		</clipPath>
		
			<linearGradient id="SVGID_00000106841662545959369680000012935690334450182034_" gradientUnits="userSpaceOnUse" x1="664.7007" y1="959.009" x2="674.6257" y2="959.009" gradientTransform="matrix(76.1489 -6.2372 3.663 -43.3078 -53348.0391 46156.5273)">
			<stop offset="0" style="stop-color:#66CAE4"/>
			<stop offset="0.511" style="stop-color:#0E86C8"/>
			<stop offset="1" style="stop-color:#094D9D"/>
		</linearGradient>
		
			<polygon style="clip-path:url(#SVGID_00000031900781862737019660000008668702117847240341_);fill:url(#SVGID_00000106841662545959369680000012935690334450182034_);" points="    914.39,459.86 943.99,457.44 942.75,472.07 913.16,474.49   "/>
	</g>
	<g>
		<g>
			<path class="st0" d="M658.71,803.64v-42.71h27.98v4.74h-22.67v13.77h22.22v4.74h-22.22v19.46H658.71z"/>
			<path class="st0" d="M737.27,803.64l-3.78-9.54h-21.26l-3.78,9.54h-6.08l17.22-42.71h6.59l17.16,42.71H737.27z M722.87,766.38     l-9.03,23.05h18.12L722.87,766.38z"/>
			<path class="st0" d="M759.17,797.62l3.2-4.1c2.75,3.2,7.36,6.15,13.38,6.15c7.62,0,10.05-4.1,10.05-7.43     c0-11.01-25.29-4.87-25.29-20.1c0-7.05,6.28-11.91,14.73-11.91c6.47,0,11.53,2.24,15.11,6.02l-3.2,3.9     c-3.2-3.59-7.68-5.12-12.36-5.12c-5.06,0-8.77,2.75-8.77,6.79c0,9.61,25.29,4.1,25.29,20.04c0,6.15-4.23,12.55-15.75,12.55     C768.2,804.41,762.69,801.59,759.17,797.62z"/>
			<path class="st0" d="M822.62,803.64v-37.97h-13.51v-4.74h32.4v4.74h-13.57v37.97H822.62z"/>
			<path class="st0" d="M890.75,803.64v-42.71h14.6c13.32,0,21.9,9.28,21.9,21.39c0,12.17-8.58,21.32-21.9,21.32H890.75z      M921.74,782.32c0-9.22-5.83-16.65-16.39-16.65h-9.28v33.23h9.28C915.72,798.9,921.74,791.47,921.74,782.32z"/>
			<path class="st0" d="M948.38,803.64v-42.71h27.98v4.74h-22.67v13.77h22.22v4.74h-22.22v14.73h22.67v4.74H948.38z"/>
			<path class="st0" d="M996.91,803.64v-42.71h5.32v37.97h19.85v4.74H996.91z"/>
			<path class="st0" d="M1041.99,803.64v-42.71h5.31v42.71H1041.99z"/>
			<path class="st0" d="M1082.9,803.64l-17.22-42.71h6.08l14.41,36.88l14.41-36.88h6.08l-17.16,42.71H1082.9z"/>
			<path class="st0" d="M1125.04,803.64v-42.71h27.98v4.74h-22.67v13.77h22.22v4.74h-22.22v14.73h22.67v4.74H1125.04z"/>
			<path class="st0" d="M1198.99,803.64l-10.82-16.97h-8.58v16.97h-5.31v-42.71h17.16c7.81,0,13.45,4.99,13.45,12.87     c0,7.68-5.32,11.91-11.14,12.42l11.53,17.42H1198.99z M1199.38,773.8c0-4.87-3.52-8.13-8.58-8.13h-11.21V782h11.21     C1195.85,782,1199.38,778.6,1199.38,773.8z"/>
			<path class="st0" d="M1238.5,803.64v-18.06l-16.84-24.65h6.21l13.25,19.85l13.25-19.85h6.21l-16.78,24.65v18.06H1238.5z"/>
		</g>
	</g>
</g>
</svg>