<?xml version="1.0" encoding="UTF-8" standalone="no"?>
<svg
   version="1.1"
   id="Layer_1"
   x="0px"
   y="0px"
   xml:space="preserve"
   viewBox="649.19 222.05 105 30.000001"
   sodipodi:docname="packupp-logo.svg"
   width="105"
   height="30"
   inkscape:version="1.2.2 (b0a8486541, 2022-12-01, custom)"
   xmlns:inkscape="http://www.inkscape.org/namespaces/inkscape"
   xmlns:sodipodi="http://sodipodi.sourceforge.net/DTD/sodipodi-0.dtd"
   xmlns:xlink="http://www.w3.org/1999/xlink"
   xmlns="http://www.w3.org/2000/svg"
   xmlns:svg="http://www.w3.org/2000/svg"><defs
   id="defs268">
	
	
	
	
	
	
	
	
	
	
	
	
	
	
	
	
	
	
	
	
	
</defs><sodipodi:namedview
   id="namedview266"
   pagecolor="#ffffff"
   bordercolor="#666666"
   borderopacity="1.0"
   inkscape:showpageshadow="2"
   inkscape:pageopacity="0.0"
   inkscape:pagecheckerboard="0"
   inkscape:deskcolor="#d1d1d1"
   showgrid="false"
   inkscape:zoom="5.8383132"
   inkscape:cx="86.668868"
   inkscape:cy="32.11544"
   inkscape:window-width="1848"
   inkscape:window-height="1016"
   inkscape:window-x="72"
   inkscape:window-y="27"
   inkscape:window-maximized="1"
   inkscape:current-layer="Layer_1" />
<style
   type="text/css"
   id="style2">
	.st0{fill:#0E86C8;}
	.st1{fill:#FFCC03;}
	
		.st2{clip-path:url(#SVGID_00000144321308012731566830000008389787881813641401_);fill:url(#SVGID_00000024712237295284495130000017123298631306539186_);}
	
		.st3{clip-path:url(#SVGID_00000076580284585615293980000006228622345003490488_);fill:url(#SVGID_00000139267990213616805720000006090084053708210605_);}
	
		.st4{clip-path:url(#SVGID_00000042733871526115282830000006731208393035457170_);fill:url(#SVGID_00000078725438273238137860000001147361677030464659_);}
	
		.st5{clip-path:url(#SVGID_00000050638795462065430220000009058526259237869491_);fill:url(#SVGID_00000117649695216720616370000003756520844578228116_);}
	
		.st6{clip-path:url(#SVGID_00000172406403844944854390000002966284558217666437_);fill:url(#SVGID_00000131332554968082806950000012505350479443916433_);}
	
		.st7{clip-path:url(#SVGID_00000102542782103205271020000015794713670843642256_);fill:url(#SVGID_00000051371831471027077340000003163839581135232430_);}
	
		.st8{clip-path:url(#SVGID_00000062175106281799539460000007577469314476230842_);fill:url(#SVGID_00000147924313128168320890000012386085904794116481_);}
	
		.st9{clip-path:url(#SVGID_00000164482674574133415090000008292912982143226761_);fill:url(#SVGID_00000121979256021321997660000003833718380678929024_);}
	
		.st10{clip-path:url(#SVGID_00000004520858773781133340000014828400399124092800_);fill:url(#SVGID_00000038412867056619310060000000949942190246940337_);}
	
		.st11{clip-path:url(#SVGID_00000164492812378203391120000014653813956100801178_);fill:url(#SVGID_00000106105955548012361180000016652697240295648917_);}
	
		.st12{clip-path:url(#SVGID_00000065037935992169804750000001713406159330219160_);fill:url(#SVGID_00000144300788728997812940000004890522109105361323_);}
	
		.st13{clip-path:url(#SVGID_00000016040075910330102610000013214275696948222355_);fill:url(#SVGID_00000168083561823265277370000017512936868189649297_);}
	
		.st14{clip-path:url(#SVGID_00000110434227322326453120000000485816709161113771_);fill:url(#SVGID_00000068661680357592761820000016000237174878699950_);}
</style>
<path
   class="st0"
   d="m 686.74626,237.05611 v -9.64323 h 3.87483 c 0.48171,0 0.91127,0.0789 1.28643,0.23086 0.37517,0.15428 0.6915,0.36406 0.9479,0.63045 0.25528,0.26418 0.44953,0.57273 0.58494,0.92458 0.13431,0.35298 0.20312,0.72591 0.20312,1.11995 0,0.39513 -0.0688,0.7692 -0.20312,1.12104 -0.13541,0.35187 -0.33298,0.66042 -0.59271,0.92459 -0.25973,0.26528 -0.57829,0.47506 -0.95344,0.63045 -0.37628,0.15207 -0.80028,0.22976 -1.27201,0.22976 h -2.67497 v 3.83155 z m 3.72832,-4.90154 c 0.57828,0 1.04446,-0.1676 1.39632,-0.50613 0.35074,-0.33854 0.52612,-0.78141 0.52612,-1.33083 0,-0.54943 -0.17649,-0.9923 -0.52612,-1.32973 -0.35296,-0.33853 -0.81804,-0.50612 -1.39632,-0.50612 h -2.52957 v 3.6717 h 2.52957 z"
   id="path4"
   style="stroke-width:0.110994" /><path
   class="st0"
   d="m 701.8671,237.05611 -0.85133,-2.13887 h -4.80054 l -0.85244,2.13887 h -1.37301 l 3.87372,-9.64323 h 1.48956 l 3.88926,9.64323 z m -3.25105,-8.40121 -2.0534,5.19123 h 4.09127 z"
   id="path6"
   style="stroke-width:0.110994" /><path
   class="st0"
   d="m 709.40032,237.22925 c -0.69372,0 -1.34304,-0.11987 -1.94575,-0.36072 -0.60159,-0.24086 -1.12659,-0.58051 -1.5739,-1.02004 -0.44953,-0.43733 -0.80139,-0.96233 -1.05667,-1.57502 -0.25529,-0.61159 -0.38182,-1.28866 -0.38182,-2.03121 0,-0.74255 0.12653,-1.4174 0.38182,-2.0301 0.25528,-0.61269 0.60714,-1.1377 1.05667,-1.57613 0.44731,-0.43843 0.97231,-0.77918 1.5739,-1.02004 0.60271,-0.23975 1.25092,-0.36184 1.94575,-0.36184 0.424,0 0.81581,0.0488 1.17765,0.1454 0.36184,0.0966 0.69372,0.23087 0.99895,0.40402 0.30302,0.17426 0.57717,0.37517 0.82358,0.60714 0.2442,0.23199 0.46396,0.48283 0.65709,0.75255 l -1.01227,0.56274 c -0.27859,-0.40401 -0.65154,-0.73812 -1.11882,-1.00449 -0.4684,-0.26418 -0.97676,-0.39626 -1.52618,-0.39626 -0.52945,0 -1.02226,0.0954 -1.47513,0.2897 -0.45287,0.19313 -0.84467,0.46173 -1.17765,0.80804 -0.33299,0.34741 -0.59271,0.76031 -0.7814,1.23649 -0.18869,0.47838 -0.28082,1.00449 -0.28082,1.58278 0,0.5694 0.0921,1.0944 0.28082,1.57612 0.18869,0.48283 0.44841,0.89573 0.7814,1.24315 0.33298,0.34742 0.72478,0.61824 1.17765,0.81026 0.45287,0.19202 0.94568,0.28858 1.47513,0.28858 0.54831,0 1.05778,-0.12986 1.52618,-0.39069 0.46839,-0.25974 0.84023,-0.59716 1.11882,-1.01117 l 1.02671,0.56386 c -0.40403,0.54942 -0.90239,1.00449 -1.49511,1.36635 -0.59382,0.35962 -1.31972,0.54053 -2.1766,0.54053"
   id="path8"
   style="stroke-width:0.110994" /><polygon
   class="st0"
   points="927.88,674.26 966.31,629.33 979.86,629.33 943.64,670.62 982.99,716.21 969.57,716.21 936.62,677.13 927.88,687.04 927.88,716.21 917.08,716.21 917.08,629.33 927.88,629.33 "
   id="polygon10"
   transform="matrix(0.11099487,0,0,0.11099487,613.68166,157.56046)" /><path
   class="st1"
   d="m 729.21512,237.22925 c -0.73478,0 -1.37411,-0.0987 -1.9191,-0.29746 -0.54498,-0.19757 -0.99895,-0.47173 -1.36302,-0.82358 -0.36184,-0.35074 -0.63267,-0.77253 -0.81026,-1.26423 -0.17759,-0.4906 -0.26638,-1.03558 -0.26638,-1.63273 v -5.79727 h 2.08225 v 5.72512 c 0,0.67373 0.1887,1.22204 0.56942,1.64051 0.38181,0.41955 0.949,0.62934 1.69821,0.62934 0.75366,0 1.3164,-0.20979 1.69157,-0.62934 0.37515,-0.41847 0.56385,-0.96566 0.56385,-1.64051 v -5.72512 h 2.11112 v 5.78283 c 0,0.59826 -0.0888,1.14436 -0.2675,1.64162 -0.17869,0.49725 -0.44952,0.92348 -0.81026,1.27866 -0.36407,0.35741 -0.81581,0.63266 -1.36191,0.82358 -0.5472,0.19202 -1.18543,0.28858 -1.91799,0.28858"
   id="path12"
   style="stroke-width:0.110994" /><path
   class="st1"
   d="m 736.3188,237.05611 v -9.64323 h 4.5197 c 0.51946,0 0.98342,0.0822 1.39077,0.24641 0.40514,0.16315 0.74589,0.38625 1.02115,0.6704 0.27416,0.28526 0.48283,0.61491 0.62379,0.99006 0.13986,0.37518 0.20867,0.77697 0.20867,1.19987 0,0.42511 -0.0721,0.82358 -0.21755,1.20097 -0.1454,0.37515 -0.35518,0.7037 -0.63045,0.9834 -0.27526,0.27861 -0.6138,0.50393 -1.01449,0.67042 -0.40069,0.16871 -0.86132,0.25417 -1.3841,0.25417 h -2.46409 v 3.42641 h -2.0534 z m 4.23667,-5.23341 c 0.40402,0 0.74255,-0.11544 1.01227,-0.34741 0.26861,-0.22977 0.40402,-0.54832 0.40402,-0.95457 0,-0.404 -0.13541,-0.72256 -0.40402,-0.95344 -0.26972,-0.23197 -0.60825,-0.34741 -1.01227,-0.34741 h -2.18327 v 2.60171 h 2.18327 z"
   id="path14"
   style="stroke-width:0.110994" /><path
   class="st1"
   d="m 746.20733,237.05611 v -9.64323 h 4.5186 c 0.52056,0 0.98453,0.0822 1.39187,0.24641 0.40514,0.16315 0.74478,0.38625 1.02005,0.6704 0.27415,0.28526 0.48394,0.61491 0.62379,0.99006 0.13985,0.37518 0.20978,0.77697 0.20978,1.19987 0,0.42511 -0.0733,0.82358 -0.21754,1.20097 -0.14542,0.37515 -0.3552,0.7037 -0.63047,0.9834 -0.27526,0.27861 -0.6149,0.50393 -1.01448,0.67042 -0.40181,0.16871 -0.86244,0.25417 -1.38522,0.25417 h -2.46298 v 3.42641 h -2.0534 z m 4.23556,-5.23341 c 0.40402,0 0.74255,-0.11544 1.01228,-0.34741 0.2686,-0.22977 0.40402,-0.54832 0.40402,-0.95457 0,-0.404 -0.13542,-0.72256 -0.40402,-0.95344 -0.26973,-0.23197 -0.60826,-0.34741 -1.01228,-0.34741 h -2.18216 v 2.60171 h 2.18216 z"
   id="path16"
   style="stroke-width:0.110994" /><g
   id="g33"
   transform="matrix(0.09982739,0,0,0.09982739,575.55432,192.55585)">
		<defs
   id="defs19">
			<polygon
   id="SVGID_1_"
   points="979.62,582.87 963.43,574.4 963.43,592.6 " />
		</defs>
		<clipPath
   id="SVGID_00000036943123002451654210000006254360280970162085_">
			<use
   xlink:href="#SVGID_1_"
   style="overflow:visible"
   id="use21" />
		</clipPath>
		
			<linearGradient
   id="SVGID_00000034066637922013692940000018312954931142423196_"
   gradientUnits="userSpaceOnUse"
   x1="639.63647"
   y1="928.06812"
   x2="649.56152"
   y2="928.06812"
   gradientTransform="matrix(0.9585,-7.1887,-7.1887,-0.9585,7025.6201,6104.6396)">
			<stop
   offset="0"
   style="stop-color:#66CAE4"
   id="stop24" />
			<stop
   offset="0.511"
   style="stop-color:#0E86C8"
   id="stop26" />
			<stop
   offset="1"
   style="stop-color:#094D9D"
   id="stop28" />
		</linearGradient>
		
			<polygon
   style="fill:url(#SVGID_00000034066637922013692940000018312954931142423196_)"
   points="961.05,592.28 963.72,572.27 982,574.71 979.34,594.72 "
   clip-path="url(#SVGID_00000036943123002451654210000006254360280970162085_)"
   id="polygon31" />
	</g><g
   id="g50"
   transform="matrix(0.09982739,0,0,0.09982739,575.55432,192.55585)">
		<defs
   id="defs36">
			<path
   id="SVGID_00000122703963076108459060000015007115477716714424_"
   d="m 963.43,528.4 v 24.49 l 106.4,-64.96 v -6.32 c -7.96,-0.54 -15.43,-2.13 -21.78,-4.87 z" />
		</defs>
		<clipPath
   id="SVGID_00000149378177074060908760000009995481105457254280_">
			<use
   xlink:href="#SVGID_00000122703963076108459060000015007115477716714424_"
   style="overflow:visible"
   id="use38" />
		</clipPath>
		
			<linearGradient
   id="SVGID_00000129924740806503008500000013294233632158196359_"
   gradientUnits="userSpaceOnUse"
   x1="680.2392"
   y1="969.07922"
   x2="690.16412"
   y2="969.07922"
   gradientTransform="matrix(8.7215,8.55,8.55,-8.7215,-13254.247,3099.0046)">
			<stop
   offset="0"
   style="stop-color:#66CAE4"
   id="stop41" />
			<stop
   offset="0.511"
   style="stop-color:#0E86C8"
   id="stop43" />
			<stop
   offset="1"
   style="stop-color:#094D9D"
   id="stop45" />
		</linearGradient>
		
			<polygon
   style="fill:url(#SVGID_00000129924740806503008500000013294233632158196359_)"
   points="1015.57,423.55 1107.9,514.05 1017.69,606.08 925.36,515.57 "
   clip-path="url(#SVGID_00000149378177074060908760000009995481105457254280_)"
   id="polygon48" />
	</g><g
   id="g65"
   transform="matrix(0.09982739,0,0,0.09982739,575.55432,192.55585)">
		<defs
   id="defs53">
			<path
   id="SVGID_00000111893057100121077560000015756764158549902763_"
   d="m 737.63,360.36 c 0,9.59 7.79,22.03 17.38,27.78 l 77.43,46.41 c 2.16,1.3 3.91,4.11 3.91,6.27 v 2.32 c 0,2.16 -1.75,2.87 -3.91,1.57 l -66.3,-39.73 v 18.43 c 0,9.6 7.77,22.04 17.36,27.78 l 48.94,29.34 c 2.16,1.3 3.91,4.11 3.91,6.27 v 2.31 c 0,2.17 -1.75,2.87 -3.91,1.57 l -37.8,-22.65 v 18.43 c 0,9.6 7.77,22.04 17.37,27.79 l 16.8,10.07 85.58,-52.26 c -13.05,0.57 -25.63,-1.47 -35.05,-6.41 L 840.2,445.13 874.7,424.06 737.64,341.91 v 18.45 z" />
		</defs>
		<clipPath
   id="SVGID_00000175293911931365012870000013553089571973026187_">
			<use
   xlink:href="#SVGID_00000111893057100121077560000015756764158549902763_"
   style="overflow:visible"
   id="use55" />
		</clipPath>
		
			<linearGradient
   id="SVGID_00000161628318414795105380000005387269720267231133_"
   gradientUnits="userSpaceOnUse"
   x1="645.57739"
   y1="956.04968"
   x2="655.50232"
   y2="956.04968"
   gradientTransform="matrix(-5.4163,-6.9492,-6.9492,5.4163,11018.714,-191.7927)">
			<stop
   offset="0"
   style="stop-color:#FFF6AF"
   id="stop58" />
			<stop
   offset="1"
   style="stop-color:#FFCB04"
   id="stop60" />
		</linearGradient>
		
			<polygon
   style="fill:url(#SVGID_00000161628318414795105380000005387269720267231133_)"
   points="804.43,610.04 649.19,410.86 847.59,256.22 1002.84,455.4 "
   clip-path="url(#SVGID_00000175293911931365012870000013553089571973026187_)"
   id="polygon63" />
	</g><g
   id="g82"
   transform="matrix(0.09982739,0,0,0.09982739,575.55432,192.55585)">
		<defs
   id="defs68">
			<polygon
   id="SVGID_00000173876240894503234510000004744979866212345750_"
   points="942.75,592.63 942.75,556.81 942.75,546.64 942.75,541.04 900.12,567.06 " />
		</defs>
		<clipPath
   id="SVGID_00000169529539261825599890000011385587515160088458_">
			<use
   xlink:href="#SVGID_00000173876240894503234510000004744979866212345750_"
   style="overflow:visible"
   id="use70" />
		</clipPath>
		
			<linearGradient
   id="SVGID_00000132083240463927878320000015553205062291089313_"
   gradientUnits="userSpaceOnUse"
   x1="640.99152"
   y1="953.34497"
   x2="650.91638"
   y2="953.34497"
   gradientTransform="matrix(-4.7925,-9.9684,-9.9684,4.7925,13513.134,2421.8008)">
			<stop
   offset="0"
   style="stop-color:#66CAE4"
   id="stop73" />
			<stop
   offset="0.511"
   style="stop-color:#0E86C8"
   id="stop75" />
			<stop
   offset="1"
   style="stop-color:#094D9D"
   id="stop77" />
		</linearGradient>
		
			<polygon
   style="fill:url(#SVGID_00000132083240463927878320000015553205062291089313_)"
   points="908.12,609.27 879.98,550.72 934.75,524.39 962.9,582.94 "
   clip-path="url(#SVGID_00000169529539261825599890000011385587515160088458_)"
   id="polygon80" />
	</g><g
   id="g99"
   transform="matrix(0.09982739,0,0,0.09982739,575.55432,192.55585)">
		<defs
   id="defs85">
			<polygon
   id="SVGID_00000043428505518389210670000000422011275446872227_"
   points="844.79,381.74 895.33,411.49 1000.72,347.12 918.17,300 931.42,329.15 " />
		</defs>
		<clipPath
   id="SVGID_00000112591626726785372330000010392159719617855160_">
			<use
   xlink:href="#SVGID_00000043428505518389210670000000422011275446872227_"
   style="overflow:visible"
   id="use87" />
		</clipPath>
		
			<linearGradient
   id="SVGID_00000096046929064041163800000002140440505428964786_"
   gradientUnits="userSpaceOnUse"
   x1="668.04572"
   y1="969.80829"
   x2="677.97058"
   y2="969.80829"
   gradientTransform="matrix(11.5259,11.2993,11.2993,-11.5259,-17766.064,3954.9849)">
			<stop
   offset="0"
   style="stop-color:#66CAE4"
   id="stop90" />
			<stop
   offset="0.511"
   style="stop-color:#0E86C8"
   id="stop92" />
			<stop
   offset="1"
   style="stop-color:#094D9D"
   id="stop94" />
		</linearGradient>
		
			<polygon
   style="fill:url(#SVGID_00000096046929064041163800000002140440505428964786_)"
   points="921.21,222.05 1056.45,354.64 924.3,489.44 789.06,356.85 "
   clip-path="url(#SVGID_00000112591626726785372330000010392159719617855160_)"
   id="polygon97" />
	</g><g
   id="g116"
   transform="matrix(0.09982739,0,0,0.09982739,575.55432,192.55585)">
		<defs
   id="defs102">
			<path
   id="SVGID_00000147196304846525165690000016987571979872895896_"
   d="m 1048.05,476.73 c 6.34,2.74 13.82,4.34 21.78,4.87 v -18.17 z" />
		</defs>
		<clipPath
   id="SVGID_00000081632583235260451250000007172609011028455823_">
			<use
   xlink:href="#SVGID_00000147196304846525165690000016987571979872895896_"
   style="overflow:visible"
   id="use104" />
		</clipPath>
		
			<linearGradient
   id="SVGID_00000049220511830422894770000013544968227496588675_"
   gradientUnits="userSpaceOnUse"
   x1="665.31952"
   y1="958.65149"
   x2="675.24438"
   y2="958.65149"
   gradientTransform="matrix(76.1479,-6.2371,3.663,-43.3072,-53342.145,46157.309)">
			<stop
   offset="0"
   style="stop-color:#66CAE4"
   id="stop107" />
			<stop
   offset="0.511"
   style="stop-color:#0E86C8"
   id="stop109" />
			<stop
   offset="1"
   style="stop-color:#094D9D"
   id="stop111" />
		</linearGradient>
		
			<polygon
   style="fill:url(#SVGID_00000049220511830422894770000013544968227496588675_)"
   points="1048.05,463.43 1071.53,461.51 1069.83,481.61 1046.35,483.53 "
   clip-path="url(#SVGID_00000081632583235260451250000007172609011028455823_)"
   id="polygon114" />
	</g><g
   id="g131"
   transform="matrix(0.09982739,0,0,0.09982739,575.55432,192.55585)">
		<defs
   id="defs119">
			<path
   id="SVGID_00000001660673254559131600000001426817131345342380_"
   d="m 840.19,445.14 39.14,20.52 c 9.43,4.94 22,6.98 35.05,6.41 l 20,-12.21 -59.7,-35.79 z" />
		</defs>
		<clipPath
   id="SVGID_00000135680070222529298300000003012491369502537908_">
			<use
   xlink:href="#SVGID_00000001660673254559131600000001426817131345342380_"
   style="overflow:visible"
   id="use121" />
		</clipPath>
		
			<linearGradient
   id="SVGID_00000002371404668330050750000000086676210857505938_"
   gradientUnits="userSpaceOnUse"
   x1="661.86517"
   y1="940.80792"
   x2="671.7901"
   y2="940.80792"
   gradientTransform="matrix(2.8614,-6.9492,-6.9492,-2.8614,5523.2124,7759.3228)">
			<stop
   offset="8.073434e-08"
   style="stop-color:#FFF6AF"
   id="stop124" />
			<stop
   offset="1"
   style="stop-color:#FFCB04"
   id="stop126" />
		</linearGradient>
		
			<polygon
   style="fill:url(#SVGID_00000002371404668330050750000000086676210857505938_)"
   points="823.1,465.6 853.85,390.91 951.49,431.11 920.74,505.8 "
   clip-path="url(#SVGID_00000135680070222529298300000003012491369502537908_)"
   id="polygon129" />
	</g><g
   id="g148"
   transform="matrix(0.09982739,0,0,0.09982739,575.55432,192.55585)">
		<defs
   id="defs134">
			<polygon
   id="SVGID_00000071537451502057140010000001939203868320256391_"
   points="895.33,411.49 953.1,445.48 1061.39,381.74 1000.72,347.12 " />
		</defs>
		<clipPath
   id="SVGID_00000132783184143240864420000002467434631688596357_">
			<use
   xlink:href="#SVGID_00000071537451502057140010000001939203868320256391_"
   style="overflow:visible"
   id="use136" />
		</clipPath>
		
			<linearGradient
   id="SVGID_00000070814212150505400900000013096103117744808881_"
   gradientUnits="userSpaceOnUse"
   x1="656.41931"
   y1="949.36987"
   x2="666.34418"
   y2="949.36987"
   gradientTransform="matrix(-2.8614,-18.6675,-18.6675,2.8614,20596.021,10044.554)">
			<stop
   offset="0"
   style="stop-color:#66CAE4"
   id="stop139" />
			<stop
   offset="0.511"
   style="stop-color:#0E86C8"
   id="stop141" />
			<stop
   offset="1"
   style="stop-color:#094D9D"
   id="stop143" />
		</linearGradient>
		
			<polygon
   style="fill:url(#SVGID_00000070814212150505400900000013096103117744808881_)"
   points="899.14,470.35 880.6,349.38 1057.58,322.25 1076.12,443.22 "
   clip-path="url(#SVGID_00000132783184143240864420000002467434631688596357_)"
   id="polygon146" />
	</g><g
   id="g165"
   transform="matrix(0.09982739,0,0,0.09982739,575.55432,192.55585)">
		<defs
   id="defs151">
			<polygon
   id="SVGID_00000067220249136317924780000010476882374223402632_"
   points="963.43,574.4 979.62,582.87 1069.83,528.72 1069.83,487.93 963.43,552.89 " />
		</defs>
		<clipPath
   id="SVGID_00000051357894975743590010000013432610249016627639_">
			<use
   xlink:href="#SVGID_00000067220249136317924780000010476882374223402632_"
   style="overflow:visible"
   id="use153" />
		</clipPath>
		
			<linearGradient
   id="SVGID_00000033334407161701336450000004937581660937976760_"
   gradientUnits="userSpaceOnUse"
   x1="664.70068"
   y1="957.40881"
   x2="674.62561"
   y2="957.40881"
   gradientTransform="matrix(76.1497,-6.2373,3.663,-43.3083,-53349.238,46164.848)">
			<stop
   offset="0"
   style="stop-color:#66CAE4"
   id="stop156" />
			<stop
   offset="0.511"
   style="stop-color:#0E86C8"
   id="stop158" />
			<stop
   offset="1"
   style="stop-color:#094D9D"
   id="stop160" />
		</linearGradient>
		
			<polygon
   style="fill:url(#SVGID_00000033334407161701336450000004937581660937976760_)"
   points="963.43,487.93 1078.66,478.49 1069.83,582.87 954.6,592.31 "
   clip-path="url(#SVGID_00000051357894975743590010000013432610249016627639_)"
   id="polygon163" />
	</g><g
   id="g182"
   transform="matrix(0.09982739,0,0,0.09982739,575.55432,192.55585)">
		<defs
   id="defs168">
			<path
   id="SVGID_00000153676549005901983920000017920118623317468556_"
   d="m 963.43,464.83 v 63.57 l 84.62,-51.67 c -1.06,-0.46 -2.12,-0.91 -3.11,-1.43 l -39.15,-20.52 64.04,-39.1 v -14.74 z" />
		</defs>
		<clipPath
   id="SVGID_00000079458733277939230220000013739591268406181048_">
			<use
   xlink:href="#SVGID_00000153676549005901983920000017920118623317468556_"
   style="overflow:visible"
   id="use170" />
		</clipPath>
		
			<linearGradient
   id="SVGID_00000137093893707313626480000009004837844699219841_"
   gradientUnits="userSpaceOnUse"
   x1="664.70068"
   y1="958.88599"
   x2="674.62561"
   y2="958.88599"
   gradientTransform="matrix(76.1506,-6.2373,3.6631,-43.3088,-53349.285,46158.168)">
			<stop
   offset="0"
   style="stop-color:#66CAE4"
   id="stop173" />
			<stop
   offset="0.511"
   style="stop-color:#0E86C8"
   id="stop175" />
			<stop
   offset="1"
   style="stop-color:#094D9D"
   id="stop177" />
		</linearGradient>
		
			<polygon
   style="fill:url(#SVGID_00000137093893707313626480000009004837844699219841_)"
   points="963.43,400.95 1081.43,391.28 1069.83,528.4 951.84,538.07 "
   clip-path="url(#SVGID_00000079458733277939230220000013739591268406181048_)"
   id="polygon180" />
	</g><g
   id="g199"
   transform="matrix(0.09982739,0,0,0.09982739,575.55432,192.55585)">
		<defs
   id="defs185">
			<path
   id="SVGID_00000125577511471615494600000000672574753238129301_"
   d="m 914.39,472.07 -85.58,52.26 71.31,42.73 42.63,-26.02 v -30.2 -10.16 -34.02 c -9.02,3.18 -18.81,4.99 -28.36,5.41" />
		</defs>
		<clipPath
   id="SVGID_00000026857338509108280430000015433253188423287701_">
			<use
   xlink:href="#SVGID_00000125577511471615494600000000672574753238129301_"
   style="overflow:visible"
   id="use187" />
		</clipPath>
		
			<linearGradient
   id="SVGID_00000129924251648614339110000004566652654482411706_"
   gradientUnits="userSpaceOnUse"
   x1="645.71832"
   y1="954.81018"
   x2="655.64319"
   y2="954.81018"
   gradientTransform="matrix(-5.2459,-11.5138,-11.5138,5.2459,15297.558,3010.4219)">
			<stop
   offset="0"
   style="stop-color:#66CAE4"
   id="stop190" />
			<stop
   offset="0.511"
   style="stop-color:#0E86C8"
   id="stop192" />
			<stop
   offset="1"
   style="stop-color:#094D9D"
   id="stop194" />
		</linearGradient>
		
			<polygon
   style="fill:url(#SVGID_00000129924251648614339110000004566652654482411706_)"
   points="848.4,610.05 790.93,483.91 923.16,423.66 980.63,549.8 "
   clip-path="url(#SVGID_00000026857338509108280430000015433253188423287701_)"
   id="polygon197" />
	</g><g
   id="g216"
   transform="matrix(0.09982739,0,0,0.09982739,575.55432,192.55585)">
		<defs
   id="defs202">
			<path
   id="SVGID_00000174591190912794771380000016245018201857842611_"
   d="m 1005.79,454.79 39.15,20.52 c 0.98,0.52 2.04,0.97 3.11,1.43 l 21.78,-13.3 v -47.75 z" />
		</defs>
		<clipPath
   id="SVGID_00000037656829663415581470000001748503148459202688_">
			<use
   xlink:href="#SVGID_00000174591190912794771380000016245018201857842611_"
   style="overflow:visible"
   id="use204" />
		</clipPath>
		
			<linearGradient
   id="SVGID_00000079478681384593784210000000142716282434283702_"
   gradientUnits="userSpaceOnUse"
   x1="664.70081"
   y1="959.23981"
   x2="674.62567"
   y2="959.23981"
   gradientTransform="matrix(76.1483,-6.2372,3.663,-43.3075,-53347.535,46155.273)">
			<stop
   offset="0"
   style="stop-color:#66CAE4"
   id="stop207" />
			<stop
   offset="0.511"
   style="stop-color:#0E86C8"
   id="stop209" />
			<stop
   offset="1"
   style="stop-color:#094D9D"
   id="stop211" />
		</linearGradient>
		
			<polygon
   style="fill:url(#SVGID_00000079478681384593784210000000142716282434283702_)"
   points="1005.79,415.69 1075.47,409.98 1069.83,476.73 1000.15,482.44 "
   clip-path="url(#SVGID_00000037656829663415581470000001748503148459202688_)"
   id="polygon214" />
	</g><g
   id="g233"
   transform="matrix(0.09982739,0,0,0.09982739,575.55432,192.55585)">
		<defs
   id="defs219">
			<path
   id="SVGID_00000109727485857978602960000017080783272226261936_"
   d="m 914.39,472.07 c 9.55,-0.42 19.33,-2.23 28.36,-5.42 v -1.79 l -8.36,-5 z" />
		</defs>
		<clipPath
   id="SVGID_00000031900781862737019660000008668702117847240341_">
			<use
   xlink:href="#SVGID_00000109727485857978602960000017080783272226261936_"
   style="overflow:visible"
   id="use221" />
		</clipPath>
		
			<linearGradient
   id="SVGID_00000106841662545959369680000012935690334450182034_"
   gradientUnits="userSpaceOnUse"
   x1="664.70068"
   y1="959.00897"
   x2="674.62567"
   y2="959.00897"
   gradientTransform="matrix(76.1489,-6.2372,3.663,-43.3078,-53348.039,46156.527)">
			<stop
   offset="0"
   style="stop-color:#66CAE4"
   id="stop224" />
			<stop
   offset="0.511"
   style="stop-color:#0E86C8"
   id="stop226" />
			<stop
   offset="1"
   style="stop-color:#094D9D"
   id="stop228" />
		</linearGradient>
		
			<polygon
   style="fill:url(#SVGID_00000106841662545959369680000012935690334450182034_)"
   points="914.39,459.86 943.99,457.44 942.75,472.07 913.16,474.49 "
   clip-path="url(#SVGID_00000031900781862737019660000008668702117847240341_)"
   id="polygon231" />
	</g><g
   id="g261"
   transform="matrix(0.11099487,0,0,0.11099487,613.68166,157.56046)">
		<g
   id="g259">
			<path
   class="st0"
   d="m 658.71,803.64 v -42.71 h 27.98 v 4.74 h -22.67 v 13.77 h 22.22 v 4.74 h -22.22 v 19.46 z"
   id="path235" />
			<path
   class="st0"
   d="m 737.27,803.64 -3.78,-9.54 h -21.26 l -3.78,9.54 h -6.08 l 17.22,-42.71 h 6.59 l 17.16,42.71 z m -14.4,-37.26 -9.03,23.05 h 18.12 z"
   id="path237" />
			<path
   class="st0"
   d="m 759.17,797.62 3.2,-4.1 c 2.75,3.2 7.36,6.15 13.38,6.15 7.62,0 10.05,-4.1 10.05,-7.43 0,-11.01 -25.29,-4.87 -25.29,-20.1 0,-7.05 6.28,-11.91 14.73,-11.91 6.47,0 11.53,2.24 15.11,6.02 l -3.2,3.9 c -3.2,-3.59 -7.68,-5.12 -12.36,-5.12 -5.06,0 -8.77,2.75 -8.77,6.79 0,9.61 25.29,4.1 25.29,20.04 0,6.15 -4.23,12.55 -15.75,12.55 -7.36,0 -12.87,-2.82 -16.39,-6.79 z"
   id="path239" />
			<path
   class="st0"
   d="m 822.62,803.64 v -37.97 h -13.51 v -4.74 h 32.4 v 4.74 h -13.57 v 37.97 z"
   id="path241" />
			<path
   class="st0"
   d="m 890.75,803.64 v -42.71 h 14.6 c 13.32,0 21.9,9.28 21.9,21.39 0,12.17 -8.58,21.32 -21.9,21.32 z m 30.99,-21.32 c 0,-9.22 -5.83,-16.65 -16.39,-16.65 h -9.28 v 33.23 h 9.28 c 10.37,0 16.39,-7.43 16.39,-16.58 z"
   id="path243" />
			<path
   class="st0"
   d="m 948.38,803.64 v -42.71 h 27.98 v 4.74 h -22.67 v 13.77 h 22.22 v 4.74 h -22.22 v 14.73 h 22.67 v 4.74 h -27.98 z"
   id="path245" />
			<path
   class="st0"
   d="m 996.91,803.64 v -42.71 h 5.32 v 37.97 h 19.85 v 4.74 z"
   id="path247" />
			<path
   class="st0"
   d="m 1041.99,803.64 v -42.71 h 5.31 v 42.71 z"
   id="path249" />
			<path
   class="st0"
   d="m 1082.9,803.64 -17.22,-42.71 h 6.08 l 14.41,36.88 14.41,-36.88 h 6.08 l -17.16,42.71 z"
   id="path251" />
			<path
   class="st0"
   d="m 1125.04,803.64 v -42.71 h 27.98 v 4.74 h -22.67 v 13.77 h 22.22 v 4.74 h -22.22 v 14.73 h 22.67 v 4.74 h -27.98 z"
   id="path253" />
			<path
   class="st0"
   d="m 1198.99,803.64 -10.82,-16.97 h -8.58 v 16.97 h -5.31 v -42.71 h 17.16 c 7.81,0 13.45,4.99 13.45,12.87 0,7.68 -5.32,11.91 -11.14,12.42 l 11.53,17.42 z m 0.39,-29.84 c 0,-4.87 -3.52,-8.13 -8.58,-8.13 h -11.21 V 782 h 11.21 c 5.05,0 8.58,-3.4 8.58,-8.2 z"
   id="path255" />
			<path
   class="st0"
   d="m 1238.5,803.64 v -18.06 l -16.84,-24.65 h 6.21 l 13.25,19.85 13.25,-19.85 h 6.21 l -16.78,24.65 v 18.06 z"
   id="path257" />
		</g>
	</g>
</svg>
