<svg id="Logo" xmlns="http://www.w3.org/2000/svg" viewBox="0 0 432.01 124.09"><defs><style>.cls-1{fill:#0067ff;}.cls-2{fill:#00bb59;}</style></defs><path class="cls-1" d="M348.79,283.9c-2.46-1.26-6.67-2.19-12-2.19-13.14,0-23.42,7-24.93,17.53-.91,6.36,3.38,10.6,8.91,13.52,4.37,2.3,5.78,4.11,5.42,6.61s-2.84,4.54-7.12,4.6c-6.82.08-13.82-4.08-13.82-4.08l-3.71,11.44c4.9,3.24,13.88,4.3,21.1,3.63,8.8-.81,20.2-5.59,19.55-20.4-.26-5.76-5.53-9.4-9.48-11.57-3.89-2-5.73-3.75-5.43-5.84.39-2.71,3.36-4.5,7.32-4.49,6.29,0,10.19,2.39,10.49,2.76Z" transform="translate(-180 -243.95)"/><path class="cls-1" d="M440.14,281.71c-6.79,0-13.57,2.92-19.32,9.6h-.21l2.25-8.45H409.51c-1.27,4.49-2.91,10.12-5.08,16.59l-11.38,34.43h15l7.51-22.64c3.69-11.27,10.31-17.43,15.21-17.43,3.76,0,4.66,2.5,4.15,6.06a38.17,38.17,0,0,1-1.34,5.73l-9.36,28.28h15l9.86-29.64a67.45,67.45,0,0,0,2.07-8.65C452.44,286.82,448.48,281.71,440.14,281.71Z" transform="translate(-180 -243.95)"/><path class="cls-1" d="M503.48,259.8l-7.68,23.06a19.33,19.33,0,0,0-6.82-1.15c-19.3,0-34.45,16.28-37,34-1.77,12.42,4.44,19.31,13.1,19.31,6,0,12.58-2.61,18-9.39h.21l-1.9,8.24H495.2a145.49,145.49,0,0,1,5.22-19.82L518.5,259.8Zm-16.15,48.83c-3.37,9.7-9.35,14.29-13.63,14.29s-6.6-3.44-5.71-9.6c1.39-9.8,9.25-20.24,18.22-20.24a8.91,8.91,0,0,1,5.69,1.78Z" transform="translate(-180 -243.95)"/><path class="cls-1" d="M593.16,281.71c-18.15,0-32.53,14.5-35.07,32.24-1.8,12.63,5.65,21.08,18.59,21.08,17.73,0,32.41-13.67,35.07-32.35C613.41,291.1,606.82,281.71,593.16,281.71Zm3,21.08c-1.26,8.76-7.56,20.76-15.8,20.76-5.21,0-7.57-4-6.72-9.91,1-7.93,7.21-20.56,15.87-20.56C595.6,293.08,596.87,298.09,596.2,302.79Z" transform="translate(-180 -243.95)"/><path class="cls-1" d="M397.39,298.34c.83-6.66-2.88-16.63-15.74-16.63-18.46,0-32,16.18-34.26,31.72-1.89,13.25,4.44,21.49,19.05,21.49a48.85,48.85,0,0,0,18-3.29l4-12.36a36.3,36.3,0,0,1-16.74,4.07c-11.14,0-10.51-7.9-9.81-10.33h30.7A46.36,46.36,0,0,0,397.39,298.34Zm-19.18-5.68c6.33,0,6.7,5.69,5.1,9.81H365C366.88,297.8,371.59,292.66,378.21,292.66Z" transform="translate(-180 -243.95)"/><path class="cls-1" d="M557.17,298.34c.83-6.66-2.87-16.63-15.73-16.63-18.47,0-32.05,16.18-34.27,31.72-1.89,13.25,4.45,21.49,19.05,21.49a48.85,48.85,0,0,0,18-3.29l4-12.36a36.36,36.36,0,0,1-16.75,4.07c-11.14,0-10.5-7.9-9.8-10.33h30.69A46.36,46.36,0,0,0,557.17,298.34ZM538,292.66c6.33,0,6.69,5.69,5.1,9.81H524.78C526.67,297.8,531.38,292.66,538,292.66Z" transform="translate(-180 -243.95)"/><path class="cls-2" d="M258,306.75l0,0c3.06,3.57,9.79,14.41,7.23,24.55-2.66,10.53-12.46,19.08-32.16,22.7-13.94,2.56-31.34,1.45-49.06-3.48L180,362.5c10.93,3.05,34,8.31,59.15,3.78,24.11-4.33,31.77-16.79,33.68-22.31C279.16,325.67,261.69,309.38,258,306.75Z" transform="translate(-180 -243.95)"/><path class="cls-2" d="M228.61,336.33a40.11,40.11,0,0,0,14.37-5.4,18.6,18.6,0,0,0,7.74-9.2c2.41-6.71.2-17.13-11.8-26.17l0,0c1.16,1.51,10.57,14.5-3.3,23.79a30.58,30.58,0,0,1-11.69,4.41c-9,1.74-19.78,1.06-30.48-1.9l-3.95,11.95C203.25,337.66,217.09,338.55,228.61,336.33Z" transform="translate(-180 -243.95)"/><path class="cls-2" d="M233.88,351.31A50.67,50.67,0,0,0,252,344.5c4.88-3.19,8.18-7.1,9.79-11.65,4.72-13.32-6.76-27-13.35-31.74l0,0c2.63,3.15,13.87,19.84-3.8,31.81-4.06,2.74-9.29,4.64-15.41,5.82-12,2.3-26.28,1.4-40.5-2.55l-4,11.95a127,127,0,0,0,25.2,4.38A94,94,0,0,0,233.88,351.31Z" transform="translate(-180 -243.95)"/><path class="cls-2" d="M204.91,305.25l0,0c-3.06-3.57-9.79-14.41-7.23-24.55,2.66-10.53,12.45-19.08,32.16-22.7,13.94-2.56,31.34-1.45,49.06,3.48l3.95-11.95c-10.94-3.05-34-8.31-59.16-3.78-24.1,4.33-31.76,16.79-33.67,22.31C183.72,286.33,201.19,302.62,204.91,305.25Z" transform="translate(-180 -243.95)"/><path class="cls-2" d="M234.27,275.67a40.23,40.23,0,0,0-14.38,5.4,18.57,18.57,0,0,0-7.73,9.2C209.75,297,212,307.4,224,316.44l0,0c-1.16-1.51-10.57-14.5,3.29-23.79A30.71,30.71,0,0,1,239,288.21c9-1.74,19.79-1.06,30.49,1.9l4-11.95C259.63,274.34,245.79,273.45,234.27,275.67Z" transform="translate(-180 -243.95)"/><path class="cls-2" d="M229,260.69a50.8,50.8,0,0,0-18.11,6.81c-4.87,3.19-8.18,7.1-9.79,11.65-4.71,13.32,6.77,27,13.36,31.74l0,0c-2.63-3.15-13.87-19.84,3.8-31.81,4.05-2.74,9.29-4.64,15.41-5.82,12-2.3,26.28-1.4,40.5,2.55l3.94-11.95A126.88,126.88,0,0,0,253,259.45,93.94,93.94,0,0,0,229,260.69Z" transform="translate(-180 -243.95)"/></svg>