<?xml version="1.0" encoding="utf-8"?>
<!-- Generator: Adobe Illustrator 19.1.0, SVG Export Plug-In . SVG Version: 6.00 Build 0)  -->
<svg version="1.1" id="Layer_1" xmlns="http://www.w3.org/2000/svg" xmlns:xlink="http://www.w3.org/1999/xlink" x="0px" y="0px"
	 viewBox="0 0 300 110" style="enable-background:new 0 0 300 110;" xml:space="preserve">
<style type="text/css">
	.st0{fill:#FF6600;}
</style>
<g>
	<path class="st0" d="M266.2,31.5c0.8,0,1.4,0.6,1.4,1.4V42c0,0.8-0.6,1.4-1.4,1.4h-10.5c-1.3,0-2.7-0.2-2.7-0.2v36
		c0,0.8-0.6,1.4-1.4,1.4h-11.3c-0.8,0-1.4-0.6-1.4-1.4v-36c0,0-1,0.2-2.1,0.2h-11c-0.8,0-1.4-0.6-1.4-1.4v-9.1
		c0-0.8,0.6-1.4,1.4-1.4H266.2z M33.8,31.5c-0.8,0-1.4,0.6-1.4,1.4v9.1c0,0.8,0.6,1.4,1.4,1.4h11c1.1,0,2.1-0.2,2.1-0.2v36
		c0,0.8,0.6,1.4,1.4,1.4h11.3c0.8,0,1.4-0.6,1.4-1.4v-36c0,0,1.4,0.2,2.7,0.2h10.5c0.8,0,1.4-0.6,1.4-1.4v-9.1
		c0-0.8-0.6-1.4-1.4-1.4H33.8z M245.9,0.7c-20.8,0-38.9,11.9-48,29.3c-9-17.4-27.1-29.3-48-29.3c-20.8,0-39,11.9-48,29.3
		c-9-17.4-27.1-29.3-48-29.3C24.3,0.7,0,25.1,0,55c0,29.9,24.3,54.3,54.1,54.3c20.8,0,38.9-11.9,48-29.3c9,17.4,27.1,29.3,48,29.3
		c20.8,0,38.9-11.9,48-29.3c9,17.4,27.1,29.3,48,29.3c29.8,0,54.1-24.4,54.1-54.3C300,25.1,275.7,0.7,245.9,0.7 M54.1,97.1
		C31,97.1,12.2,78.2,12.2,55c0-23.2,18.8-42.1,41.9-42.1c23.1,0,41.9,18.9,41.9,42.1C95.9,78.2,77.1,97.1,54.1,97.1 M150,97.1
		c-23.1,0-41.9-18.9-41.9-42.1c0-23.2,18.8-42.1,41.9-42.1c23.1,0,41.9,18.9,41.9,42.1C191.9,78.2,173.1,97.1,150,97.1 M245.9,97.1
		c-23.1,0-41.9-18.9-41.9-42.1c0-23.2,18.8-42.1,41.9-42.1c23.1,0,41.9,18.9,41.9,42.1C287.8,78.2,269,97.1,245.9,97.1 M170.9,30.6
		c0.9,0,1.5,0.7,1.5,1.5v45.9c0,0.8-0.6,1.4-1.4,1.4h-9.5c-0.5,0-1.2-0.4-1.6-0.8c0,0-17.1-23.4-17.6-24c-0.6-0.8-1.2-2.2-1.2-2.2
		v25.6c0,0.8-0.6,1.4-1.4,1.4h-10.7c-0.8,0-1.4-0.6-1.4-1.4V32.1c0-0.8,0.6-1.4,1.4-1.4h9.5c0.5,0,1.3,0.4,1.6,0.8
		c0,0,16.9,23,17.6,24c0.6,0.8,1.2,2.2,1.2,2.2V32.1c0-0.8,0.6-1.4,1.4-1.4C160.3,30.6,170.2,30.6,170.9,30.6"/>
</g>
</svg>
