<?xml version="1.0" encoding="UTF-8"?>
<svg width="178px" height="44px" viewBox="0 0 178 44" version="1.1" xmlns="http://www.w3.org/2000/svg" xmlns:xlink="http://www.w3.org/1999/xlink">
    <!-- Generator: sketchtool 45.2 (43514) - http://www.bohemiancoding.com/sketch -->
    <title>790EFD08-CD6B-4003-840A-3A132FAA6F2E</title>
    <desc>Created with sketchtool.</desc>
    <defs>
        <polygon id="path-1" points="0.10198427 0.232222222 31.8873846 0.232222222 31.8873846 43.9861308 0.10198427 43.9861308"></polygon>
        <polygon id="path-3" points="12.7287568 0.166962162 12.7287568 12.7470973 0.151818919 12.7470973 0.151818919 0.166962162 12.7287568 0.166962162"></polygon>
    </defs>
    <g id="Ikonlar" stroke="none" stroke-width="1" fill="none" fill-rule="evenodd">
        <g id="Sayfa-01" transform="translate(-50.000000, -71.000000)">
            <g id="Logolar">
                <g id="Page-1" transform="translate(50.000000, 71.000000)">
                    <path d="M41.8131532,2.80542848 C42.4605347,1.73381089 41.3692952,0.549301155 39.4105149,0.139595296 C37.4683704,-0.263934094 35.3361528,0.235673722 34.6137331,1.27366386 L9.66105247,37.2443971 C8.25550195,39.2757696 9.14321807,41.8016028 11.8307892,42.6865537 C14.5498623,43.584887 17.8964954,42.4813576 19.2199286,40.281848 L41.8131532,2.80542848 Z" id="Fill-1" fill="#0069B3"></path>
                    <path d="M1.16051103,42.8598692 C-0.00471572305,42.4570605 -0.345272102,41.3241181 0.380898885,40.3428294 L14.3629213,21.4389541 C15.5141765,19.8857045 14.3629213,18.5064105 14.3629213,18.5064105 L1.6390364,3.17703387 C0.823098245,2.19368651 1.74556942,0.916295635 3.6572259,0.316886059 C5.54478146,-0.277720006 7.74739534,-0.0124975665 8.61572678,0.919383607 L21.5128588,14.8053052 C21.5128588,14.8053052 22.6089264,15.9804499 21.5128588,17.5436497 L4.58004637,41.7636394 C3.87378483,42.7675732 2.33970932,43.2623349 1.16051103,42.8598692" id="Fill-3" fill="#0069B3"></path>
                    <g id="Group-7" transform="translate(33.000000, 0.000000)">
                        <mask id="mask-2" fill="white">
                            <use xlink:href="#path-1"></use>
                        </mask>
                        <g id="Clip-6"></g>
                        <path d="M24.8418813,0.304368254 C23.9293538,0.118939683 23.4465407,0.293193651 22.7784088,0.796749206 L0.711771429,17.4287492 C0.711771429,17.4287492 -0.849898901,18.6390984 1.02509011,20.5059556 L22.4144527,41.9632889 C24.4385407,43.9932254 27.9975736,44.6144635 30.231244,43.2790984 C32.4184967,41.9681778 32.4244747,39.3410984 30.3367385,37.4326857 L8.31370549,17.3159556 C7.5013978,16.5724952 7.4053978,16.3462095 8.24091429,15.6855111 L26.0747604,1.55697143 C26.4935736,1.15119365 25.7544088,0.490495238 24.8418813,0.304368254" id="Fill-5" fill="#EE7D00" mask="url(#mask-2)"></path>
                    </g>
                    <path d="M131.585726,21.8063172 C132.138091,22.3085644 132.138091,23.1231643 131.585726,23.6240695 C131.034097,24.1253102 130.143826,24.1253102 129.591092,23.6240695 L124.414551,18.9109311 C124.138184,18.6582977 124,18.3295053 124,18.0023905 C124,17.6735981 124.138184,17.3424571 124.414551,17.0921723 L129.591092,12.3786984 C130.143826,11.8737672 131.034097,11.8737672 131.585726,12.3786984 C132.138091,12.8799391 132.138091,13.693197 131.585726,14.1937666 L127.408897,18.0023905 L131.585726,21.8063172 Z" id="Fill-8" fill="#EE7D00"></path>
                    <path d="M153,13.282279 C153,13.9917889 152.365196,14.5648932 151.588712,14.5648932 C149.506555,14.5648932 147.818529,16.1062421 147.818529,18.0015082 L147.818529,22.7173858 C147.818529,23.4279011 147.185933,24 146.406136,24 C145.631492,24 145,23.4279011 145,22.7173858 L145,18.0015082 C145,14.6922497 147.956162,12 151.588712,12 C152.365196,12 153,12.5757855 153,13.282279" id="Fill-10" fill="#EE7D00"></path>
                    <path d="M138.00352,21.4330959 C136.105925,21.4330959 134.568005,19.8944282 134.568005,18.0015082 C134.568005,16.1062421 136.105925,14.5648932 138.00352,14.5648932 C139.895081,14.5648932 141.433671,16.1062421 141.433671,18.0015082 C141.433671,19.8944282 139.895081,21.4330959 138.00352,21.4330959 M138.00352,12 C134.693707,12 132,14.6922497 132,18.0015082 C132,21.3074152 134.693707,24 138.00352,24 C139.284002,24 140.472974,23.5931295 141.451102,22.9050691 C141.542948,23.5254294 142.073913,24 142.718176,24 C143.427805,24 144,23.4279011 144,22.717721 L144,18.0015082 C144,14.6922497 141.307969,12 138.00352,12" id="Fill-12" fill="#EE7D00"></path>
                    <path d="M96,13.282279 C96,13.9917889 95.3674521,14.5648932 94.589838,14.5648932 C92.5092047,14.5648932 90.8166421,16.1062421 90.8166421,18.0015082 L90.8166421,22.7173858 C90.8166421,23.4279011 90.1840943,24 89.4046392,24 C88.6255523,24 88,23.4279011 88,22.7173858 L88,18.0015082 C88,14.6922497 90.9547128,12 94.589838,12 C95.3674521,12 96,12.5757855 96,13.282279" id="Fill-14" fill="#0069B3"></path>
                    <path d="M85.6867034,12 C84.9626451,12 84.3744333,12.5757855 84.3744333,13.282279 L84.3744333,18.1258483 C84.3744333,20.0201089 82.9328182,21.4330959 80.9960649,21.4330959 C79.0630757,21.4330959 77.620434,20.0201089 77.620434,18.1258483 L77.620434,13.282279 C77.620434,12.5757855 77.0315378,12 76.3081639,12 C75.5841056,12 75,12.5757855 75,13.282279 L75,18.1258483 C75,21.4351068 77.6173544,24 80.9960649,24 C84.3812769,24 87,21.4351068 87,18.1258483 L87,13.282279 C87,12.5757855 86.4111038,12 85.6867034,12" id="Fill-16" fill="#0069B3"></path>
                    <path d="M101.664537,11.5387728 L99.6643052,11.5387728 L99.6643052,9.32982403 C99.6643052,8.59513193 99.0664305,8 98.3330236,8 C97.5936937,8 97,8.59513193 97,9.32982403 L97,22.6684358 C97,23.4059122 97.5936937,24 98.3330236,24 C99.0664305,24 99.6643052,23.4059122 99.6643052,22.6684358 L99.6643052,14.2050334 L101.664537,14.2050334 C102.402125,14.2050334 103,13.6071172 103,12.8703369 C103,12.1366889 102.402125,11.5387728 101.664537,11.5387728" id="Fill-18" fill="#0069B3"></path>
                    <path d="M105.499216,12 C104.670063,12 104,12.5757855 104,13.282279 L104,22.717721 C104,23.4279011 104.670063,24 105.499216,24 C106.328762,24 107,23.4279011 107,22.717721 L107,13.282279 C107,12.5757855 106.328762,12 105.499216,12" id="Fill-20" fill="#0069B3"></path>
                    <path d="M105.500384,8 C104.674347,8 104,8.67230769 104,9.50423077 C104,10.3303846 104.674347,11 105.500384,11 C106.328725,11 107,10.3303846 107,9.50423077 C107,8.67230769 106.328725,8 105.500384,8" id="Fill-22" fill="#0069B3"></path>
                    <path d="M121.498628,12 C120.669149,12 120,12.5757855 120,13.282279 L120,22.717721 C120,23.4279011 120.669149,24 121.498628,24 C122.328499,24 123,23.4279011 123,22.717721 L123,13.282279 C123,12.5757855 122.328499,12 121.498628,12" id="Fill-24" fill="#0069B3"></path>
                    <path d="M120,9.50403794 C120,8.67222151 120.673141,8 121.50115,8 C122.329159,8 123,8.67222151 123,9.50403794 C123,10.3300859 122.329159,11 121.50115,11 C120.673141,11 120,10.3300859 120,9.50403794" id="Fill-26" fill="#0069B3"></path>
                    <path d="M116.730495,20.5419181 C116.087868,21.1726275 115.197008,21.5594762 114.21484,21.5594762 C112.252935,21.5594762 110.654873,20.0042697 110.654873,18.081574 C110.654873,16.15718 112.252935,14.5989168 114.21484,14.5989168 C115.197008,14.5989168 116.087868,14.9908601 116.730495,15.6195317 C117.250221,16.1276314 118.092129,16.1276314 118.612549,15.6195317 C119.12915,15.1110922 119.12915,14.2884868 118.612549,13.781406 C117.485608,12.6796174 115.932679,12 114.21484,12 C110.782982,12 108,14.7215264 108,18.081574 C108,20.9932982 110.098346,23.4288487 112.894521,24.0204996 C112.890355,24.0673698 112.886189,24.1115229 112.886189,24.1604309 L112.886189,25.45921 C112.886189,26.1802633 115.544186,26.1802633 115.544186,25.45921 L115.544186,24.1604309 C115.544186,24.1115229 115.540367,24.0673698 115.538284,24.0204996 C116.72251,23.7698461 117.783834,23.1880447 118.612549,22.3763078 C119.12915,21.871944 119.12915,21.0483197 118.612549,20.5419181 C118.092129,20.0344976 117.250221,20.0344976 116.730495,20.5419181" id="Fill-28" fill="#0069B3"></path>
                    <g id="Group-32" transform="translate(165.000000, 12.000000)">
                        <mask id="mask-4" fill="white">
                            <use xlink:href="#path-3"></use>
                        </mask>
                        <g id="Clip-31"></g>
                        <path d="M6.44030541,10.0560973 C4.45481892,10.0560973 2.83965676,8.44304324 2.83965676,6.45861081 C2.83965676,4.47171892 4.45481892,2.85585405 6.44030541,2.85585405 C8.42614324,2.85585405 10.0399,4.47171892 10.0399,6.45861081 C10.0399,8.44304324 8.42614324,10.0560973 6.44030541,10.0560973 M6.44030541,0.166962162 C2.97141351,0.166962162 0.151818919,2.98936757 0.151818919,6.45861081 C0.151818919,9.92434054 2.97141351,12.7470973 6.44030541,12.7470973 C9.90954865,12.7470973 12.7287919,9.92434054 12.7287919,6.45861081 C12.7287919,2.98936757 9.90954865,0.166962162 6.44030541,0.166962162" id="Fill-30" fill="#EE7D00" mask="url(#mask-4)"></path>
                    </g>
                    <path d="M161.43458,18.0433223 C161.43458,16.1348514 159.895998,14.5827635 157.999162,14.5827635 C156.104002,14.5827635 154.567431,16.1348514 154.567431,18.0433223 C154.567431,19.9494307 156.104002,21.4988188 157.999162,21.4988188 C159.895998,21.4988188 161.43458,19.9494307 161.43458,18.0433223 L161.43458,18.0433223 Z M164,24.9566777 C164,28.2964173 161.372581,31 158.125506,31 C155.519535,31 155.975312,29.3375548 155.975312,29.3375548 C155.975312,29.3375548 156.184098,28.3470399 157.196191,28.3470399 C157.4405,28.3470399 157.685145,28.4192614 158.125506,28.4192614 C159.953975,28.4192614 161.43458,26.8648111 161.43458,24.9566777 L161.43525,22.9918471 C160.463373,23.6826764 159.276678,24.0836072 157.999162,24.0836072 C154.690089,24.0836072 152,21.3725999 152,18.0433223 C152,14.7110073 154.690089,12 157.999162,12 C161.307901,12 164,14.7110073 164,18.0433223 L164,24.9566777 Z" id="Fill-33" fill="#EE7D00"></path>
                    <path d="M68.0010275,28.4162241 C69.8656239,28.4162241 71.3767553,26.8648111 71.3767553,24.9566777 L71.3808654,22.9918471 C70.3852038,23.6779517 69.3049435,24.0836072 68.0010275,24.0836072 C64.6194771,24.0836072 62,21.4775573 62,18.1455799 L62,13.2915505 C62,12.5801346 62.5849983,12 63.3117936,12 C64.0327663,12 64.6194771,12.5801346 64.6194771,13.2915505 L64.6194771,18.1455799 C64.6194771,20.0537132 66.0624501,21.4988188 68.0010275,21.4988188 C69.9330974,21.4988188 71.3767553,20.0763246 71.3767553,18.1688662 L71.3767553,13.2915505 C71.3767553,12.5801346 71.9665487,12 72.6875214,12 C73.4122617,12 74,12.5801346 74,13.2915505 L74,24.9566777 C74,28.292705 71.3127069,31 68.0010275,31 C65.3342847,31 65.8007763,29.3375548 65.8007763,29.3375548 C65.8007763,29.3375548 66.0141569,28.3433276 67.0450965,28.3433276 C67.29581,28.3433276 67.5468661,28.4162241 68.0010275,28.4162241" id="Fill-35" fill="#0069B3"></path>
                    <path d="M145,33 L144,33 L145,33 Z" id="Fill-37" fill="#0069B3"></path>
                </g>
            </g>
        </g>
    </g>
</svg>